G04 EAGLE Gerber RS-274X export*
G75*
%MOMM*%
%FSLAX34Y34*%
%LPD*%
%INBottom Copper*%
%IPPOS*%
%AMOC8*
5,1,8,0,0,1.08239X$1,22.5*%
G01*
%ADD10C,1.960000*%
%ADD11C,1.400000*%
%ADD12R,1.288000X1.288000*%
%ADD13C,1.288000*%
%ADD14C,3.220000*%
%ADD15R,2.000000X4.100000*%
%ADD16C,1.016000*%
%ADD17C,4.445000*%
%ADD18R,1.524000X1.524000*%
%ADD19P,1.649562X8X202.500000*%
%ADD20R,1.676400X1.676400*%
%ADD21C,1.676400*%
%ADD22C,4.016000*%
%ADD23C,0.609600*%
%ADD24C,0.254000*%
%ADD25C,0.508000*%


D10*
X1180100Y863200D03*
X1180100Y813200D03*
X1055100Y813200D03*
X1055100Y863200D03*
D11*
X1092600Y50800D03*
X1117600Y50800D03*
X1142600Y50800D03*
X127400Y50800D03*
X152400Y50800D03*
X177400Y50800D03*
D10*
X214900Y863200D03*
X214900Y813200D03*
X89900Y813200D03*
X89900Y863200D03*
D12*
X635000Y863600D03*
D13*
X660000Y863600D03*
X680000Y863600D03*
X705000Y863600D03*
D14*
X604300Y890700D03*
X735700Y890700D03*
D15*
X514350Y864550D03*
X514350Y951550D03*
D16*
X76200Y914400D03*
X1200150Y914400D03*
X1200150Y107950D03*
D17*
X50800Y965200D03*
X1219200Y965200D03*
X50800Y50800D03*
X1219200Y50800D03*
D18*
X1198200Y378200D03*
D19*
X1198200Y403600D03*
X1172800Y378200D03*
X1172800Y403600D03*
X1147400Y378200D03*
X1147400Y403600D03*
X1122000Y378200D03*
X1122000Y403600D03*
X1096600Y378200D03*
X1096600Y403600D03*
X1071200Y378200D03*
X1071200Y403600D03*
X1045800Y378200D03*
X1045800Y403600D03*
X1020400Y378200D03*
X1020400Y403600D03*
X995000Y378200D03*
X995000Y403600D03*
X969600Y378200D03*
X969600Y403600D03*
X944200Y378200D03*
X944200Y403600D03*
X918800Y378200D03*
X918800Y403600D03*
X893400Y378200D03*
X893400Y403600D03*
X868000Y378200D03*
X868000Y403600D03*
X842600Y378200D03*
X842600Y403600D03*
X817200Y378200D03*
X817200Y403600D03*
X791800Y378200D03*
X791800Y403600D03*
X766400Y378200D03*
X766400Y403600D03*
D18*
X1198200Y632200D03*
D19*
X1198200Y657600D03*
X1172800Y632200D03*
X1172800Y657600D03*
X1147400Y632200D03*
X1147400Y657600D03*
X1122000Y632200D03*
X1122000Y657600D03*
X1096600Y632200D03*
X1096600Y657600D03*
X1071200Y632200D03*
X1071200Y657600D03*
X1045800Y632200D03*
X1045800Y657600D03*
X1020400Y632200D03*
X1020400Y657600D03*
X995000Y632200D03*
X995000Y657600D03*
X969600Y632200D03*
X969600Y657600D03*
X944200Y632200D03*
X944200Y657600D03*
X918800Y632200D03*
X918800Y657600D03*
X893400Y632200D03*
X893400Y657600D03*
X868000Y632200D03*
X868000Y657600D03*
X842600Y632200D03*
X842600Y657600D03*
X817200Y632200D03*
X817200Y657600D03*
X791800Y632200D03*
X791800Y657600D03*
X766400Y632200D03*
X766400Y657600D03*
D20*
X254000Y723900D03*
D21*
X254000Y698500D03*
X254000Y673100D03*
X254000Y647700D03*
X254000Y622300D03*
X254000Y596900D03*
X254000Y571500D03*
X254000Y546100D03*
X254000Y520700D03*
X254000Y495300D03*
X254000Y469900D03*
X254000Y444500D03*
X254000Y419100D03*
X254000Y393700D03*
X254000Y368300D03*
X254000Y342900D03*
X254000Y317500D03*
X254000Y292100D03*
X254000Y266700D03*
X254000Y241300D03*
D22*
X254000Y768350D03*
X254000Y196850D03*
X1016000Y768350D03*
X1016000Y196850D03*
D23*
X476250Y787400D03*
X654050Y787400D03*
X831850Y787400D03*
X1206500Y228600D03*
D24*
X514350Y920750D02*
X514350Y951550D01*
X476250Y882650D02*
X476250Y787400D01*
X476250Y882650D02*
X514350Y920750D01*
X214900Y813200D02*
X89900Y813200D01*
X214900Y763000D02*
X254000Y723900D01*
X214900Y763000D02*
X214900Y813200D01*
X254000Y723900D02*
X317500Y787400D01*
X820420Y789940D02*
X822960Y787400D01*
D23*
X317500Y787400D03*
X1037590Y812165D03*
X1143000Y40640D03*
X50800Y863600D03*
X1219200Y812800D03*
D25*
X264160Y698500D02*
X254000Y698500D01*
X918800Y632200D02*
X918800Y621620D01*
X254000Y691642D02*
X254000Y698500D01*
X254000Y691642D02*
X254496Y691642D01*
X267462Y678676D01*
X267462Y235724D02*
X259576Y227838D01*
X248424Y227838D01*
X240538Y235724D01*
X240538Y499364D01*
X54991Y684911D01*
X54991Y841629D01*
X50800Y845820D01*
X264160Y698500D02*
X285750Y676910D01*
X285750Y308610D02*
X294640Y299720D01*
X847861Y390900D02*
X855300Y398339D01*
X855300Y415880D01*
X829900Y383461D02*
X829900Y372939D01*
X829900Y383461D02*
X837339Y390900D01*
X847861Y390900D01*
X829900Y372939D02*
X756681Y299720D01*
X918800Y479380D02*
X918800Y632200D01*
X756681Y299720D02*
X294640Y299720D01*
X855300Y415880D02*
X918800Y479380D01*
D23*
X285750Y676910D03*
X285750Y308610D03*
X267462Y678676D03*
X267462Y235724D03*
D24*
X214900Y863200D02*
X330870Y979170D01*
X1103630Y979170D01*
X1198880Y883920D01*
X1198880Y658280D01*
X1198200Y657600D01*
X214900Y863200D02*
X89900Y863200D01*
D25*
X918800Y403600D02*
X931240Y391160D01*
X938679Y391160D02*
X938939Y390900D01*
X1134700Y390900D02*
X1147400Y378200D01*
X1134700Y390900D02*
X938939Y390900D01*
X938679Y391160D02*
X931240Y391160D01*
X1045800Y428580D02*
X1045800Y632200D01*
X1033780Y416560D02*
X924560Y416560D01*
X918800Y410800D01*
X918800Y403600D01*
X1033780Y416560D02*
X1045800Y428580D01*
X515300Y863600D02*
X514350Y864550D01*
X515300Y863600D02*
X635000Y863600D01*
D24*
X923535Y669030D02*
X930230Y662335D01*
X1101335Y643630D02*
X1108030Y636935D01*
X854570Y669030D02*
X660000Y863600D01*
X1108030Y636935D02*
X1108030Y629330D01*
X930230Y655406D02*
X930230Y662335D01*
X930230Y655406D02*
X942006Y643630D01*
X923535Y669030D02*
X854570Y669030D01*
X942006Y643630D02*
X1101335Y643630D01*
X1152135Y389630D02*
X1158830Y382935D01*
X1158830Y373466D01*
X1152135Y366770D01*
X1145206Y389630D02*
X1133430Y401406D01*
X1145206Y389630D02*
X1152135Y389630D01*
X1105836Y378200D02*
X1096600Y378200D01*
X1105836Y378200D02*
X1117266Y366770D01*
X1133430Y401406D02*
X1133430Y603930D01*
X1117266Y366770D02*
X1152135Y366770D01*
X1133430Y603930D02*
X1108030Y629330D01*
X862880Y680720D02*
X680000Y863600D01*
X1126735Y643630D02*
X1133430Y636935D01*
X1177535Y389630D02*
X1184230Y382935D01*
X1184230Y373466D01*
X1133430Y611114D02*
X1133430Y636935D01*
X1108030Y655406D02*
X1108030Y662335D01*
X1108030Y655406D02*
X1119806Y643630D01*
X1126735Y643630D01*
X1158830Y401406D02*
X1170606Y389630D01*
X1177535Y389630D01*
X1080436Y378200D02*
X1071200Y378200D01*
X1158830Y585714D02*
X1133430Y611114D01*
X1158830Y585714D02*
X1158830Y401406D01*
X1184230Y373466D02*
X1172455Y361690D01*
X1096946Y361690D01*
X1080436Y378200D01*
X1108030Y662335D02*
X1089645Y680720D01*
X862880Y680720D01*
X307340Y594360D02*
X254000Y647700D01*
X842600Y632200D02*
X842600Y624580D01*
X812380Y594360D01*
X307340Y594360D01*
X241808Y576550D02*
X241808Y566450D01*
X248950Y559308D01*
X884510Y623310D02*
X893400Y632200D01*
X884510Y623310D02*
X884510Y615706D01*
X828112Y559308D02*
X248950Y559308D01*
X828112Y559308D02*
X884510Y615706D01*
X254000Y596900D02*
X254000Y588742D01*
X241808Y576550D01*
X254000Y622300D02*
X299720Y576580D01*
X812380Y576580D02*
X868000Y632200D01*
X812380Y576580D02*
X299720Y576580D01*
X254000Y571500D02*
X827405Y571500D01*
X874985Y619080D01*
D23*
X874985Y619080D03*
D24*
X801036Y632200D02*
X791800Y632200D01*
X801036Y632200D02*
X812466Y620770D01*
X923510Y645575D02*
X932180Y636905D01*
X48170Y852170D02*
X44450Y848450D01*
X48170Y852170D02*
X53430Y852170D01*
X61341Y844259D01*
X44450Y848450D02*
X44450Y662342D01*
X61341Y738759D02*
X61341Y844259D01*
X61341Y738759D02*
X254000Y546100D01*
X842512Y366770D02*
X847335Y366770D01*
X856570Y376006D01*
X856570Y382935D01*
X865806Y392170D01*
X872735Y392170D01*
X881970Y401406D01*
X881970Y408335D01*
X932180Y458545D02*
X932180Y636905D01*
X932180Y458545D02*
X881970Y408335D01*
X923510Y645575D02*
X839754Y645575D01*
X831170Y636991D02*
X831170Y627335D01*
X824605Y620770D02*
X812466Y620770D01*
X824605Y620770D02*
X831170Y627335D01*
X831170Y636991D02*
X839754Y645575D01*
X628777Y153035D02*
X242570Y153035D01*
X212725Y182880D01*
X628777Y153035D02*
X842512Y366770D01*
X212725Y494067D02*
X212725Y182880D01*
X212725Y494067D02*
X44450Y662342D01*
X239522Y659892D02*
X259050Y659892D01*
X263622Y655320D01*
X743280Y655320D02*
X766400Y632200D01*
X743280Y655320D02*
X263622Y655320D01*
D23*
X239522Y659892D03*
M02*
