G04 EAGLE Gerber RS-274X export*
G75*
%MOMM*%
%FSLAX34Y34*%
%LPD*%
%IN*%
%IPPOS*%
%AMOC8*
5,1,8,0,0,1.08239X$1,22.5*%
G01*
%ADD10C,0.254000*%


D10*
X0Y0D02*
X1270000Y0D01*
X1270000Y1016000D01*
X0Y1016000D01*
X0Y0D01*
X1080100Y120309D02*
X1080023Y119330D01*
X1079869Y118360D01*
X1079640Y117404D01*
X1079336Y116470D01*
X1078961Y115563D01*
X1078515Y114688D01*
X1078001Y113850D01*
X1077424Y113055D01*
X1076786Y112308D01*
X1076092Y111614D01*
X1075345Y110976D01*
X1074550Y110399D01*
X1073712Y109885D01*
X1072837Y109439D01*
X1071930Y109064D01*
X1070996Y108760D01*
X1070041Y108531D01*
X1069070Y108377D01*
X1068091Y108300D01*
X1067109Y108300D01*
X1066130Y108377D01*
X1065160Y108531D01*
X1064204Y108760D01*
X1063270Y109064D01*
X1062363Y109439D01*
X1061488Y109885D01*
X1060650Y110399D01*
X1059855Y110976D01*
X1059108Y111614D01*
X1058414Y112308D01*
X1057776Y113055D01*
X1057199Y113850D01*
X1056685Y114688D01*
X1056239Y115563D01*
X1055864Y116470D01*
X1055560Y117404D01*
X1055331Y118360D01*
X1055177Y119330D01*
X1055100Y120309D01*
X1055100Y121291D01*
X1055177Y122270D01*
X1055331Y123241D01*
X1055560Y124196D01*
X1055864Y125130D01*
X1056239Y126037D01*
X1056685Y126912D01*
X1057199Y127750D01*
X1057776Y128545D01*
X1058414Y129292D01*
X1059108Y129986D01*
X1059855Y130624D01*
X1060650Y131201D01*
X1061488Y131715D01*
X1062363Y132161D01*
X1063270Y132536D01*
X1064204Y132840D01*
X1065160Y133069D01*
X1066130Y133223D01*
X1067109Y133300D01*
X1068091Y133300D01*
X1069070Y133223D01*
X1070041Y133069D01*
X1070996Y132840D01*
X1071930Y132536D01*
X1072837Y132161D01*
X1073712Y131715D01*
X1074550Y131201D01*
X1075345Y130624D01*
X1076092Y129986D01*
X1076786Y129292D01*
X1077424Y128545D01*
X1078001Y127750D01*
X1078515Y126912D01*
X1078961Y126037D01*
X1079336Y125130D01*
X1079640Y124196D01*
X1079869Y123241D01*
X1080023Y122270D01*
X1080100Y121291D01*
X1080100Y120309D01*
X1180100Y120309D02*
X1180023Y119330D01*
X1179869Y118360D01*
X1179640Y117404D01*
X1179336Y116470D01*
X1178961Y115563D01*
X1178515Y114688D01*
X1178001Y113850D01*
X1177424Y113055D01*
X1176786Y112308D01*
X1176092Y111614D01*
X1175345Y110976D01*
X1174550Y110399D01*
X1173712Y109885D01*
X1172837Y109439D01*
X1171930Y109064D01*
X1170996Y108760D01*
X1170041Y108531D01*
X1169070Y108377D01*
X1168091Y108300D01*
X1167109Y108300D01*
X1166130Y108377D01*
X1165160Y108531D01*
X1164204Y108760D01*
X1163270Y109064D01*
X1162363Y109439D01*
X1161488Y109885D01*
X1160650Y110399D01*
X1159855Y110976D01*
X1159108Y111614D01*
X1158414Y112308D01*
X1157776Y113055D01*
X1157199Y113850D01*
X1156685Y114688D01*
X1156239Y115563D01*
X1155864Y116470D01*
X1155560Y117404D01*
X1155331Y118360D01*
X1155177Y119330D01*
X1155100Y120309D01*
X1155100Y121291D01*
X1155177Y122270D01*
X1155331Y123241D01*
X1155560Y124196D01*
X1155864Y125130D01*
X1156239Y126037D01*
X1156685Y126912D01*
X1157199Y127750D01*
X1157776Y128545D01*
X1158414Y129292D01*
X1159108Y129986D01*
X1159855Y130624D01*
X1160650Y131201D01*
X1161488Y131715D01*
X1162363Y132161D01*
X1163270Y132536D01*
X1164204Y132840D01*
X1165160Y133069D01*
X1166130Y133223D01*
X1167109Y133300D01*
X1168091Y133300D01*
X1169070Y133223D01*
X1170041Y133069D01*
X1170996Y132840D01*
X1171930Y132536D01*
X1172837Y132161D01*
X1173712Y131715D01*
X1174550Y131201D01*
X1175345Y130624D01*
X1176092Y129986D01*
X1176786Y129292D01*
X1177424Y128545D01*
X1178001Y127750D01*
X1178515Y126912D01*
X1178961Y126037D01*
X1179336Y125130D01*
X1179640Y124196D01*
X1179869Y123241D01*
X1180023Y122270D01*
X1180100Y121291D01*
X1180100Y120309D01*
X114900Y120309D02*
X114823Y119330D01*
X114669Y118360D01*
X114440Y117404D01*
X114136Y116470D01*
X113761Y115563D01*
X113315Y114688D01*
X112801Y113850D01*
X112224Y113055D01*
X111586Y112308D01*
X110892Y111614D01*
X110145Y110976D01*
X109350Y110399D01*
X108512Y109885D01*
X107637Y109439D01*
X106730Y109064D01*
X105796Y108760D01*
X104841Y108531D01*
X103870Y108377D01*
X102891Y108300D01*
X101909Y108300D01*
X100930Y108377D01*
X99960Y108531D01*
X99004Y108760D01*
X98070Y109064D01*
X97163Y109439D01*
X96288Y109885D01*
X95450Y110399D01*
X94655Y110976D01*
X93908Y111614D01*
X93214Y112308D01*
X92576Y113055D01*
X91999Y113850D01*
X91485Y114688D01*
X91039Y115563D01*
X90664Y116470D01*
X90360Y117404D01*
X90131Y118360D01*
X89977Y119330D01*
X89900Y120309D01*
X89900Y121291D01*
X89977Y122270D01*
X90131Y123241D01*
X90360Y124196D01*
X90664Y125130D01*
X91039Y126037D01*
X91485Y126912D01*
X91999Y127750D01*
X92576Y128545D01*
X93214Y129292D01*
X93908Y129986D01*
X94655Y130624D01*
X95450Y131201D01*
X96288Y131715D01*
X97163Y132161D01*
X98070Y132536D01*
X99004Y132840D01*
X99960Y133069D01*
X100930Y133223D01*
X101909Y133300D01*
X102891Y133300D01*
X103870Y133223D01*
X104841Y133069D01*
X105796Y132840D01*
X106730Y132536D01*
X107637Y132161D01*
X108512Y131715D01*
X109350Y131201D01*
X110145Y130624D01*
X110892Y129986D01*
X111586Y129292D01*
X112224Y128545D01*
X112801Y127750D01*
X113315Y126912D01*
X113761Y126037D01*
X114136Y125130D01*
X114440Y124196D01*
X114669Y123241D01*
X114823Y122270D01*
X114900Y121291D01*
X114900Y120309D01*
X214900Y120309D02*
X214823Y119330D01*
X214669Y118360D01*
X214440Y117404D01*
X214136Y116470D01*
X213761Y115563D01*
X213315Y114688D01*
X212801Y113850D01*
X212224Y113055D01*
X211586Y112308D01*
X210892Y111614D01*
X210145Y110976D01*
X209350Y110399D01*
X208512Y109885D01*
X207637Y109439D01*
X206730Y109064D01*
X205796Y108760D01*
X204841Y108531D01*
X203870Y108377D01*
X202891Y108300D01*
X201909Y108300D01*
X200930Y108377D01*
X199960Y108531D01*
X199004Y108760D01*
X198070Y109064D01*
X197163Y109439D01*
X196288Y109885D01*
X195450Y110399D01*
X194655Y110976D01*
X193908Y111614D01*
X193214Y112308D01*
X192576Y113055D01*
X191999Y113850D01*
X191485Y114688D01*
X191039Y115563D01*
X190664Y116470D01*
X190360Y117404D01*
X190131Y118360D01*
X189977Y119330D01*
X189900Y120309D01*
X189900Y121291D01*
X189977Y122270D01*
X190131Y123241D01*
X190360Y124196D01*
X190664Y125130D01*
X191039Y126037D01*
X191485Y126912D01*
X191999Y127750D01*
X192576Y128545D01*
X193214Y129292D01*
X193908Y129986D01*
X194655Y130624D01*
X195450Y131201D01*
X196288Y131715D01*
X197163Y132161D01*
X198070Y132536D01*
X199004Y132840D01*
X199960Y133069D01*
X200930Y133223D01*
X201909Y133300D01*
X202891Y133300D01*
X203870Y133223D01*
X204841Y133069D01*
X205796Y132840D01*
X206730Y132536D01*
X207637Y132161D01*
X208512Y131715D01*
X209350Y131201D01*
X210145Y130624D01*
X210892Y129986D01*
X211586Y129292D01*
X212224Y128545D01*
X212801Y127750D01*
X213315Y126912D01*
X213761Y126037D01*
X214136Y125130D01*
X214440Y124196D01*
X214669Y123241D01*
X214823Y122270D01*
X214900Y121291D01*
X214900Y120309D01*
M02*
