G04 EAGLE Gerber RS-274X export*
G75*
%MOMM*%
%FSLAX34Y34*%
%LPD*%
%INSilkscreen Bottom*%
%IPPOS*%
%AMOC8*
5,1,8,0,0,1.08239X$1,22.5*%
G01*
%ADD10C,0.127000*%
%ADD11C,0.300000*%
%ADD12C,0.152400*%
%ADD13R,0.508000X0.508000*%
%ADD14C,0.254000*%


D10*
X604350Y853500D02*
X735650Y853500D01*
X735650Y868600D01*
X735650Y914400D02*
X735650Y993500D01*
X604350Y993500D01*
X604350Y914400D01*
X604350Y868600D02*
X604350Y853500D01*
D11*
X633500Y846600D02*
X633502Y846677D01*
X633508Y846754D01*
X633518Y846831D01*
X633532Y846907D01*
X633549Y846982D01*
X633571Y847056D01*
X633596Y847129D01*
X633626Y847201D01*
X633658Y847271D01*
X633695Y847339D01*
X633734Y847405D01*
X633777Y847469D01*
X633824Y847531D01*
X633873Y847590D01*
X633926Y847647D01*
X633981Y847701D01*
X634039Y847752D01*
X634100Y847800D01*
X634163Y847845D01*
X634228Y847886D01*
X634295Y847924D01*
X634364Y847959D01*
X634435Y847989D01*
X634507Y848017D01*
X634581Y848040D01*
X634655Y848060D01*
X634731Y848076D01*
X634807Y848088D01*
X634884Y848096D01*
X634961Y848100D01*
X635039Y848100D01*
X635116Y848096D01*
X635193Y848088D01*
X635269Y848076D01*
X635345Y848060D01*
X635419Y848040D01*
X635493Y848017D01*
X635565Y847989D01*
X635636Y847959D01*
X635705Y847924D01*
X635772Y847886D01*
X635837Y847845D01*
X635900Y847800D01*
X635961Y847752D01*
X636019Y847701D01*
X636074Y847647D01*
X636127Y847590D01*
X636176Y847531D01*
X636223Y847469D01*
X636266Y847405D01*
X636305Y847339D01*
X636342Y847271D01*
X636374Y847201D01*
X636404Y847129D01*
X636429Y847056D01*
X636451Y846982D01*
X636468Y846907D01*
X636482Y846831D01*
X636492Y846754D01*
X636498Y846677D01*
X636500Y846600D01*
X636498Y846523D01*
X636492Y846446D01*
X636482Y846369D01*
X636468Y846293D01*
X636451Y846218D01*
X636429Y846144D01*
X636404Y846071D01*
X636374Y845999D01*
X636342Y845929D01*
X636305Y845861D01*
X636266Y845795D01*
X636223Y845731D01*
X636176Y845669D01*
X636127Y845610D01*
X636074Y845553D01*
X636019Y845499D01*
X635961Y845448D01*
X635900Y845400D01*
X635837Y845355D01*
X635772Y845314D01*
X635705Y845276D01*
X635636Y845241D01*
X635565Y845211D01*
X635493Y845183D01*
X635419Y845160D01*
X635345Y845140D01*
X635269Y845124D01*
X635193Y845112D01*
X635116Y845104D01*
X635039Y845100D01*
X634961Y845100D01*
X634884Y845104D01*
X634807Y845112D01*
X634731Y845124D01*
X634655Y845140D01*
X634581Y845160D01*
X634507Y845183D01*
X634435Y845211D01*
X634364Y845241D01*
X634295Y845276D01*
X634228Y845314D01*
X634163Y845355D01*
X634100Y845400D01*
X634039Y845448D01*
X633981Y845499D01*
X633926Y845553D01*
X633873Y845610D01*
X633824Y845669D01*
X633777Y845731D01*
X633734Y845795D01*
X633695Y845861D01*
X633658Y845929D01*
X633626Y845999D01*
X633596Y846071D01*
X633571Y846144D01*
X633549Y846218D01*
X633532Y846293D01*
X633518Y846369D01*
X633508Y846446D01*
X633502Y846523D01*
X633500Y846600D01*
D12*
X628696Y829590D02*
X623729Y829590D01*
X628696Y829590D02*
X628696Y840766D01*
X623729Y840766D01*
X624971Y835798D02*
X628696Y835798D01*
X616857Y840766D02*
X616857Y829590D01*
X616857Y835178D02*
X618409Y836109D01*
X618409Y836108D02*
X618481Y836154D01*
X618550Y836202D01*
X618618Y836254D01*
X618682Y836308D01*
X618745Y836366D01*
X618804Y836426D01*
X618861Y836489D01*
X618915Y836554D01*
X618965Y836622D01*
X619013Y836692D01*
X619057Y836764D01*
X619098Y836839D01*
X619136Y836914D01*
X619170Y836992D01*
X619200Y837071D01*
X619227Y837151D01*
X619250Y837233D01*
X619270Y837315D01*
X619286Y837399D01*
X619297Y837482D01*
X619305Y837567D01*
X619309Y837651D01*
X619310Y837736D01*
X619306Y837821D01*
X619299Y837905D01*
X619287Y837989D01*
X619272Y838072D01*
X619253Y838155D01*
X619230Y838237D01*
X619204Y838317D01*
X619174Y838396D01*
X619140Y838474D01*
X619103Y838550D01*
X619063Y838625D01*
X619019Y838697D01*
X618971Y838767D01*
X618921Y838835D01*
X618868Y838901D01*
X618811Y838964D01*
X618752Y839025D01*
X618690Y839083D01*
X618626Y839138D01*
X618559Y839190D01*
X618490Y839239D01*
X618418Y839284D01*
X618345Y839327D01*
X618270Y839366D01*
X618193Y839401D01*
X618114Y839433D01*
X618034Y839461D01*
X617953Y839486D01*
X617871Y839507D01*
X617788Y839524D01*
X617653Y839547D01*
X617518Y839565D01*
X617383Y839581D01*
X617247Y839592D01*
X617111Y839600D01*
X616974Y839603D01*
X616838Y839604D01*
X616701Y839600D01*
X616565Y839592D01*
X616429Y839581D01*
X616294Y839566D01*
X616159Y839547D01*
X616024Y839525D01*
X615890Y839498D01*
X615757Y839468D01*
X615625Y839435D01*
X615494Y839397D01*
X615364Y839357D01*
X615235Y839312D01*
X615107Y839264D01*
X614981Y839212D01*
X614856Y839157D01*
X614733Y839099D01*
X614611Y839037D01*
X614491Y838972D01*
X614373Y838903D01*
X616857Y835178D02*
X615305Y834246D01*
X615305Y834247D02*
X615233Y834201D01*
X615164Y834153D01*
X615096Y834101D01*
X615032Y834047D01*
X614969Y833989D01*
X614910Y833929D01*
X614853Y833866D01*
X614799Y833801D01*
X614749Y833733D01*
X614701Y833663D01*
X614657Y833591D01*
X614616Y833516D01*
X614578Y833441D01*
X614544Y833363D01*
X614514Y833284D01*
X614487Y833204D01*
X614464Y833122D01*
X614444Y833040D01*
X614428Y832956D01*
X614417Y832873D01*
X614409Y832788D01*
X614405Y832704D01*
X614404Y832619D01*
X614408Y832534D01*
X614415Y832450D01*
X614427Y832366D01*
X614442Y832283D01*
X614461Y832200D01*
X614484Y832118D01*
X614510Y832038D01*
X614540Y831959D01*
X614574Y831881D01*
X614611Y831805D01*
X614651Y831730D01*
X614695Y831658D01*
X614742Y831588D01*
X614793Y831520D01*
X614846Y831454D01*
X614903Y831391D01*
X614962Y831330D01*
X615024Y831272D01*
X615088Y831217D01*
X615155Y831165D01*
X615224Y831116D01*
X615296Y831071D01*
X615369Y831028D01*
X615444Y830990D01*
X615521Y830954D01*
X615600Y830922D01*
X615679Y830894D01*
X615761Y830869D01*
X615843Y830848D01*
X615926Y830831D01*
X616060Y830808D01*
X616195Y830790D01*
X616331Y830774D01*
X616467Y830763D01*
X616603Y830755D01*
X616740Y830752D01*
X616876Y830751D01*
X617012Y830755D01*
X617149Y830763D01*
X617285Y830774D01*
X617420Y830789D01*
X617555Y830808D01*
X617690Y830830D01*
X617824Y830857D01*
X617957Y830887D01*
X618089Y830920D01*
X618220Y830958D01*
X618351Y830998D01*
X618480Y831043D01*
X618607Y831091D01*
X618734Y831143D01*
X618858Y831198D01*
X618982Y831256D01*
X619103Y831318D01*
X619223Y831383D01*
X619341Y831452D01*
X605878Y840766D02*
X605774Y840764D01*
X605669Y840758D01*
X605565Y840748D01*
X605462Y840735D01*
X605359Y840717D01*
X605256Y840696D01*
X605155Y840671D01*
X605054Y840642D01*
X604955Y840609D01*
X604857Y840573D01*
X604761Y840533D01*
X604666Y840489D01*
X604572Y840442D01*
X604481Y840392D01*
X604392Y840338D01*
X604304Y840281D01*
X604219Y840220D01*
X604136Y840156D01*
X604056Y840090D01*
X603978Y840020D01*
X603902Y839948D01*
X603830Y839872D01*
X603760Y839794D01*
X603694Y839714D01*
X603630Y839631D01*
X603569Y839546D01*
X603512Y839458D01*
X603458Y839369D01*
X603408Y839278D01*
X603361Y839184D01*
X603317Y839089D01*
X603277Y838993D01*
X603241Y838895D01*
X603208Y838796D01*
X603179Y838695D01*
X603154Y838594D01*
X603133Y838491D01*
X603115Y838388D01*
X603102Y838285D01*
X603092Y838181D01*
X603086Y838076D01*
X603084Y837972D01*
X605878Y840766D02*
X605997Y840764D01*
X606115Y840758D01*
X606234Y840748D01*
X606352Y840735D01*
X606469Y840717D01*
X606586Y840695D01*
X606702Y840670D01*
X606817Y840641D01*
X606932Y840608D01*
X607045Y840571D01*
X607156Y840531D01*
X607267Y840487D01*
X607375Y840439D01*
X607482Y840388D01*
X607588Y840333D01*
X607691Y840274D01*
X607793Y840213D01*
X607892Y840148D01*
X607990Y840079D01*
X608084Y840008D01*
X608177Y839933D01*
X608267Y839856D01*
X608354Y839775D01*
X608439Y839692D01*
X608521Y839606D01*
X608600Y839517D01*
X608676Y839426D01*
X608749Y839332D01*
X608818Y839236D01*
X608885Y839137D01*
X608948Y839037D01*
X609008Y838934D01*
X609065Y838830D01*
X609117Y838723D01*
X609167Y838615D01*
X609213Y838506D01*
X609255Y838394D01*
X609293Y838282D01*
X604015Y835799D02*
X603940Y835873D01*
X603868Y835950D01*
X603798Y836029D01*
X603731Y836111D01*
X603667Y836195D01*
X603606Y836281D01*
X603548Y836369D01*
X603493Y836460D01*
X603441Y836552D01*
X603393Y836646D01*
X603348Y836741D01*
X603306Y836839D01*
X603268Y836937D01*
X603233Y837037D01*
X603202Y837138D01*
X603175Y837240D01*
X603151Y837343D01*
X603130Y837446D01*
X603114Y837551D01*
X603101Y837656D01*
X603091Y837761D01*
X603086Y837866D01*
X603084Y837972D01*
X604016Y835798D02*
X609293Y829590D01*
X603084Y829590D01*
X597863Y832073D02*
X595380Y840766D01*
X597863Y832073D02*
X591654Y832073D01*
X593517Y829590D02*
X593517Y834557D01*
D10*
X565850Y959550D02*
X529350Y959550D01*
X565850Y959550D02*
X565850Y876550D01*
X545850Y856550D01*
X529350Y856550D01*
X499350Y959550D02*
X462850Y959550D01*
X462850Y876550D01*
X482850Y856550D01*
X499350Y856550D01*
X484350Y873050D02*
X484350Y883050D01*
X489350Y878050D02*
X479350Y878050D01*
D13*
X1198200Y378200D03*
X1198200Y403600D03*
X1172800Y403600D03*
X1172800Y378200D03*
X1147400Y403600D03*
X1147400Y378200D03*
X1122000Y403600D03*
X1096600Y403600D03*
X1071200Y403600D03*
X1122000Y378200D03*
X1096600Y378200D03*
X1071200Y378200D03*
X1045800Y403600D03*
X1045800Y378200D03*
X1020400Y403600D03*
X1020400Y378200D03*
X995000Y403600D03*
X995000Y378200D03*
X969600Y403600D03*
X969600Y378200D03*
X944200Y403600D03*
X944200Y378200D03*
X918800Y403600D03*
X918800Y378200D03*
X893400Y403600D03*
X893400Y378200D03*
X868000Y403600D03*
X868000Y378200D03*
X842600Y403600D03*
X842600Y378200D03*
X817200Y403600D03*
X817200Y378200D03*
X791800Y403600D03*
X791800Y378200D03*
X766400Y403600D03*
X766400Y378200D03*
X1198200Y632200D03*
X1198200Y657600D03*
X1172800Y657600D03*
X1172800Y632200D03*
X1147400Y657600D03*
X1147400Y632200D03*
X1122000Y657600D03*
X1096600Y657600D03*
X1071200Y657600D03*
X1122000Y632200D03*
X1096600Y632200D03*
X1071200Y632200D03*
X1045800Y657600D03*
X1045800Y632200D03*
X1020400Y657600D03*
X1020400Y632200D03*
X995000Y657600D03*
X995000Y632200D03*
X969600Y657600D03*
X969600Y632200D03*
X944200Y657600D03*
X944200Y632200D03*
X918800Y657600D03*
X918800Y632200D03*
X893400Y657600D03*
X893400Y632200D03*
X868000Y657600D03*
X868000Y632200D03*
X842600Y657600D03*
X842600Y632200D03*
X817200Y657600D03*
X817200Y632200D03*
X791800Y657600D03*
X791800Y632200D03*
X766400Y657600D03*
X766400Y632200D03*
D14*
X807300Y692900D02*
X1157300Y692900D01*
X1159716Y692871D01*
X1162131Y692783D01*
X1164543Y692637D01*
X1166951Y692433D01*
X1169354Y692171D01*
X1171749Y691851D01*
X1174136Y691473D01*
X1176513Y691037D01*
X1178878Y690544D01*
X1181232Y689994D01*
X1183571Y689388D01*
X1185895Y688725D01*
X1188202Y688006D01*
X1190491Y687231D01*
X1192760Y686402D01*
X1195009Y685517D01*
X1197236Y684579D01*
X1199440Y683587D01*
X1201619Y682543D01*
X1203772Y681446D01*
X1205898Y680297D01*
X1207996Y679097D01*
X1210064Y677847D01*
X1212101Y676547D01*
X1214106Y675198D01*
X1216079Y673802D01*
X1218016Y672358D01*
X1219919Y670867D01*
X1221784Y669332D01*
X1223612Y667751D01*
X1225402Y666127D01*
X1227151Y664460D01*
X1228860Y662751D01*
X1230527Y661002D01*
X1232151Y659212D01*
X1233732Y657384D01*
X1235267Y655519D01*
X1236758Y653616D01*
X1238202Y651679D01*
X1239598Y649706D01*
X1240947Y647701D01*
X1242247Y645664D01*
X1243497Y643596D01*
X1244697Y641498D01*
X1245846Y639372D01*
X1246943Y637219D01*
X1247987Y635040D01*
X1248979Y632836D01*
X1249917Y630609D01*
X1250802Y628360D01*
X1251631Y626091D01*
X1252406Y623802D01*
X1253125Y621495D01*
X1253788Y619171D01*
X1254394Y616832D01*
X1254944Y614478D01*
X1255437Y612113D01*
X1255873Y609736D01*
X1256251Y607349D01*
X1256571Y604954D01*
X1256833Y602551D01*
X1257037Y600143D01*
X1257183Y597731D01*
X1257271Y595316D01*
X1257300Y592900D01*
X1257300Y442900D01*
X1257271Y440484D01*
X1257183Y438069D01*
X1257037Y435657D01*
X1256833Y433249D01*
X1256571Y430846D01*
X1256251Y428451D01*
X1255873Y426064D01*
X1255437Y423687D01*
X1254944Y421322D01*
X1254394Y418968D01*
X1253788Y416629D01*
X1253125Y414305D01*
X1252406Y411998D01*
X1251631Y409709D01*
X1250802Y407440D01*
X1249917Y405191D01*
X1248979Y402964D01*
X1247987Y400760D01*
X1246943Y398581D01*
X1245846Y396428D01*
X1244697Y394302D01*
X1243497Y392204D01*
X1242247Y390136D01*
X1240947Y388099D01*
X1239598Y386094D01*
X1238202Y384121D01*
X1236758Y382184D01*
X1235267Y380281D01*
X1233732Y378416D01*
X1232151Y376588D01*
X1230527Y374798D01*
X1228860Y373049D01*
X1227151Y371340D01*
X1225402Y369673D01*
X1223612Y368049D01*
X1221784Y366468D01*
X1219919Y364933D01*
X1218016Y363442D01*
X1216079Y361998D01*
X1214106Y360602D01*
X1212101Y359253D01*
X1210064Y357953D01*
X1207996Y356703D01*
X1205898Y355503D01*
X1203772Y354354D01*
X1201619Y353257D01*
X1199440Y352213D01*
X1197236Y351221D01*
X1195009Y350283D01*
X1192760Y349398D01*
X1190491Y348569D01*
X1188202Y347794D01*
X1185895Y347075D01*
X1183571Y346412D01*
X1181232Y345806D01*
X1178878Y345256D01*
X1176513Y344763D01*
X1174136Y344327D01*
X1171749Y343949D01*
X1169354Y343629D01*
X1166951Y343367D01*
X1164543Y343163D01*
X1162131Y343017D01*
X1159716Y342929D01*
X1157300Y342900D01*
X807300Y342900D01*
X804884Y342929D01*
X802469Y343017D01*
X800057Y343163D01*
X797649Y343367D01*
X795246Y343629D01*
X792851Y343949D01*
X790464Y344327D01*
X788087Y344763D01*
X785722Y345256D01*
X783368Y345806D01*
X781029Y346412D01*
X778705Y347075D01*
X776398Y347794D01*
X774109Y348569D01*
X771840Y349398D01*
X769591Y350283D01*
X767364Y351221D01*
X765160Y352213D01*
X762981Y353257D01*
X760828Y354354D01*
X758702Y355503D01*
X756604Y356703D01*
X754536Y357953D01*
X752499Y359253D01*
X750494Y360602D01*
X748521Y361998D01*
X746584Y363442D01*
X744681Y364933D01*
X742816Y366468D01*
X740988Y368049D01*
X739198Y369673D01*
X737449Y371340D01*
X735740Y373049D01*
X734073Y374798D01*
X732449Y376588D01*
X730868Y378416D01*
X729333Y380281D01*
X727842Y382184D01*
X726398Y384121D01*
X725002Y386094D01*
X723653Y388099D01*
X722353Y390136D01*
X721103Y392204D01*
X719903Y394302D01*
X718754Y396428D01*
X717657Y398581D01*
X716613Y400760D01*
X715621Y402964D01*
X714683Y405191D01*
X713798Y407440D01*
X712969Y409709D01*
X712194Y411998D01*
X711475Y414305D01*
X710812Y416629D01*
X710206Y418968D01*
X709656Y421322D01*
X709163Y423687D01*
X708727Y426064D01*
X708349Y428451D01*
X708029Y430846D01*
X707767Y433249D01*
X707563Y435657D01*
X707417Y438069D01*
X707329Y440484D01*
X707300Y442900D01*
X707300Y592900D01*
X707329Y595316D01*
X707417Y597731D01*
X707563Y600143D01*
X707767Y602551D01*
X708029Y604954D01*
X708349Y607349D01*
X708727Y609736D01*
X709163Y612113D01*
X709656Y614478D01*
X710206Y616832D01*
X710812Y619171D01*
X711475Y621495D01*
X712194Y623802D01*
X712969Y626091D01*
X713798Y628360D01*
X714683Y630609D01*
X715621Y632836D01*
X716613Y635040D01*
X717657Y637219D01*
X718754Y639372D01*
X719903Y641498D01*
X721103Y643596D01*
X722353Y645664D01*
X723653Y647701D01*
X725002Y649706D01*
X726398Y651679D01*
X727842Y653616D01*
X729333Y655519D01*
X730868Y657384D01*
X732449Y659212D01*
X734073Y661002D01*
X735740Y662751D01*
X737449Y664460D01*
X739198Y666127D01*
X740988Y667751D01*
X742816Y669332D01*
X744681Y670867D01*
X746584Y672358D01*
X748521Y673802D01*
X750494Y675198D01*
X752499Y676547D01*
X754536Y677847D01*
X756604Y679097D01*
X758702Y680297D01*
X760828Y681446D01*
X762981Y682543D01*
X765160Y683587D01*
X767364Y684579D01*
X769591Y685517D01*
X771840Y686402D01*
X774109Y687231D01*
X776398Y688006D01*
X778705Y688725D01*
X781029Y689388D01*
X783368Y689994D01*
X785722Y690544D01*
X788087Y691037D01*
X790464Y691473D01*
X792851Y691851D01*
X795246Y692171D01*
X797649Y692433D01*
X800057Y692637D01*
X802469Y692783D01*
X804884Y692871D01*
X807300Y692900D01*
D12*
X1032594Y532638D02*
X1032594Y521462D01*
X1032594Y532638D02*
X1029490Y532638D01*
X1029379Y532636D01*
X1029269Y532630D01*
X1029158Y532620D01*
X1029048Y532606D01*
X1028939Y532589D01*
X1028830Y532567D01*
X1028722Y532542D01*
X1028616Y532512D01*
X1028510Y532479D01*
X1028405Y532442D01*
X1028302Y532402D01*
X1028201Y532357D01*
X1028101Y532310D01*
X1028002Y532258D01*
X1027906Y532203D01*
X1027812Y532145D01*
X1027720Y532084D01*
X1027630Y532019D01*
X1027542Y531951D01*
X1027457Y531880D01*
X1027375Y531806D01*
X1027295Y531729D01*
X1027218Y531649D01*
X1027144Y531567D01*
X1027073Y531482D01*
X1027005Y531394D01*
X1026940Y531304D01*
X1026879Y531212D01*
X1026821Y531118D01*
X1026766Y531022D01*
X1026714Y530923D01*
X1026667Y530823D01*
X1026622Y530722D01*
X1026582Y530619D01*
X1026545Y530514D01*
X1026512Y530408D01*
X1026482Y530302D01*
X1026457Y530194D01*
X1026435Y530085D01*
X1026418Y529976D01*
X1026404Y529866D01*
X1026394Y529755D01*
X1026388Y529645D01*
X1026386Y529534D01*
X1026388Y529423D01*
X1026394Y529313D01*
X1026404Y529202D01*
X1026418Y529092D01*
X1026435Y528983D01*
X1026457Y528874D01*
X1026482Y528766D01*
X1026512Y528660D01*
X1026545Y528554D01*
X1026582Y528449D01*
X1026622Y528346D01*
X1026667Y528245D01*
X1026714Y528145D01*
X1026766Y528046D01*
X1026821Y527950D01*
X1026879Y527856D01*
X1026940Y527764D01*
X1027005Y527674D01*
X1027073Y527586D01*
X1027144Y527501D01*
X1027218Y527419D01*
X1027295Y527339D01*
X1027375Y527262D01*
X1027457Y527188D01*
X1027542Y527117D01*
X1027630Y527049D01*
X1027720Y526984D01*
X1027812Y526923D01*
X1027906Y526865D01*
X1028002Y526810D01*
X1028101Y526758D01*
X1028201Y526711D01*
X1028302Y526666D01*
X1028405Y526626D01*
X1028510Y526589D01*
X1028616Y526556D01*
X1028722Y526526D01*
X1028830Y526501D01*
X1028939Y526479D01*
X1029048Y526462D01*
X1029158Y526448D01*
X1029269Y526438D01*
X1029379Y526432D01*
X1029490Y526430D01*
X1029490Y526429D02*
X1032594Y526429D01*
X1021898Y526429D02*
X1021898Y523946D01*
X1021899Y526429D02*
X1021897Y526528D01*
X1021891Y526626D01*
X1021881Y526725D01*
X1021868Y526822D01*
X1021850Y526920D01*
X1021829Y527016D01*
X1021803Y527112D01*
X1021774Y527206D01*
X1021742Y527299D01*
X1021705Y527391D01*
X1021665Y527481D01*
X1021621Y527570D01*
X1021574Y527657D01*
X1021524Y527742D01*
X1021470Y527824D01*
X1021413Y527905D01*
X1021353Y527983D01*
X1021289Y528059D01*
X1021223Y528132D01*
X1021154Y528203D01*
X1021082Y528271D01*
X1021007Y528335D01*
X1020930Y528397D01*
X1020851Y528456D01*
X1020769Y528511D01*
X1020685Y528564D01*
X1020600Y528612D01*
X1020512Y528658D01*
X1020422Y528700D01*
X1020331Y528738D01*
X1020239Y528772D01*
X1020145Y528803D01*
X1020050Y528830D01*
X1019954Y528854D01*
X1019857Y528873D01*
X1019760Y528889D01*
X1019662Y528901D01*
X1019563Y528909D01*
X1019464Y528913D01*
X1019366Y528913D01*
X1019267Y528909D01*
X1019168Y528901D01*
X1019070Y528889D01*
X1018973Y528873D01*
X1018876Y528854D01*
X1018780Y528830D01*
X1018685Y528803D01*
X1018591Y528772D01*
X1018499Y528738D01*
X1018408Y528700D01*
X1018318Y528658D01*
X1018230Y528612D01*
X1018145Y528564D01*
X1018061Y528511D01*
X1017979Y528456D01*
X1017900Y528397D01*
X1017823Y528335D01*
X1017748Y528271D01*
X1017676Y528203D01*
X1017607Y528132D01*
X1017541Y528059D01*
X1017477Y527983D01*
X1017417Y527905D01*
X1017360Y527824D01*
X1017306Y527742D01*
X1017256Y527657D01*
X1017209Y527570D01*
X1017165Y527481D01*
X1017125Y527391D01*
X1017088Y527299D01*
X1017056Y527206D01*
X1017027Y527112D01*
X1017001Y527016D01*
X1016980Y526920D01*
X1016962Y526822D01*
X1016949Y526725D01*
X1016939Y526626D01*
X1016933Y526528D01*
X1016931Y526429D01*
X1016931Y523946D01*
X1016933Y523847D01*
X1016939Y523749D01*
X1016949Y523650D01*
X1016962Y523553D01*
X1016980Y523455D01*
X1017001Y523359D01*
X1017027Y523263D01*
X1017056Y523169D01*
X1017088Y523076D01*
X1017125Y522984D01*
X1017165Y522894D01*
X1017209Y522805D01*
X1017256Y522718D01*
X1017306Y522633D01*
X1017360Y522551D01*
X1017417Y522470D01*
X1017477Y522392D01*
X1017541Y522316D01*
X1017607Y522243D01*
X1017676Y522172D01*
X1017748Y522104D01*
X1017823Y522040D01*
X1017900Y521978D01*
X1017979Y521919D01*
X1018061Y521864D01*
X1018145Y521811D01*
X1018230Y521763D01*
X1018318Y521717D01*
X1018408Y521675D01*
X1018499Y521637D01*
X1018591Y521603D01*
X1018685Y521572D01*
X1018780Y521545D01*
X1018876Y521521D01*
X1018973Y521502D01*
X1019070Y521486D01*
X1019168Y521474D01*
X1019267Y521466D01*
X1019366Y521462D01*
X1019464Y521462D01*
X1019563Y521466D01*
X1019662Y521474D01*
X1019760Y521486D01*
X1019857Y521502D01*
X1019954Y521521D01*
X1020050Y521545D01*
X1020145Y521572D01*
X1020239Y521603D01*
X1020331Y521637D01*
X1020422Y521675D01*
X1020512Y521717D01*
X1020600Y521763D01*
X1020685Y521811D01*
X1020769Y521864D01*
X1020851Y521919D01*
X1020930Y521978D01*
X1021007Y522040D01*
X1021082Y522104D01*
X1021154Y522172D01*
X1021223Y522243D01*
X1021289Y522316D01*
X1021353Y522392D01*
X1021413Y522470D01*
X1021470Y522551D01*
X1021524Y522633D01*
X1021574Y522718D01*
X1021621Y522805D01*
X1021665Y522894D01*
X1021705Y522984D01*
X1021742Y523076D01*
X1021774Y523169D01*
X1021803Y523263D01*
X1021829Y523359D01*
X1021850Y523455D01*
X1021868Y523553D01*
X1021881Y523650D01*
X1021891Y523749D01*
X1021897Y523847D01*
X1021899Y523946D01*
X1010113Y521462D02*
X1007630Y521462D01*
X1010113Y521462D02*
X1010197Y521464D01*
X1010280Y521470D01*
X1010363Y521479D01*
X1010446Y521492D01*
X1010528Y521509D01*
X1010609Y521529D01*
X1010689Y521553D01*
X1010768Y521581D01*
X1010845Y521612D01*
X1010921Y521646D01*
X1010996Y521684D01*
X1011069Y521726D01*
X1011139Y521770D01*
X1011208Y521818D01*
X1011275Y521868D01*
X1011339Y521922D01*
X1011400Y521978D01*
X1011460Y522038D01*
X1011516Y522099D01*
X1011570Y522163D01*
X1011620Y522230D01*
X1011668Y522299D01*
X1011712Y522369D01*
X1011754Y522442D01*
X1011792Y522517D01*
X1011826Y522593D01*
X1011857Y522670D01*
X1011885Y522749D01*
X1011909Y522829D01*
X1011929Y522910D01*
X1011946Y522992D01*
X1011959Y523075D01*
X1011969Y523158D01*
X1011974Y523241D01*
X1011976Y523325D01*
X1011976Y527050D01*
X1011974Y527134D01*
X1011969Y527217D01*
X1011959Y527300D01*
X1011946Y527383D01*
X1011929Y527465D01*
X1011909Y527546D01*
X1011885Y527626D01*
X1011857Y527705D01*
X1011826Y527782D01*
X1011792Y527858D01*
X1011754Y527933D01*
X1011712Y528006D01*
X1011668Y528076D01*
X1011620Y528145D01*
X1011570Y528212D01*
X1011516Y528276D01*
X1011460Y528337D01*
X1011400Y528397D01*
X1011339Y528453D01*
X1011275Y528507D01*
X1011208Y528557D01*
X1011139Y528605D01*
X1011069Y528649D01*
X1010996Y528691D01*
X1010921Y528729D01*
X1010845Y528763D01*
X1010768Y528794D01*
X1010689Y528822D01*
X1010609Y528846D01*
X1010528Y528866D01*
X1010446Y528883D01*
X1010363Y528896D01*
X1010280Y528906D01*
X1010197Y528911D01*
X1010113Y528913D01*
X1007630Y528913D01*
X1002679Y532638D02*
X1002679Y521462D01*
X1002679Y525187D02*
X997712Y528913D01*
X1000506Y526740D02*
X997712Y521462D01*
X991461Y521462D02*
X988356Y521462D01*
X991461Y521462D02*
X991545Y521464D01*
X991628Y521470D01*
X991711Y521479D01*
X991794Y521492D01*
X991876Y521509D01*
X991957Y521529D01*
X992037Y521553D01*
X992116Y521581D01*
X992193Y521612D01*
X992269Y521646D01*
X992344Y521684D01*
X992417Y521726D01*
X992487Y521770D01*
X992556Y521818D01*
X992623Y521868D01*
X992687Y521922D01*
X992748Y521978D01*
X992808Y522038D01*
X992864Y522099D01*
X992918Y522163D01*
X992968Y522230D01*
X993016Y522299D01*
X993060Y522369D01*
X993102Y522442D01*
X993140Y522517D01*
X993174Y522593D01*
X993205Y522670D01*
X993233Y522749D01*
X993257Y522829D01*
X993277Y522910D01*
X993294Y522992D01*
X993307Y523075D01*
X993317Y523158D01*
X993322Y523241D01*
X993324Y523325D01*
X993323Y523325D02*
X993323Y526429D01*
X993324Y526429D02*
X993322Y526528D01*
X993316Y526626D01*
X993306Y526725D01*
X993293Y526822D01*
X993275Y526920D01*
X993254Y527016D01*
X993228Y527112D01*
X993199Y527206D01*
X993167Y527299D01*
X993130Y527391D01*
X993090Y527481D01*
X993046Y527570D01*
X992999Y527657D01*
X992949Y527742D01*
X992895Y527824D01*
X992838Y527905D01*
X992778Y527983D01*
X992714Y528059D01*
X992648Y528132D01*
X992579Y528203D01*
X992507Y528271D01*
X992432Y528335D01*
X992355Y528397D01*
X992276Y528456D01*
X992194Y528511D01*
X992110Y528564D01*
X992025Y528612D01*
X991937Y528658D01*
X991847Y528700D01*
X991756Y528738D01*
X991664Y528772D01*
X991570Y528803D01*
X991475Y528830D01*
X991379Y528854D01*
X991282Y528873D01*
X991185Y528889D01*
X991087Y528901D01*
X990988Y528909D01*
X990889Y528913D01*
X990791Y528913D01*
X990692Y528909D01*
X990593Y528901D01*
X990495Y528889D01*
X990398Y528873D01*
X990301Y528854D01*
X990205Y528830D01*
X990110Y528803D01*
X990016Y528772D01*
X989924Y528738D01*
X989833Y528700D01*
X989743Y528658D01*
X989655Y528612D01*
X989570Y528564D01*
X989486Y528511D01*
X989404Y528456D01*
X989325Y528397D01*
X989248Y528335D01*
X989173Y528271D01*
X989101Y528203D01*
X989032Y528132D01*
X988966Y528059D01*
X988902Y527983D01*
X988842Y527905D01*
X988785Y527824D01*
X988731Y527742D01*
X988681Y527657D01*
X988634Y527570D01*
X988590Y527481D01*
X988550Y527391D01*
X988513Y527299D01*
X988481Y527206D01*
X988452Y527112D01*
X988426Y527016D01*
X988405Y526920D01*
X988387Y526822D01*
X988374Y526725D01*
X988364Y526626D01*
X988358Y526528D01*
X988356Y526429D01*
X988356Y525187D01*
X993323Y525187D01*
X984436Y528913D02*
X980711Y528913D01*
X983194Y532638D02*
X983194Y523325D01*
X983195Y523325D02*
X983193Y523241D01*
X983187Y523158D01*
X983178Y523075D01*
X983165Y522992D01*
X983148Y522910D01*
X983128Y522829D01*
X983104Y522749D01*
X983076Y522670D01*
X983045Y522593D01*
X983011Y522517D01*
X982973Y522442D01*
X982931Y522369D01*
X982887Y522299D01*
X982839Y522230D01*
X982789Y522163D01*
X982735Y522099D01*
X982679Y522038D01*
X982619Y521978D01*
X982558Y521922D01*
X982494Y521868D01*
X982427Y521818D01*
X982358Y521770D01*
X982288Y521726D01*
X982215Y521684D01*
X982140Y521646D01*
X982064Y521612D01*
X981987Y521581D01*
X981908Y521553D01*
X981828Y521529D01*
X981747Y521509D01*
X981665Y521492D01*
X981582Y521479D01*
X981499Y521469D01*
X981416Y521464D01*
X981332Y521462D01*
X980711Y521462D01*
X975445Y527671D02*
X972340Y527671D01*
X972340Y527670D02*
X972229Y527668D01*
X972119Y527662D01*
X972008Y527652D01*
X971898Y527638D01*
X971789Y527621D01*
X971680Y527599D01*
X971572Y527574D01*
X971466Y527544D01*
X971360Y527511D01*
X971255Y527474D01*
X971152Y527434D01*
X971051Y527389D01*
X970951Y527342D01*
X970852Y527290D01*
X970756Y527235D01*
X970662Y527177D01*
X970570Y527116D01*
X970480Y527051D01*
X970392Y526983D01*
X970307Y526912D01*
X970225Y526838D01*
X970145Y526761D01*
X970068Y526681D01*
X969994Y526599D01*
X969923Y526514D01*
X969855Y526426D01*
X969790Y526336D01*
X969729Y526244D01*
X969671Y526150D01*
X969616Y526054D01*
X969564Y525955D01*
X969517Y525855D01*
X969472Y525754D01*
X969432Y525651D01*
X969395Y525546D01*
X969362Y525440D01*
X969332Y525334D01*
X969307Y525226D01*
X969285Y525117D01*
X969268Y525008D01*
X969254Y524898D01*
X969244Y524787D01*
X969238Y524677D01*
X969236Y524566D01*
X969238Y524455D01*
X969244Y524345D01*
X969254Y524234D01*
X969268Y524124D01*
X969285Y524015D01*
X969307Y523906D01*
X969332Y523798D01*
X969362Y523692D01*
X969395Y523586D01*
X969432Y523481D01*
X969472Y523378D01*
X969517Y523277D01*
X969564Y523177D01*
X969616Y523078D01*
X969671Y522982D01*
X969729Y522888D01*
X969790Y522796D01*
X969855Y522706D01*
X969923Y522618D01*
X969994Y522533D01*
X970068Y522451D01*
X970145Y522371D01*
X970225Y522294D01*
X970307Y522220D01*
X970392Y522149D01*
X970480Y522081D01*
X970570Y522016D01*
X970662Y521955D01*
X970756Y521897D01*
X970852Y521842D01*
X970951Y521790D01*
X971051Y521743D01*
X971152Y521698D01*
X971255Y521658D01*
X971360Y521621D01*
X971466Y521588D01*
X971572Y521558D01*
X971680Y521533D01*
X971789Y521511D01*
X971898Y521494D01*
X972008Y521480D01*
X972119Y521470D01*
X972229Y521464D01*
X972340Y521462D01*
X975445Y521462D01*
X975445Y532638D01*
X972340Y532638D01*
X972241Y532636D01*
X972143Y532630D01*
X972044Y532620D01*
X971947Y532607D01*
X971849Y532589D01*
X971753Y532568D01*
X971657Y532542D01*
X971563Y532513D01*
X971470Y532481D01*
X971378Y532444D01*
X971288Y532404D01*
X971199Y532360D01*
X971112Y532313D01*
X971027Y532263D01*
X970945Y532209D01*
X970864Y532152D01*
X970786Y532092D01*
X970710Y532028D01*
X970637Y531962D01*
X970566Y531893D01*
X970498Y531821D01*
X970434Y531746D01*
X970372Y531669D01*
X970313Y531590D01*
X970258Y531508D01*
X970205Y531424D01*
X970157Y531339D01*
X970111Y531251D01*
X970069Y531161D01*
X970031Y531070D01*
X969997Y530978D01*
X969966Y530884D01*
X969939Y530789D01*
X969915Y530693D01*
X969896Y530596D01*
X969880Y530499D01*
X969868Y530401D01*
X969860Y530302D01*
X969856Y530203D01*
X969856Y530105D01*
X969860Y530006D01*
X969868Y529907D01*
X969880Y529809D01*
X969896Y529712D01*
X969915Y529615D01*
X969939Y529519D01*
X969966Y529424D01*
X969997Y529330D01*
X970031Y529238D01*
X970069Y529147D01*
X970111Y529057D01*
X970157Y528969D01*
X970205Y528884D01*
X970258Y528800D01*
X970313Y528718D01*
X970372Y528639D01*
X970434Y528562D01*
X970498Y528487D01*
X970566Y528415D01*
X970637Y528346D01*
X970710Y528280D01*
X970786Y528216D01*
X970864Y528156D01*
X970945Y528099D01*
X971027Y528045D01*
X971112Y527995D01*
X971199Y527948D01*
X971288Y527904D01*
X971378Y527864D01*
X971470Y527827D01*
X971563Y527795D01*
X971657Y527766D01*
X971753Y527740D01*
X971849Y527719D01*
X971947Y527701D01*
X972044Y527688D01*
X972143Y527678D01*
X972241Y527672D01*
X972340Y527670D01*
X962886Y521462D02*
X959781Y521462D01*
X962886Y521462D02*
X962970Y521464D01*
X963053Y521470D01*
X963136Y521479D01*
X963219Y521492D01*
X963301Y521509D01*
X963382Y521529D01*
X963462Y521553D01*
X963541Y521581D01*
X963618Y521612D01*
X963694Y521646D01*
X963769Y521684D01*
X963842Y521726D01*
X963912Y521770D01*
X963981Y521818D01*
X964048Y521868D01*
X964112Y521922D01*
X964173Y521978D01*
X964233Y522038D01*
X964289Y522099D01*
X964343Y522163D01*
X964393Y522230D01*
X964441Y522299D01*
X964485Y522369D01*
X964527Y522442D01*
X964565Y522517D01*
X964599Y522593D01*
X964630Y522670D01*
X964658Y522749D01*
X964682Y522829D01*
X964702Y522910D01*
X964719Y522992D01*
X964732Y523075D01*
X964742Y523158D01*
X964747Y523241D01*
X964749Y523325D01*
X964748Y523325D02*
X964748Y526429D01*
X964749Y526429D02*
X964747Y526528D01*
X964741Y526626D01*
X964731Y526725D01*
X964718Y526822D01*
X964700Y526920D01*
X964679Y527016D01*
X964653Y527112D01*
X964624Y527206D01*
X964592Y527299D01*
X964555Y527391D01*
X964515Y527481D01*
X964471Y527570D01*
X964424Y527657D01*
X964374Y527742D01*
X964320Y527824D01*
X964263Y527905D01*
X964203Y527983D01*
X964139Y528059D01*
X964073Y528132D01*
X964004Y528203D01*
X963932Y528271D01*
X963857Y528335D01*
X963780Y528397D01*
X963701Y528456D01*
X963619Y528511D01*
X963535Y528564D01*
X963450Y528612D01*
X963362Y528658D01*
X963272Y528700D01*
X963181Y528738D01*
X963089Y528772D01*
X962995Y528803D01*
X962900Y528830D01*
X962804Y528854D01*
X962707Y528873D01*
X962610Y528889D01*
X962512Y528901D01*
X962413Y528909D01*
X962314Y528913D01*
X962216Y528913D01*
X962117Y528909D01*
X962018Y528901D01*
X961920Y528889D01*
X961823Y528873D01*
X961726Y528854D01*
X961630Y528830D01*
X961535Y528803D01*
X961441Y528772D01*
X961349Y528738D01*
X961258Y528700D01*
X961168Y528658D01*
X961080Y528612D01*
X960995Y528564D01*
X960911Y528511D01*
X960829Y528456D01*
X960750Y528397D01*
X960673Y528335D01*
X960598Y528271D01*
X960526Y528203D01*
X960457Y528132D01*
X960391Y528059D01*
X960327Y527983D01*
X960267Y527905D01*
X960210Y527824D01*
X960156Y527742D01*
X960106Y527657D01*
X960059Y527570D01*
X960015Y527481D01*
X959975Y527391D01*
X959938Y527299D01*
X959906Y527206D01*
X959877Y527112D01*
X959851Y527016D01*
X959830Y526920D01*
X959812Y526822D01*
X959799Y526725D01*
X959789Y526626D01*
X959783Y526528D01*
X959781Y526429D01*
X959781Y525187D01*
X964748Y525187D01*
X952743Y525808D02*
X949949Y525808D01*
X952743Y525808D02*
X952835Y525806D01*
X952927Y525800D01*
X953019Y525790D01*
X953110Y525777D01*
X953201Y525759D01*
X953291Y525738D01*
X953379Y525713D01*
X953467Y525684D01*
X953553Y525651D01*
X953638Y525615D01*
X953721Y525575D01*
X953803Y525532D01*
X953882Y525485D01*
X953960Y525435D01*
X954035Y525382D01*
X954108Y525326D01*
X954179Y525266D01*
X954247Y525204D01*
X954312Y525139D01*
X954374Y525071D01*
X954434Y525000D01*
X954490Y524927D01*
X954543Y524852D01*
X954593Y524774D01*
X954640Y524695D01*
X954683Y524613D01*
X954723Y524530D01*
X954759Y524445D01*
X954792Y524359D01*
X954821Y524271D01*
X954846Y524183D01*
X954867Y524093D01*
X954885Y524002D01*
X954898Y523911D01*
X954908Y523819D01*
X954914Y523727D01*
X954916Y523635D01*
X954914Y523543D01*
X954908Y523451D01*
X954898Y523359D01*
X954885Y523268D01*
X954867Y523177D01*
X954846Y523087D01*
X954821Y522999D01*
X954792Y522911D01*
X954759Y522825D01*
X954723Y522740D01*
X954683Y522657D01*
X954640Y522575D01*
X954593Y522496D01*
X954543Y522418D01*
X954490Y522343D01*
X954434Y522270D01*
X954374Y522199D01*
X954312Y522131D01*
X954247Y522066D01*
X954179Y522004D01*
X954108Y521944D01*
X954035Y521888D01*
X953960Y521835D01*
X953882Y521785D01*
X953803Y521738D01*
X953721Y521695D01*
X953638Y521655D01*
X953553Y521619D01*
X953467Y521586D01*
X953379Y521557D01*
X953291Y521532D01*
X953201Y521511D01*
X953110Y521493D01*
X953019Y521480D01*
X952927Y521470D01*
X952835Y521464D01*
X952743Y521462D01*
X949949Y521462D01*
X949949Y527050D01*
X949951Y527134D01*
X949957Y527217D01*
X949966Y527300D01*
X949979Y527383D01*
X949996Y527465D01*
X950016Y527546D01*
X950040Y527626D01*
X950068Y527705D01*
X950099Y527782D01*
X950133Y527858D01*
X950171Y527933D01*
X950213Y528006D01*
X950257Y528076D01*
X950305Y528145D01*
X950355Y528212D01*
X950409Y528276D01*
X950465Y528337D01*
X950525Y528397D01*
X950586Y528453D01*
X950650Y528507D01*
X950717Y528557D01*
X950786Y528605D01*
X950856Y528649D01*
X950929Y528691D01*
X951004Y528729D01*
X951080Y528763D01*
X951157Y528794D01*
X951236Y528822D01*
X951316Y528846D01*
X951397Y528866D01*
X951479Y528883D01*
X951562Y528896D01*
X951645Y528906D01*
X951728Y528911D01*
X951812Y528913D01*
X954295Y528913D01*
X942767Y521462D02*
X939662Y521462D01*
X942767Y521462D02*
X942851Y521464D01*
X942934Y521470D01*
X943017Y521479D01*
X943100Y521492D01*
X943182Y521509D01*
X943263Y521529D01*
X943343Y521553D01*
X943422Y521581D01*
X943499Y521612D01*
X943575Y521646D01*
X943650Y521684D01*
X943723Y521726D01*
X943793Y521770D01*
X943862Y521818D01*
X943929Y521868D01*
X943993Y521922D01*
X944054Y521978D01*
X944114Y522038D01*
X944170Y522099D01*
X944224Y522163D01*
X944274Y522230D01*
X944322Y522299D01*
X944366Y522369D01*
X944408Y522442D01*
X944446Y522517D01*
X944480Y522593D01*
X944511Y522670D01*
X944539Y522749D01*
X944563Y522829D01*
X944583Y522910D01*
X944600Y522992D01*
X944613Y523075D01*
X944623Y523158D01*
X944628Y523241D01*
X944630Y523325D01*
X944629Y523325D02*
X944629Y527050D01*
X944630Y527050D02*
X944628Y527134D01*
X944623Y527217D01*
X944613Y527300D01*
X944600Y527383D01*
X944583Y527465D01*
X944563Y527546D01*
X944539Y527626D01*
X944511Y527705D01*
X944480Y527782D01*
X944446Y527858D01*
X944408Y527933D01*
X944366Y528006D01*
X944322Y528076D01*
X944274Y528145D01*
X944224Y528212D01*
X944170Y528276D01*
X944114Y528337D01*
X944054Y528397D01*
X943993Y528453D01*
X943929Y528507D01*
X943862Y528557D01*
X943793Y528605D01*
X943723Y528649D01*
X943650Y528691D01*
X943575Y528729D01*
X943499Y528763D01*
X943422Y528794D01*
X943343Y528822D01*
X943263Y528846D01*
X943182Y528866D01*
X943100Y528883D01*
X943017Y528896D01*
X942934Y528906D01*
X942851Y528911D01*
X942767Y528913D01*
X939662Y528913D01*
X939662Y519599D01*
X939664Y519515D01*
X939669Y519432D01*
X939679Y519349D01*
X939692Y519266D01*
X939709Y519184D01*
X939729Y519103D01*
X939753Y519023D01*
X939781Y518944D01*
X939812Y518867D01*
X939846Y518791D01*
X939884Y518716D01*
X939926Y518643D01*
X939970Y518573D01*
X940018Y518504D01*
X940068Y518437D01*
X940122Y518373D01*
X940178Y518312D01*
X940238Y518252D01*
X940299Y518196D01*
X940363Y518142D01*
X940430Y518092D01*
X940499Y518044D01*
X940569Y518000D01*
X940642Y517958D01*
X940717Y517920D01*
X940793Y517886D01*
X940870Y517855D01*
X940949Y517827D01*
X941029Y517803D01*
X941110Y517783D01*
X941192Y517766D01*
X941275Y517753D01*
X941358Y517743D01*
X941441Y517738D01*
X941525Y517736D01*
X941525Y517737D02*
X944008Y517737D01*
X934177Y523325D02*
X934177Y532638D01*
X934177Y523325D02*
X934175Y523239D01*
X934169Y523153D01*
X934159Y523068D01*
X934145Y522983D01*
X934128Y522898D01*
X934106Y522815D01*
X934080Y522733D01*
X934051Y522652D01*
X934018Y522573D01*
X933982Y522495D01*
X933942Y522418D01*
X933898Y522344D01*
X933851Y522272D01*
X933801Y522202D01*
X933747Y522135D01*
X933691Y522070D01*
X933631Y522008D01*
X933569Y521948D01*
X933504Y521892D01*
X933437Y521838D01*
X933367Y521788D01*
X933295Y521741D01*
X933221Y521697D01*
X933144Y521657D01*
X933067Y521621D01*
X932987Y521588D01*
X932906Y521559D01*
X932824Y521533D01*
X932741Y521511D01*
X932656Y521494D01*
X932571Y521480D01*
X932486Y521470D01*
X932400Y521464D01*
X932314Y521462D01*
X926310Y521462D02*
X923206Y521462D01*
X926310Y521462D02*
X926394Y521464D01*
X926477Y521470D01*
X926560Y521479D01*
X926643Y521492D01*
X926725Y521509D01*
X926806Y521529D01*
X926886Y521553D01*
X926965Y521581D01*
X927042Y521612D01*
X927118Y521646D01*
X927193Y521684D01*
X927266Y521726D01*
X927336Y521770D01*
X927405Y521818D01*
X927472Y521868D01*
X927536Y521922D01*
X927597Y521978D01*
X927657Y522038D01*
X927713Y522099D01*
X927767Y522163D01*
X927817Y522230D01*
X927865Y522299D01*
X927909Y522369D01*
X927951Y522442D01*
X927989Y522517D01*
X928023Y522593D01*
X928054Y522670D01*
X928082Y522749D01*
X928106Y522829D01*
X928126Y522910D01*
X928143Y522992D01*
X928156Y523075D01*
X928166Y523158D01*
X928171Y523241D01*
X928173Y523325D01*
X928173Y526429D01*
X928171Y526528D01*
X928165Y526626D01*
X928155Y526725D01*
X928142Y526822D01*
X928124Y526920D01*
X928103Y527016D01*
X928077Y527112D01*
X928048Y527206D01*
X928016Y527299D01*
X927979Y527391D01*
X927939Y527481D01*
X927895Y527570D01*
X927848Y527657D01*
X927798Y527742D01*
X927744Y527824D01*
X927687Y527905D01*
X927627Y527983D01*
X927563Y528059D01*
X927497Y528132D01*
X927428Y528203D01*
X927356Y528271D01*
X927281Y528335D01*
X927204Y528397D01*
X927125Y528456D01*
X927043Y528511D01*
X926959Y528564D01*
X926874Y528612D01*
X926786Y528658D01*
X926696Y528700D01*
X926605Y528738D01*
X926513Y528772D01*
X926419Y528803D01*
X926324Y528830D01*
X926228Y528854D01*
X926131Y528873D01*
X926034Y528889D01*
X925936Y528901D01*
X925837Y528909D01*
X925738Y528913D01*
X925640Y528913D01*
X925541Y528909D01*
X925442Y528901D01*
X925344Y528889D01*
X925247Y528873D01*
X925150Y528854D01*
X925054Y528830D01*
X924959Y528803D01*
X924865Y528772D01*
X924773Y528738D01*
X924682Y528700D01*
X924592Y528658D01*
X924504Y528612D01*
X924419Y528564D01*
X924335Y528511D01*
X924253Y528456D01*
X924174Y528397D01*
X924097Y528335D01*
X924022Y528271D01*
X923950Y528203D01*
X923881Y528132D01*
X923815Y528059D01*
X923751Y527983D01*
X923691Y527905D01*
X923634Y527824D01*
X923580Y527742D01*
X923530Y527657D01*
X923483Y527570D01*
X923439Y527481D01*
X923399Y527391D01*
X923362Y527299D01*
X923330Y527206D01*
X923301Y527112D01*
X923275Y527016D01*
X923254Y526920D01*
X923236Y526822D01*
X923223Y526725D01*
X923213Y526626D01*
X923207Y526528D01*
X923205Y526429D01*
X923206Y526429D02*
X923206Y525187D01*
X928173Y525187D01*
X1227723Y635762D02*
X1227723Y646938D01*
X1224619Y646938D01*
X1224508Y646936D01*
X1224398Y646930D01*
X1224287Y646920D01*
X1224177Y646906D01*
X1224068Y646889D01*
X1223959Y646867D01*
X1223851Y646842D01*
X1223745Y646812D01*
X1223639Y646779D01*
X1223534Y646742D01*
X1223431Y646702D01*
X1223330Y646657D01*
X1223230Y646610D01*
X1223131Y646558D01*
X1223035Y646503D01*
X1222941Y646445D01*
X1222849Y646384D01*
X1222759Y646319D01*
X1222671Y646251D01*
X1222586Y646180D01*
X1222504Y646106D01*
X1222424Y646029D01*
X1222347Y645949D01*
X1222273Y645867D01*
X1222202Y645782D01*
X1222134Y645694D01*
X1222069Y645604D01*
X1222008Y645512D01*
X1221950Y645418D01*
X1221895Y645322D01*
X1221843Y645223D01*
X1221796Y645123D01*
X1221751Y645022D01*
X1221711Y644919D01*
X1221674Y644814D01*
X1221641Y644708D01*
X1221611Y644602D01*
X1221586Y644494D01*
X1221564Y644385D01*
X1221547Y644276D01*
X1221533Y644166D01*
X1221523Y644055D01*
X1221517Y643945D01*
X1221515Y643834D01*
X1221517Y643723D01*
X1221523Y643613D01*
X1221533Y643502D01*
X1221547Y643392D01*
X1221564Y643283D01*
X1221586Y643174D01*
X1221611Y643066D01*
X1221641Y642960D01*
X1221674Y642854D01*
X1221711Y642749D01*
X1221751Y642646D01*
X1221796Y642545D01*
X1221843Y642445D01*
X1221895Y642346D01*
X1221950Y642250D01*
X1222008Y642156D01*
X1222069Y642064D01*
X1222134Y641974D01*
X1222202Y641886D01*
X1222273Y641801D01*
X1222347Y641719D01*
X1222424Y641639D01*
X1222504Y641562D01*
X1222586Y641488D01*
X1222671Y641417D01*
X1222759Y641349D01*
X1222849Y641284D01*
X1222941Y641223D01*
X1223035Y641165D01*
X1223131Y641110D01*
X1223230Y641058D01*
X1223330Y641011D01*
X1223431Y640966D01*
X1223534Y640926D01*
X1223639Y640889D01*
X1223745Y640856D01*
X1223851Y640826D01*
X1223959Y640801D01*
X1224068Y640779D01*
X1224177Y640762D01*
X1224287Y640748D01*
X1224398Y640738D01*
X1224508Y640732D01*
X1224619Y640730D01*
X1224619Y640729D02*
X1227723Y640729D01*
X1213471Y646938D02*
X1213367Y646936D01*
X1213262Y646930D01*
X1213158Y646920D01*
X1213055Y646907D01*
X1212952Y646889D01*
X1212849Y646868D01*
X1212748Y646843D01*
X1212647Y646814D01*
X1212548Y646781D01*
X1212450Y646745D01*
X1212354Y646705D01*
X1212259Y646661D01*
X1212165Y646614D01*
X1212074Y646564D01*
X1211985Y646510D01*
X1211897Y646453D01*
X1211812Y646392D01*
X1211729Y646328D01*
X1211649Y646262D01*
X1211571Y646192D01*
X1211495Y646120D01*
X1211423Y646044D01*
X1211353Y645966D01*
X1211287Y645886D01*
X1211223Y645803D01*
X1211162Y645718D01*
X1211105Y645630D01*
X1211051Y645541D01*
X1211001Y645450D01*
X1210954Y645356D01*
X1210910Y645261D01*
X1210870Y645165D01*
X1210834Y645067D01*
X1210801Y644968D01*
X1210772Y644867D01*
X1210747Y644766D01*
X1210726Y644663D01*
X1210708Y644560D01*
X1210695Y644457D01*
X1210685Y644353D01*
X1210679Y644248D01*
X1210677Y644144D01*
X1213471Y646939D02*
X1213590Y646937D01*
X1213708Y646931D01*
X1213827Y646921D01*
X1213945Y646908D01*
X1214062Y646890D01*
X1214179Y646868D01*
X1214295Y646843D01*
X1214410Y646814D01*
X1214525Y646781D01*
X1214638Y646744D01*
X1214749Y646704D01*
X1214860Y646660D01*
X1214968Y646612D01*
X1215075Y646561D01*
X1215181Y646506D01*
X1215284Y646447D01*
X1215386Y646386D01*
X1215485Y646321D01*
X1215583Y646252D01*
X1215677Y646181D01*
X1215770Y646106D01*
X1215860Y646029D01*
X1215947Y645948D01*
X1216032Y645865D01*
X1216114Y645779D01*
X1216193Y645690D01*
X1216269Y645599D01*
X1216342Y645505D01*
X1216411Y645409D01*
X1216478Y645310D01*
X1216541Y645210D01*
X1216601Y645107D01*
X1216658Y645003D01*
X1216710Y644896D01*
X1216760Y644788D01*
X1216806Y644679D01*
X1216848Y644567D01*
X1216886Y644455D01*
X1211608Y641971D02*
X1211533Y642045D01*
X1211461Y642122D01*
X1211391Y642201D01*
X1211324Y642283D01*
X1211260Y642367D01*
X1211199Y642453D01*
X1211141Y642541D01*
X1211086Y642632D01*
X1211034Y642724D01*
X1210986Y642818D01*
X1210941Y642913D01*
X1210899Y643011D01*
X1210861Y643109D01*
X1210826Y643209D01*
X1210795Y643310D01*
X1210768Y643412D01*
X1210744Y643515D01*
X1210723Y643618D01*
X1210707Y643723D01*
X1210694Y643828D01*
X1210684Y643933D01*
X1210679Y644038D01*
X1210677Y644144D01*
X1211608Y641971D02*
X1216886Y635762D01*
X1210677Y635762D01*
X1227723Y405638D02*
X1227723Y394462D01*
X1227723Y405638D02*
X1224619Y405638D01*
X1224508Y405636D01*
X1224398Y405630D01*
X1224287Y405620D01*
X1224177Y405606D01*
X1224068Y405589D01*
X1223959Y405567D01*
X1223851Y405542D01*
X1223745Y405512D01*
X1223639Y405479D01*
X1223534Y405442D01*
X1223431Y405402D01*
X1223330Y405357D01*
X1223230Y405310D01*
X1223131Y405258D01*
X1223035Y405203D01*
X1222941Y405145D01*
X1222849Y405084D01*
X1222759Y405019D01*
X1222671Y404951D01*
X1222586Y404880D01*
X1222504Y404806D01*
X1222424Y404729D01*
X1222347Y404649D01*
X1222273Y404567D01*
X1222202Y404482D01*
X1222134Y404394D01*
X1222069Y404304D01*
X1222008Y404212D01*
X1221950Y404118D01*
X1221895Y404022D01*
X1221843Y403923D01*
X1221796Y403823D01*
X1221751Y403722D01*
X1221711Y403619D01*
X1221674Y403514D01*
X1221641Y403408D01*
X1221611Y403302D01*
X1221586Y403194D01*
X1221564Y403085D01*
X1221547Y402976D01*
X1221533Y402866D01*
X1221523Y402755D01*
X1221517Y402645D01*
X1221515Y402534D01*
X1221517Y402423D01*
X1221523Y402313D01*
X1221533Y402202D01*
X1221547Y402092D01*
X1221564Y401983D01*
X1221586Y401874D01*
X1221611Y401766D01*
X1221641Y401660D01*
X1221674Y401554D01*
X1221711Y401449D01*
X1221751Y401346D01*
X1221796Y401245D01*
X1221843Y401145D01*
X1221895Y401046D01*
X1221950Y400950D01*
X1222008Y400856D01*
X1222069Y400764D01*
X1222134Y400674D01*
X1222202Y400586D01*
X1222273Y400501D01*
X1222347Y400419D01*
X1222424Y400339D01*
X1222504Y400262D01*
X1222586Y400188D01*
X1222671Y400117D01*
X1222759Y400049D01*
X1222849Y399984D01*
X1222941Y399923D01*
X1223035Y399865D01*
X1223131Y399810D01*
X1223230Y399758D01*
X1223330Y399711D01*
X1223431Y399666D01*
X1223534Y399626D01*
X1223639Y399589D01*
X1223745Y399556D01*
X1223851Y399526D01*
X1223959Y399501D01*
X1224068Y399479D01*
X1224177Y399462D01*
X1224287Y399448D01*
X1224398Y399438D01*
X1224508Y399432D01*
X1224619Y399430D01*
X1224619Y399429D02*
X1227723Y399429D01*
X1216886Y403154D02*
X1213781Y405638D01*
X1213781Y394462D01*
X1210677Y394462D02*
X1216886Y394462D01*
X1235766Y506060D02*
X1243838Y506060D01*
X1235766Y506060D02*
X1235655Y506062D01*
X1235545Y506068D01*
X1235434Y506078D01*
X1235324Y506092D01*
X1235215Y506109D01*
X1235106Y506131D01*
X1234998Y506156D01*
X1234892Y506186D01*
X1234786Y506219D01*
X1234681Y506256D01*
X1234578Y506296D01*
X1234477Y506341D01*
X1234377Y506388D01*
X1234278Y506440D01*
X1234182Y506495D01*
X1234088Y506553D01*
X1233996Y506614D01*
X1233906Y506679D01*
X1233818Y506747D01*
X1233733Y506818D01*
X1233651Y506892D01*
X1233571Y506969D01*
X1233494Y507049D01*
X1233420Y507131D01*
X1233349Y507216D01*
X1233281Y507304D01*
X1233216Y507394D01*
X1233155Y507486D01*
X1233097Y507580D01*
X1233042Y507676D01*
X1232990Y507775D01*
X1232943Y507875D01*
X1232898Y507976D01*
X1232858Y508079D01*
X1232821Y508184D01*
X1232788Y508290D01*
X1232758Y508396D01*
X1232733Y508504D01*
X1232711Y508613D01*
X1232694Y508722D01*
X1232680Y508832D01*
X1232670Y508943D01*
X1232664Y509053D01*
X1232662Y509164D01*
X1232664Y509275D01*
X1232670Y509385D01*
X1232680Y509496D01*
X1232694Y509606D01*
X1232711Y509715D01*
X1232733Y509824D01*
X1232758Y509932D01*
X1232788Y510038D01*
X1232821Y510144D01*
X1232858Y510249D01*
X1232898Y510352D01*
X1232943Y510453D01*
X1232990Y510553D01*
X1233042Y510652D01*
X1233097Y510748D01*
X1233155Y510842D01*
X1233216Y510934D01*
X1233281Y511024D01*
X1233349Y511112D01*
X1233420Y511197D01*
X1233494Y511279D01*
X1233571Y511359D01*
X1233651Y511436D01*
X1233733Y511510D01*
X1233818Y511581D01*
X1233906Y511649D01*
X1233996Y511714D01*
X1234088Y511775D01*
X1234182Y511833D01*
X1234278Y511888D01*
X1234377Y511940D01*
X1234477Y511987D01*
X1234578Y512032D01*
X1234681Y512072D01*
X1234786Y512109D01*
X1234892Y512142D01*
X1234998Y512172D01*
X1235106Y512197D01*
X1235215Y512219D01*
X1235324Y512236D01*
X1235434Y512250D01*
X1235545Y512260D01*
X1235655Y512266D01*
X1235766Y512268D01*
X1235766Y512269D02*
X1243838Y512269D01*
X1232662Y521215D02*
X1232664Y521313D01*
X1232670Y521410D01*
X1232679Y521507D01*
X1232693Y521604D01*
X1232710Y521700D01*
X1232731Y521795D01*
X1232755Y521889D01*
X1232784Y521983D01*
X1232816Y522075D01*
X1232851Y522166D01*
X1232890Y522255D01*
X1232933Y522343D01*
X1232979Y522429D01*
X1233028Y522513D01*
X1233081Y522595D01*
X1233136Y522675D01*
X1233195Y522753D01*
X1233257Y522828D01*
X1233322Y522901D01*
X1233390Y522971D01*
X1233460Y523039D01*
X1233533Y523104D01*
X1233608Y523166D01*
X1233686Y523225D01*
X1233766Y523280D01*
X1233848Y523333D01*
X1233932Y523382D01*
X1234018Y523428D01*
X1234106Y523471D01*
X1234195Y523510D01*
X1234286Y523545D01*
X1234378Y523577D01*
X1234472Y523606D01*
X1234566Y523630D01*
X1234661Y523651D01*
X1234757Y523668D01*
X1234854Y523682D01*
X1234951Y523691D01*
X1235048Y523697D01*
X1235146Y523699D01*
X1232662Y521215D02*
X1232664Y521072D01*
X1232670Y520929D01*
X1232679Y520787D01*
X1232693Y520645D01*
X1232711Y520503D01*
X1232732Y520362D01*
X1232757Y520221D01*
X1232786Y520081D01*
X1232819Y519942D01*
X1232855Y519804D01*
X1232896Y519667D01*
X1232940Y519531D01*
X1232987Y519397D01*
X1233039Y519263D01*
X1233093Y519132D01*
X1233152Y519001D01*
X1233214Y518873D01*
X1233279Y518746D01*
X1233348Y518621D01*
X1233421Y518497D01*
X1233496Y518376D01*
X1233575Y518257D01*
X1233657Y518140D01*
X1233743Y518026D01*
X1233831Y517914D01*
X1233922Y517804D01*
X1234017Y517697D01*
X1234114Y517592D01*
X1234214Y517490D01*
X1241354Y517800D02*
X1241452Y517802D01*
X1241549Y517808D01*
X1241646Y517817D01*
X1241743Y517831D01*
X1241839Y517848D01*
X1241934Y517869D01*
X1242028Y517893D01*
X1242122Y517922D01*
X1242214Y517954D01*
X1242305Y517989D01*
X1242394Y518028D01*
X1242482Y518071D01*
X1242568Y518117D01*
X1242652Y518166D01*
X1242734Y518219D01*
X1242814Y518274D01*
X1242892Y518333D01*
X1242967Y518395D01*
X1243040Y518460D01*
X1243110Y518528D01*
X1243178Y518598D01*
X1243243Y518671D01*
X1243305Y518746D01*
X1243364Y518824D01*
X1243419Y518904D01*
X1243472Y518986D01*
X1243521Y519070D01*
X1243567Y519156D01*
X1243610Y519244D01*
X1243649Y519333D01*
X1243684Y519424D01*
X1243716Y519516D01*
X1243745Y519610D01*
X1243769Y519704D01*
X1243790Y519799D01*
X1243807Y519895D01*
X1243821Y519992D01*
X1243830Y520089D01*
X1243836Y520186D01*
X1243838Y520284D01*
X1243836Y520414D01*
X1243831Y520544D01*
X1243822Y520674D01*
X1243809Y520804D01*
X1243793Y520933D01*
X1243773Y521062D01*
X1243749Y521190D01*
X1243722Y521318D01*
X1243691Y521444D01*
X1243657Y521570D01*
X1243619Y521695D01*
X1243578Y521818D01*
X1243533Y521941D01*
X1243485Y522062D01*
X1243434Y522182D01*
X1243379Y522300D01*
X1243321Y522416D01*
X1243260Y522531D01*
X1243195Y522645D01*
X1243128Y522756D01*
X1243057Y522865D01*
X1242983Y522973D01*
X1242907Y523078D01*
X1239181Y519043D02*
X1239232Y518960D01*
X1239286Y518879D01*
X1239343Y518801D01*
X1239403Y518725D01*
X1239466Y518651D01*
X1239532Y518580D01*
X1239600Y518511D01*
X1239671Y518445D01*
X1239744Y518381D01*
X1239820Y518321D01*
X1239898Y518264D01*
X1239979Y518209D01*
X1240061Y518158D01*
X1240145Y518110D01*
X1240231Y518065D01*
X1240319Y518023D01*
X1240408Y517985D01*
X1240498Y517951D01*
X1240590Y517919D01*
X1240683Y517892D01*
X1240777Y517868D01*
X1240872Y517847D01*
X1240968Y517831D01*
X1241064Y517818D01*
X1241160Y517808D01*
X1241257Y517803D01*
X1241354Y517801D01*
X1237319Y522456D02*
X1237268Y522539D01*
X1237214Y522620D01*
X1237157Y522698D01*
X1237097Y522774D01*
X1237034Y522848D01*
X1236968Y522919D01*
X1236900Y522988D01*
X1236829Y523054D01*
X1236756Y523118D01*
X1236680Y523178D01*
X1236602Y523235D01*
X1236521Y523290D01*
X1236439Y523341D01*
X1236355Y523389D01*
X1236269Y523434D01*
X1236181Y523476D01*
X1236092Y523514D01*
X1236002Y523548D01*
X1235910Y523580D01*
X1235817Y523607D01*
X1235723Y523631D01*
X1235628Y523652D01*
X1235532Y523668D01*
X1235436Y523681D01*
X1235340Y523691D01*
X1235243Y523696D01*
X1235146Y523698D01*
X1237319Y522457D02*
X1239181Y519042D01*
X1238871Y529131D02*
X1238871Y532236D01*
X1238870Y532236D02*
X1238868Y532347D01*
X1238862Y532457D01*
X1238852Y532568D01*
X1238838Y532678D01*
X1238821Y532787D01*
X1238799Y532896D01*
X1238774Y533004D01*
X1238744Y533110D01*
X1238711Y533216D01*
X1238674Y533321D01*
X1238634Y533424D01*
X1238589Y533525D01*
X1238542Y533625D01*
X1238490Y533724D01*
X1238435Y533820D01*
X1238377Y533914D01*
X1238316Y534006D01*
X1238251Y534096D01*
X1238183Y534184D01*
X1238112Y534269D01*
X1238038Y534351D01*
X1237961Y534431D01*
X1237881Y534508D01*
X1237799Y534582D01*
X1237714Y534653D01*
X1237626Y534721D01*
X1237536Y534786D01*
X1237444Y534847D01*
X1237350Y534905D01*
X1237254Y534960D01*
X1237155Y535012D01*
X1237055Y535059D01*
X1236954Y535104D01*
X1236851Y535144D01*
X1236746Y535181D01*
X1236640Y535214D01*
X1236534Y535244D01*
X1236426Y535269D01*
X1236317Y535291D01*
X1236208Y535308D01*
X1236098Y535322D01*
X1235987Y535332D01*
X1235877Y535338D01*
X1235766Y535340D01*
X1235655Y535338D01*
X1235545Y535332D01*
X1235434Y535322D01*
X1235324Y535308D01*
X1235215Y535291D01*
X1235106Y535269D01*
X1234998Y535244D01*
X1234892Y535214D01*
X1234786Y535181D01*
X1234681Y535144D01*
X1234578Y535104D01*
X1234477Y535059D01*
X1234377Y535012D01*
X1234278Y534960D01*
X1234182Y534905D01*
X1234088Y534847D01*
X1233996Y534786D01*
X1233906Y534721D01*
X1233818Y534653D01*
X1233733Y534582D01*
X1233651Y534508D01*
X1233571Y534431D01*
X1233494Y534351D01*
X1233420Y534269D01*
X1233349Y534184D01*
X1233281Y534096D01*
X1233216Y534006D01*
X1233155Y533914D01*
X1233097Y533820D01*
X1233042Y533724D01*
X1232990Y533625D01*
X1232943Y533525D01*
X1232898Y533424D01*
X1232858Y533321D01*
X1232821Y533216D01*
X1232788Y533110D01*
X1232758Y533004D01*
X1232733Y532896D01*
X1232711Y532787D01*
X1232694Y532678D01*
X1232680Y532568D01*
X1232670Y532457D01*
X1232664Y532347D01*
X1232662Y532236D01*
X1232662Y529131D01*
X1243838Y529131D01*
X1243838Y532236D01*
X1243836Y532335D01*
X1243830Y532433D01*
X1243820Y532532D01*
X1243807Y532629D01*
X1243789Y532727D01*
X1243768Y532823D01*
X1243742Y532919D01*
X1243713Y533013D01*
X1243681Y533106D01*
X1243644Y533198D01*
X1243604Y533288D01*
X1243560Y533377D01*
X1243513Y533464D01*
X1243463Y533549D01*
X1243409Y533631D01*
X1243352Y533712D01*
X1243292Y533790D01*
X1243228Y533866D01*
X1243162Y533939D01*
X1243093Y534010D01*
X1243021Y534078D01*
X1242946Y534142D01*
X1242869Y534204D01*
X1242790Y534263D01*
X1242708Y534318D01*
X1242624Y534371D01*
X1242539Y534419D01*
X1242451Y534465D01*
X1242361Y534507D01*
X1242270Y534545D01*
X1242178Y534579D01*
X1242084Y534610D01*
X1241989Y534637D01*
X1241893Y534661D01*
X1241796Y534680D01*
X1241699Y534696D01*
X1241601Y534708D01*
X1241502Y534716D01*
X1241403Y534720D01*
X1241305Y534720D01*
X1241206Y534716D01*
X1241107Y534708D01*
X1241009Y534696D01*
X1240912Y534680D01*
X1240815Y534661D01*
X1240719Y534637D01*
X1240624Y534610D01*
X1240530Y534579D01*
X1240438Y534545D01*
X1240347Y534507D01*
X1240257Y534465D01*
X1240169Y534419D01*
X1240084Y534371D01*
X1240000Y534318D01*
X1239918Y534263D01*
X1239839Y534204D01*
X1239762Y534142D01*
X1239687Y534078D01*
X1239615Y534010D01*
X1239546Y533939D01*
X1239480Y533866D01*
X1239416Y533790D01*
X1239356Y533712D01*
X1239299Y533631D01*
X1239245Y533549D01*
X1239195Y533464D01*
X1239148Y533377D01*
X1239104Y533288D01*
X1239064Y533198D01*
X1239027Y533106D01*
X1238995Y533013D01*
X1238966Y532919D01*
X1238940Y532823D01*
X1238919Y532727D01*
X1238901Y532629D01*
X1238888Y532532D01*
X1238878Y532433D01*
X1238872Y532335D01*
X1238870Y532236D01*
X727146Y495958D02*
X727048Y495956D01*
X726951Y495950D01*
X726854Y495941D01*
X726757Y495927D01*
X726661Y495910D01*
X726566Y495889D01*
X726472Y495865D01*
X726378Y495836D01*
X726286Y495804D01*
X726195Y495769D01*
X726106Y495730D01*
X726018Y495687D01*
X725932Y495641D01*
X725848Y495592D01*
X725766Y495539D01*
X725686Y495484D01*
X725608Y495425D01*
X725533Y495363D01*
X725460Y495298D01*
X725390Y495230D01*
X725322Y495160D01*
X725257Y495087D01*
X725195Y495012D01*
X725136Y494934D01*
X725081Y494854D01*
X725028Y494772D01*
X724979Y494688D01*
X724933Y494602D01*
X724890Y494514D01*
X724851Y494425D01*
X724816Y494334D01*
X724784Y494242D01*
X724755Y494148D01*
X724731Y494054D01*
X724710Y493959D01*
X724693Y493863D01*
X724679Y493766D01*
X724670Y493669D01*
X724664Y493572D01*
X724662Y493474D01*
X724664Y493331D01*
X724670Y493188D01*
X724679Y493046D01*
X724693Y492904D01*
X724711Y492762D01*
X724732Y492621D01*
X724757Y492480D01*
X724786Y492340D01*
X724819Y492201D01*
X724855Y492063D01*
X724896Y491926D01*
X724940Y491790D01*
X724987Y491656D01*
X725039Y491522D01*
X725093Y491391D01*
X725152Y491260D01*
X725214Y491132D01*
X725279Y491005D01*
X725348Y490880D01*
X725421Y490756D01*
X725496Y490635D01*
X725575Y490516D01*
X725657Y490399D01*
X725743Y490285D01*
X725831Y490173D01*
X725922Y490063D01*
X726017Y489956D01*
X726114Y489851D01*
X726214Y489749D01*
X733354Y490059D02*
X733452Y490061D01*
X733549Y490067D01*
X733646Y490076D01*
X733743Y490090D01*
X733839Y490107D01*
X733934Y490128D01*
X734028Y490152D01*
X734122Y490181D01*
X734214Y490213D01*
X734305Y490248D01*
X734394Y490287D01*
X734482Y490330D01*
X734568Y490376D01*
X734652Y490425D01*
X734734Y490478D01*
X734814Y490533D01*
X734892Y490592D01*
X734967Y490654D01*
X735040Y490719D01*
X735110Y490787D01*
X735178Y490857D01*
X735243Y490930D01*
X735305Y491005D01*
X735364Y491083D01*
X735419Y491163D01*
X735472Y491245D01*
X735521Y491329D01*
X735567Y491415D01*
X735610Y491503D01*
X735649Y491592D01*
X735684Y491683D01*
X735716Y491775D01*
X735745Y491869D01*
X735769Y491963D01*
X735790Y492058D01*
X735807Y492154D01*
X735821Y492251D01*
X735830Y492348D01*
X735836Y492445D01*
X735838Y492543D01*
X735836Y492673D01*
X735831Y492803D01*
X735822Y492933D01*
X735809Y493063D01*
X735793Y493192D01*
X735773Y493321D01*
X735749Y493449D01*
X735722Y493577D01*
X735691Y493703D01*
X735657Y493829D01*
X735619Y493954D01*
X735578Y494077D01*
X735533Y494200D01*
X735485Y494321D01*
X735434Y494441D01*
X735379Y494559D01*
X735321Y494675D01*
X735260Y494790D01*
X735195Y494904D01*
X735128Y495015D01*
X735057Y495124D01*
X734983Y495232D01*
X734907Y495337D01*
X731181Y491302D02*
X731232Y491219D01*
X731286Y491138D01*
X731343Y491060D01*
X731403Y490984D01*
X731466Y490910D01*
X731532Y490839D01*
X731600Y490770D01*
X731671Y490704D01*
X731744Y490640D01*
X731820Y490580D01*
X731898Y490523D01*
X731979Y490468D01*
X732061Y490417D01*
X732145Y490369D01*
X732231Y490324D01*
X732319Y490282D01*
X732408Y490244D01*
X732498Y490210D01*
X732590Y490178D01*
X732683Y490151D01*
X732777Y490127D01*
X732872Y490106D01*
X732968Y490090D01*
X733064Y490077D01*
X733160Y490067D01*
X733257Y490062D01*
X733354Y490060D01*
X729319Y494715D02*
X729268Y494798D01*
X729214Y494879D01*
X729157Y494957D01*
X729097Y495033D01*
X729034Y495107D01*
X728968Y495178D01*
X728900Y495247D01*
X728829Y495313D01*
X728756Y495377D01*
X728680Y495437D01*
X728602Y495494D01*
X728521Y495549D01*
X728439Y495600D01*
X728355Y495648D01*
X728269Y495693D01*
X728181Y495735D01*
X728092Y495773D01*
X728002Y495807D01*
X727910Y495839D01*
X727817Y495866D01*
X727723Y495890D01*
X727628Y495911D01*
X727532Y495927D01*
X727436Y495940D01*
X727340Y495950D01*
X727243Y495955D01*
X727146Y495957D01*
X729319Y494716D02*
X731181Y491301D01*
X735838Y501179D02*
X724662Y501179D01*
X735838Y501179D02*
X735838Y504283D01*
X735836Y504394D01*
X735830Y504504D01*
X735820Y504615D01*
X735806Y504725D01*
X735789Y504834D01*
X735767Y504943D01*
X735742Y505051D01*
X735712Y505157D01*
X735679Y505263D01*
X735642Y505368D01*
X735602Y505471D01*
X735557Y505572D01*
X735510Y505672D01*
X735458Y505771D01*
X735403Y505867D01*
X735345Y505961D01*
X735284Y506053D01*
X735219Y506143D01*
X735151Y506231D01*
X735080Y506316D01*
X735006Y506398D01*
X734929Y506478D01*
X734849Y506555D01*
X734767Y506629D01*
X734682Y506700D01*
X734594Y506768D01*
X734504Y506833D01*
X734412Y506894D01*
X734318Y506952D01*
X734222Y507007D01*
X734123Y507059D01*
X734023Y507106D01*
X733922Y507151D01*
X733819Y507191D01*
X733714Y507228D01*
X733608Y507261D01*
X733502Y507291D01*
X733394Y507316D01*
X733285Y507338D01*
X733176Y507355D01*
X733066Y507369D01*
X732955Y507379D01*
X732845Y507385D01*
X732734Y507387D01*
X732734Y507388D02*
X727766Y507388D01*
X727766Y507387D02*
X727655Y507385D01*
X727545Y507379D01*
X727434Y507369D01*
X727324Y507355D01*
X727215Y507338D01*
X727106Y507316D01*
X726998Y507291D01*
X726892Y507261D01*
X726786Y507228D01*
X726681Y507191D01*
X726578Y507151D01*
X726477Y507106D01*
X726377Y507059D01*
X726278Y507007D01*
X726182Y506952D01*
X726088Y506894D01*
X725996Y506833D01*
X725906Y506768D01*
X725818Y506700D01*
X725733Y506629D01*
X725651Y506555D01*
X725571Y506478D01*
X725494Y506398D01*
X725420Y506316D01*
X725349Y506231D01*
X725281Y506143D01*
X725216Y506053D01*
X725155Y505961D01*
X725097Y505867D01*
X725042Y505771D01*
X724990Y505672D01*
X724943Y505572D01*
X724898Y505471D01*
X724858Y505368D01*
X724821Y505263D01*
X724788Y505157D01*
X724758Y505051D01*
X724733Y504943D01*
X724711Y504834D01*
X724694Y504725D01*
X724680Y504615D01*
X724670Y504504D01*
X724664Y504394D01*
X724662Y504283D01*
X724662Y501179D01*
X724662Y521528D02*
X724662Y524011D01*
X724662Y521528D02*
X724664Y521430D01*
X724670Y521333D01*
X724679Y521236D01*
X724693Y521139D01*
X724710Y521043D01*
X724731Y520948D01*
X724755Y520854D01*
X724784Y520760D01*
X724816Y520668D01*
X724851Y520577D01*
X724890Y520488D01*
X724933Y520400D01*
X724979Y520314D01*
X725028Y520230D01*
X725081Y520148D01*
X725136Y520068D01*
X725195Y519990D01*
X725257Y519915D01*
X725322Y519842D01*
X725390Y519772D01*
X725460Y519704D01*
X725533Y519639D01*
X725608Y519577D01*
X725686Y519518D01*
X725766Y519463D01*
X725848Y519410D01*
X725932Y519361D01*
X726018Y519315D01*
X726106Y519272D01*
X726195Y519233D01*
X726286Y519198D01*
X726378Y519166D01*
X726472Y519137D01*
X726566Y519113D01*
X726661Y519092D01*
X726757Y519075D01*
X726854Y519061D01*
X726951Y519052D01*
X727048Y519046D01*
X727146Y519044D01*
X733354Y519044D01*
X733452Y519046D01*
X733549Y519052D01*
X733646Y519061D01*
X733743Y519075D01*
X733839Y519092D01*
X733934Y519113D01*
X734028Y519137D01*
X734122Y519166D01*
X734214Y519198D01*
X734305Y519233D01*
X734394Y519272D01*
X734482Y519315D01*
X734568Y519361D01*
X734652Y519410D01*
X734734Y519463D01*
X734814Y519518D01*
X734892Y519577D01*
X734967Y519639D01*
X735040Y519704D01*
X735110Y519772D01*
X735178Y519842D01*
X735243Y519915D01*
X735305Y519990D01*
X735364Y520068D01*
X735419Y520148D01*
X735472Y520230D01*
X735521Y520314D01*
X735567Y520400D01*
X735610Y520488D01*
X735649Y520577D01*
X735684Y520668D01*
X735716Y520760D01*
X735745Y520854D01*
X735769Y520948D01*
X735790Y521043D01*
X735807Y521139D01*
X735821Y521236D01*
X735830Y521333D01*
X735836Y521430D01*
X735838Y521528D01*
X735838Y524011D01*
X729008Y530569D02*
X729008Y533363D01*
X729008Y530569D02*
X729006Y530477D01*
X729000Y530385D01*
X728990Y530293D01*
X728977Y530202D01*
X728959Y530111D01*
X728938Y530021D01*
X728913Y529933D01*
X728884Y529845D01*
X728851Y529759D01*
X728815Y529674D01*
X728775Y529591D01*
X728732Y529509D01*
X728685Y529430D01*
X728635Y529352D01*
X728582Y529277D01*
X728526Y529204D01*
X728466Y529133D01*
X728404Y529065D01*
X728339Y529000D01*
X728271Y528938D01*
X728200Y528878D01*
X728127Y528822D01*
X728052Y528769D01*
X727974Y528719D01*
X727895Y528672D01*
X727813Y528629D01*
X727730Y528589D01*
X727645Y528553D01*
X727559Y528520D01*
X727471Y528491D01*
X727383Y528466D01*
X727293Y528445D01*
X727202Y528427D01*
X727111Y528414D01*
X727019Y528404D01*
X726927Y528398D01*
X726835Y528396D01*
X726743Y528398D01*
X726651Y528404D01*
X726559Y528414D01*
X726468Y528427D01*
X726377Y528445D01*
X726287Y528466D01*
X726199Y528491D01*
X726111Y528520D01*
X726025Y528553D01*
X725940Y528589D01*
X725857Y528629D01*
X725775Y528672D01*
X725696Y528719D01*
X725618Y528769D01*
X725543Y528822D01*
X725470Y528878D01*
X725399Y528938D01*
X725331Y529000D01*
X725266Y529065D01*
X725204Y529133D01*
X725144Y529204D01*
X725088Y529277D01*
X725035Y529352D01*
X724985Y529430D01*
X724938Y529509D01*
X724895Y529591D01*
X724855Y529674D01*
X724819Y529759D01*
X724786Y529845D01*
X724757Y529933D01*
X724732Y530021D01*
X724711Y530111D01*
X724693Y530202D01*
X724680Y530293D01*
X724670Y530385D01*
X724664Y530477D01*
X724662Y530569D01*
X724662Y533363D01*
X730250Y533363D01*
X730250Y533364D02*
X730334Y533362D01*
X730417Y533357D01*
X730500Y533347D01*
X730583Y533334D01*
X730665Y533317D01*
X730746Y533297D01*
X730826Y533273D01*
X730905Y533245D01*
X730982Y533214D01*
X731058Y533180D01*
X731133Y533142D01*
X731206Y533100D01*
X731276Y533056D01*
X731345Y533008D01*
X731412Y532958D01*
X731476Y532904D01*
X731537Y532848D01*
X731597Y532788D01*
X731653Y532727D01*
X731707Y532663D01*
X731757Y532596D01*
X731805Y532527D01*
X731849Y532457D01*
X731891Y532384D01*
X731929Y532309D01*
X731963Y532233D01*
X731994Y532156D01*
X732022Y532077D01*
X732046Y531997D01*
X732066Y531916D01*
X732083Y531834D01*
X732096Y531751D01*
X732106Y531668D01*
X732111Y531585D01*
X732113Y531501D01*
X732113Y529017D01*
X732113Y539221D02*
X724662Y539221D01*
X732113Y539221D02*
X732113Y542946D01*
X730871Y542946D01*
X735838Y551651D02*
X724662Y551651D01*
X724662Y548547D01*
X724664Y548463D01*
X724669Y548380D01*
X724679Y548297D01*
X724692Y548214D01*
X724709Y548132D01*
X724729Y548051D01*
X724753Y547971D01*
X724781Y547892D01*
X724812Y547815D01*
X724846Y547739D01*
X724884Y547664D01*
X724926Y547591D01*
X724970Y547521D01*
X725018Y547452D01*
X725068Y547385D01*
X725122Y547321D01*
X725178Y547260D01*
X725238Y547200D01*
X725299Y547144D01*
X725363Y547090D01*
X725430Y547040D01*
X725499Y546992D01*
X725569Y546948D01*
X725642Y546906D01*
X725717Y546868D01*
X725793Y546834D01*
X725870Y546803D01*
X725949Y546775D01*
X726029Y546751D01*
X726110Y546731D01*
X726192Y546714D01*
X726275Y546701D01*
X726358Y546691D01*
X726441Y546686D01*
X726525Y546684D01*
X730250Y546684D01*
X730334Y546686D01*
X730417Y546692D01*
X730500Y546701D01*
X730583Y546714D01*
X730665Y546731D01*
X730746Y546751D01*
X730826Y546775D01*
X730905Y546803D01*
X730982Y546834D01*
X731058Y546868D01*
X731133Y546906D01*
X731206Y546948D01*
X731276Y546992D01*
X731345Y547040D01*
X731412Y547090D01*
X731476Y547144D01*
X731537Y547200D01*
X731597Y547260D01*
X731653Y547321D01*
X731707Y547385D01*
X731757Y547452D01*
X731805Y547521D01*
X731849Y547591D01*
X731891Y547664D01*
X731929Y547739D01*
X731963Y547815D01*
X731994Y547892D01*
X732022Y547971D01*
X732046Y548051D01*
X732066Y548132D01*
X732083Y548214D01*
X732096Y548297D01*
X732106Y548380D01*
X732111Y548463D01*
X732113Y548547D01*
X732113Y551651D01*
X1256284Y699262D02*
X1256284Y710438D01*
X1253180Y710438D01*
X1253069Y710436D01*
X1252959Y710430D01*
X1252848Y710420D01*
X1252738Y710406D01*
X1252629Y710389D01*
X1252520Y710367D01*
X1252412Y710342D01*
X1252306Y710312D01*
X1252200Y710279D01*
X1252095Y710242D01*
X1251992Y710202D01*
X1251891Y710157D01*
X1251791Y710110D01*
X1251692Y710058D01*
X1251596Y710003D01*
X1251502Y709945D01*
X1251410Y709884D01*
X1251320Y709819D01*
X1251232Y709751D01*
X1251147Y709680D01*
X1251065Y709606D01*
X1250985Y709529D01*
X1250908Y709449D01*
X1250834Y709367D01*
X1250763Y709282D01*
X1250695Y709194D01*
X1250630Y709104D01*
X1250569Y709012D01*
X1250511Y708918D01*
X1250456Y708822D01*
X1250404Y708723D01*
X1250357Y708623D01*
X1250312Y708522D01*
X1250272Y708419D01*
X1250235Y708314D01*
X1250202Y708208D01*
X1250172Y708102D01*
X1250147Y707994D01*
X1250125Y707885D01*
X1250108Y707776D01*
X1250094Y707666D01*
X1250084Y707555D01*
X1250078Y707445D01*
X1250076Y707334D01*
X1250078Y707223D01*
X1250084Y707113D01*
X1250094Y707002D01*
X1250108Y706892D01*
X1250125Y706783D01*
X1250147Y706674D01*
X1250172Y706566D01*
X1250202Y706460D01*
X1250235Y706354D01*
X1250272Y706249D01*
X1250312Y706146D01*
X1250357Y706045D01*
X1250404Y705945D01*
X1250456Y705846D01*
X1250511Y705750D01*
X1250569Y705656D01*
X1250630Y705564D01*
X1250695Y705474D01*
X1250763Y705386D01*
X1250834Y705301D01*
X1250908Y705219D01*
X1250985Y705139D01*
X1251065Y705062D01*
X1251147Y704988D01*
X1251232Y704917D01*
X1251320Y704849D01*
X1251410Y704784D01*
X1251502Y704723D01*
X1251596Y704665D01*
X1251692Y704610D01*
X1251791Y704558D01*
X1251891Y704511D01*
X1251992Y704466D01*
X1252095Y704426D01*
X1252200Y704389D01*
X1252306Y704356D01*
X1252412Y704326D01*
X1252520Y704301D01*
X1252629Y704279D01*
X1252738Y704262D01*
X1252848Y704248D01*
X1252959Y704238D01*
X1253069Y704232D01*
X1253180Y704230D01*
X1253180Y704229D02*
X1256284Y704229D01*
X1245588Y704229D02*
X1245588Y701746D01*
X1245588Y704229D02*
X1245586Y704328D01*
X1245580Y704426D01*
X1245570Y704525D01*
X1245557Y704622D01*
X1245539Y704720D01*
X1245518Y704816D01*
X1245492Y704912D01*
X1245463Y705006D01*
X1245431Y705099D01*
X1245394Y705191D01*
X1245354Y705281D01*
X1245310Y705370D01*
X1245263Y705457D01*
X1245213Y705542D01*
X1245159Y705624D01*
X1245102Y705705D01*
X1245042Y705783D01*
X1244978Y705859D01*
X1244912Y705932D01*
X1244843Y706003D01*
X1244771Y706071D01*
X1244696Y706135D01*
X1244619Y706197D01*
X1244540Y706256D01*
X1244458Y706311D01*
X1244374Y706364D01*
X1244289Y706412D01*
X1244201Y706458D01*
X1244111Y706500D01*
X1244020Y706538D01*
X1243928Y706572D01*
X1243834Y706603D01*
X1243739Y706630D01*
X1243643Y706654D01*
X1243546Y706673D01*
X1243449Y706689D01*
X1243351Y706701D01*
X1243252Y706709D01*
X1243153Y706713D01*
X1243055Y706713D01*
X1242956Y706709D01*
X1242857Y706701D01*
X1242759Y706689D01*
X1242662Y706673D01*
X1242565Y706654D01*
X1242469Y706630D01*
X1242374Y706603D01*
X1242280Y706572D01*
X1242188Y706538D01*
X1242097Y706500D01*
X1242007Y706458D01*
X1241919Y706412D01*
X1241834Y706364D01*
X1241750Y706311D01*
X1241668Y706256D01*
X1241589Y706197D01*
X1241512Y706135D01*
X1241437Y706071D01*
X1241365Y706003D01*
X1241296Y705932D01*
X1241230Y705859D01*
X1241166Y705783D01*
X1241106Y705705D01*
X1241049Y705624D01*
X1240995Y705542D01*
X1240945Y705457D01*
X1240898Y705370D01*
X1240854Y705281D01*
X1240814Y705191D01*
X1240777Y705099D01*
X1240745Y705006D01*
X1240716Y704912D01*
X1240690Y704816D01*
X1240669Y704720D01*
X1240651Y704622D01*
X1240638Y704525D01*
X1240628Y704426D01*
X1240622Y704328D01*
X1240620Y704229D01*
X1240621Y704229D02*
X1240621Y701746D01*
X1240620Y701746D02*
X1240622Y701647D01*
X1240628Y701549D01*
X1240638Y701450D01*
X1240651Y701353D01*
X1240669Y701255D01*
X1240690Y701159D01*
X1240716Y701063D01*
X1240745Y700969D01*
X1240777Y700876D01*
X1240814Y700784D01*
X1240854Y700694D01*
X1240898Y700605D01*
X1240945Y700518D01*
X1240995Y700433D01*
X1241049Y700351D01*
X1241106Y700270D01*
X1241166Y700192D01*
X1241230Y700116D01*
X1241296Y700043D01*
X1241365Y699972D01*
X1241437Y699904D01*
X1241512Y699840D01*
X1241589Y699778D01*
X1241668Y699719D01*
X1241750Y699664D01*
X1241834Y699611D01*
X1241919Y699563D01*
X1242007Y699517D01*
X1242097Y699475D01*
X1242188Y699437D01*
X1242280Y699403D01*
X1242374Y699372D01*
X1242469Y699345D01*
X1242565Y699321D01*
X1242662Y699302D01*
X1242759Y699286D01*
X1242857Y699274D01*
X1242956Y699266D01*
X1243055Y699262D01*
X1243153Y699262D01*
X1243252Y699266D01*
X1243351Y699274D01*
X1243449Y699286D01*
X1243546Y699302D01*
X1243643Y699321D01*
X1243739Y699345D01*
X1243834Y699372D01*
X1243928Y699403D01*
X1244020Y699437D01*
X1244111Y699475D01*
X1244201Y699517D01*
X1244289Y699563D01*
X1244374Y699611D01*
X1244458Y699664D01*
X1244540Y699719D01*
X1244619Y699778D01*
X1244696Y699840D01*
X1244771Y699904D01*
X1244843Y699972D01*
X1244912Y700043D01*
X1244978Y700116D01*
X1245042Y700192D01*
X1245102Y700270D01*
X1245159Y700351D01*
X1245213Y700433D01*
X1245263Y700518D01*
X1245310Y700605D01*
X1245354Y700694D01*
X1245394Y700784D01*
X1245431Y700876D01*
X1245463Y700969D01*
X1245492Y701063D01*
X1245518Y701159D01*
X1245539Y701255D01*
X1245557Y701353D01*
X1245570Y701450D01*
X1245580Y701549D01*
X1245586Y701647D01*
X1245588Y701746D01*
X1233803Y699262D02*
X1231319Y699262D01*
X1233803Y699262D02*
X1233887Y699264D01*
X1233970Y699270D01*
X1234053Y699279D01*
X1234136Y699292D01*
X1234218Y699309D01*
X1234299Y699329D01*
X1234379Y699353D01*
X1234458Y699381D01*
X1234535Y699412D01*
X1234611Y699446D01*
X1234686Y699484D01*
X1234759Y699526D01*
X1234829Y699570D01*
X1234898Y699618D01*
X1234965Y699668D01*
X1235029Y699722D01*
X1235090Y699778D01*
X1235150Y699838D01*
X1235206Y699899D01*
X1235260Y699963D01*
X1235310Y700030D01*
X1235358Y700099D01*
X1235402Y700169D01*
X1235444Y700242D01*
X1235482Y700317D01*
X1235516Y700393D01*
X1235547Y700470D01*
X1235575Y700549D01*
X1235599Y700629D01*
X1235619Y700710D01*
X1235636Y700792D01*
X1235649Y700875D01*
X1235659Y700958D01*
X1235664Y701041D01*
X1235666Y701125D01*
X1235665Y701125D02*
X1235665Y704850D01*
X1235666Y704850D02*
X1235664Y704934D01*
X1235659Y705017D01*
X1235649Y705100D01*
X1235636Y705183D01*
X1235619Y705265D01*
X1235599Y705346D01*
X1235575Y705426D01*
X1235547Y705505D01*
X1235516Y705582D01*
X1235482Y705658D01*
X1235444Y705733D01*
X1235402Y705806D01*
X1235358Y705876D01*
X1235310Y705945D01*
X1235260Y706012D01*
X1235206Y706076D01*
X1235150Y706137D01*
X1235090Y706197D01*
X1235029Y706253D01*
X1234965Y706307D01*
X1234898Y706357D01*
X1234829Y706405D01*
X1234759Y706449D01*
X1234686Y706491D01*
X1234611Y706529D01*
X1234535Y706563D01*
X1234458Y706594D01*
X1234379Y706622D01*
X1234299Y706646D01*
X1234218Y706666D01*
X1234136Y706683D01*
X1234053Y706696D01*
X1233970Y706706D01*
X1233887Y706711D01*
X1233803Y706713D01*
X1231319Y706713D01*
X1226369Y710438D02*
X1226369Y699262D01*
X1226369Y702987D02*
X1221401Y706713D01*
X1224195Y704540D02*
X1221401Y699262D01*
X1215150Y699262D02*
X1212046Y699262D01*
X1215150Y699262D02*
X1215234Y699264D01*
X1215317Y699270D01*
X1215400Y699279D01*
X1215483Y699292D01*
X1215565Y699309D01*
X1215646Y699329D01*
X1215726Y699353D01*
X1215805Y699381D01*
X1215882Y699412D01*
X1215958Y699446D01*
X1216033Y699484D01*
X1216106Y699526D01*
X1216176Y699570D01*
X1216245Y699618D01*
X1216312Y699668D01*
X1216376Y699722D01*
X1216437Y699778D01*
X1216497Y699838D01*
X1216553Y699899D01*
X1216607Y699963D01*
X1216657Y700030D01*
X1216705Y700099D01*
X1216749Y700169D01*
X1216791Y700242D01*
X1216829Y700317D01*
X1216863Y700393D01*
X1216894Y700470D01*
X1216922Y700549D01*
X1216946Y700629D01*
X1216966Y700710D01*
X1216983Y700792D01*
X1216996Y700875D01*
X1217006Y700958D01*
X1217011Y701041D01*
X1217013Y701125D01*
X1217013Y704229D01*
X1217011Y704328D01*
X1217005Y704426D01*
X1216995Y704525D01*
X1216982Y704622D01*
X1216964Y704720D01*
X1216943Y704816D01*
X1216917Y704912D01*
X1216888Y705006D01*
X1216856Y705099D01*
X1216819Y705191D01*
X1216779Y705281D01*
X1216735Y705370D01*
X1216688Y705457D01*
X1216638Y705542D01*
X1216584Y705624D01*
X1216527Y705705D01*
X1216467Y705783D01*
X1216403Y705859D01*
X1216337Y705932D01*
X1216268Y706003D01*
X1216196Y706071D01*
X1216121Y706135D01*
X1216044Y706197D01*
X1215965Y706256D01*
X1215883Y706311D01*
X1215799Y706364D01*
X1215714Y706412D01*
X1215626Y706458D01*
X1215536Y706500D01*
X1215445Y706538D01*
X1215353Y706572D01*
X1215259Y706603D01*
X1215164Y706630D01*
X1215068Y706654D01*
X1214971Y706673D01*
X1214874Y706689D01*
X1214776Y706701D01*
X1214677Y706709D01*
X1214578Y706713D01*
X1214480Y706713D01*
X1214381Y706709D01*
X1214282Y706701D01*
X1214184Y706689D01*
X1214087Y706673D01*
X1213990Y706654D01*
X1213894Y706630D01*
X1213799Y706603D01*
X1213705Y706572D01*
X1213613Y706538D01*
X1213522Y706500D01*
X1213432Y706458D01*
X1213344Y706412D01*
X1213259Y706364D01*
X1213175Y706311D01*
X1213093Y706256D01*
X1213014Y706197D01*
X1212937Y706135D01*
X1212862Y706071D01*
X1212790Y706003D01*
X1212721Y705932D01*
X1212655Y705859D01*
X1212591Y705783D01*
X1212531Y705705D01*
X1212474Y705624D01*
X1212420Y705542D01*
X1212370Y705457D01*
X1212323Y705370D01*
X1212279Y705281D01*
X1212239Y705191D01*
X1212202Y705099D01*
X1212170Y705006D01*
X1212141Y704912D01*
X1212115Y704816D01*
X1212094Y704720D01*
X1212076Y704622D01*
X1212063Y704525D01*
X1212053Y704426D01*
X1212047Y704328D01*
X1212045Y704229D01*
X1212046Y704229D02*
X1212046Y702987D01*
X1217013Y702987D01*
X1208126Y706713D02*
X1204400Y706713D01*
X1206884Y710438D02*
X1206884Y701125D01*
X1206882Y701041D01*
X1206876Y700958D01*
X1206867Y700875D01*
X1206854Y700792D01*
X1206837Y700710D01*
X1206817Y700629D01*
X1206793Y700549D01*
X1206765Y700470D01*
X1206734Y700393D01*
X1206700Y700317D01*
X1206662Y700242D01*
X1206620Y700169D01*
X1206576Y700099D01*
X1206528Y700030D01*
X1206478Y699963D01*
X1206424Y699899D01*
X1206368Y699838D01*
X1206308Y699778D01*
X1206247Y699722D01*
X1206183Y699668D01*
X1206116Y699618D01*
X1206047Y699570D01*
X1205977Y699526D01*
X1205904Y699484D01*
X1205829Y699446D01*
X1205753Y699412D01*
X1205676Y699381D01*
X1205597Y699353D01*
X1205517Y699329D01*
X1205436Y699309D01*
X1205354Y699292D01*
X1205271Y699279D01*
X1205188Y699269D01*
X1205105Y699264D01*
X1205021Y699262D01*
X1204400Y699262D01*
X1199134Y705471D02*
X1196030Y705471D01*
X1196030Y705470D02*
X1195919Y705468D01*
X1195809Y705462D01*
X1195698Y705452D01*
X1195588Y705438D01*
X1195479Y705421D01*
X1195370Y705399D01*
X1195262Y705374D01*
X1195156Y705344D01*
X1195050Y705311D01*
X1194945Y705274D01*
X1194842Y705234D01*
X1194741Y705189D01*
X1194641Y705142D01*
X1194542Y705090D01*
X1194446Y705035D01*
X1194352Y704977D01*
X1194260Y704916D01*
X1194170Y704851D01*
X1194082Y704783D01*
X1193997Y704712D01*
X1193915Y704638D01*
X1193835Y704561D01*
X1193758Y704481D01*
X1193684Y704399D01*
X1193613Y704314D01*
X1193545Y704226D01*
X1193480Y704136D01*
X1193419Y704044D01*
X1193361Y703950D01*
X1193306Y703854D01*
X1193254Y703755D01*
X1193207Y703655D01*
X1193162Y703554D01*
X1193122Y703451D01*
X1193085Y703346D01*
X1193052Y703240D01*
X1193022Y703134D01*
X1192997Y703026D01*
X1192975Y702917D01*
X1192958Y702808D01*
X1192944Y702698D01*
X1192934Y702587D01*
X1192928Y702477D01*
X1192926Y702366D01*
X1192928Y702255D01*
X1192934Y702145D01*
X1192944Y702034D01*
X1192958Y701924D01*
X1192975Y701815D01*
X1192997Y701706D01*
X1193022Y701598D01*
X1193052Y701492D01*
X1193085Y701386D01*
X1193122Y701281D01*
X1193162Y701178D01*
X1193207Y701077D01*
X1193254Y700977D01*
X1193306Y700878D01*
X1193361Y700782D01*
X1193419Y700688D01*
X1193480Y700596D01*
X1193545Y700506D01*
X1193613Y700418D01*
X1193684Y700333D01*
X1193758Y700251D01*
X1193835Y700171D01*
X1193915Y700094D01*
X1193997Y700020D01*
X1194082Y699949D01*
X1194170Y699881D01*
X1194260Y699816D01*
X1194352Y699755D01*
X1194446Y699697D01*
X1194542Y699642D01*
X1194641Y699590D01*
X1194741Y699543D01*
X1194842Y699498D01*
X1194945Y699458D01*
X1195050Y699421D01*
X1195156Y699388D01*
X1195262Y699358D01*
X1195370Y699333D01*
X1195479Y699311D01*
X1195588Y699294D01*
X1195698Y699280D01*
X1195809Y699270D01*
X1195919Y699264D01*
X1196030Y699262D01*
X1199134Y699262D01*
X1199134Y710438D01*
X1196030Y710438D01*
X1195931Y710436D01*
X1195833Y710430D01*
X1195734Y710420D01*
X1195637Y710407D01*
X1195539Y710389D01*
X1195443Y710368D01*
X1195347Y710342D01*
X1195253Y710313D01*
X1195160Y710281D01*
X1195068Y710244D01*
X1194978Y710204D01*
X1194889Y710160D01*
X1194802Y710113D01*
X1194717Y710063D01*
X1194635Y710009D01*
X1194554Y709952D01*
X1194476Y709892D01*
X1194400Y709828D01*
X1194327Y709762D01*
X1194256Y709693D01*
X1194188Y709621D01*
X1194124Y709546D01*
X1194062Y709469D01*
X1194003Y709390D01*
X1193948Y709308D01*
X1193895Y709224D01*
X1193847Y709139D01*
X1193801Y709051D01*
X1193759Y708961D01*
X1193721Y708870D01*
X1193687Y708778D01*
X1193656Y708684D01*
X1193629Y708589D01*
X1193605Y708493D01*
X1193586Y708396D01*
X1193570Y708299D01*
X1193558Y708201D01*
X1193550Y708102D01*
X1193546Y708003D01*
X1193546Y707905D01*
X1193550Y707806D01*
X1193558Y707707D01*
X1193570Y707609D01*
X1193586Y707512D01*
X1193605Y707415D01*
X1193629Y707319D01*
X1193656Y707224D01*
X1193687Y707130D01*
X1193721Y707038D01*
X1193759Y706947D01*
X1193801Y706857D01*
X1193847Y706769D01*
X1193895Y706684D01*
X1193948Y706600D01*
X1194003Y706518D01*
X1194062Y706439D01*
X1194124Y706362D01*
X1194188Y706287D01*
X1194256Y706215D01*
X1194327Y706146D01*
X1194400Y706080D01*
X1194476Y706016D01*
X1194554Y705956D01*
X1194635Y705899D01*
X1194717Y705845D01*
X1194802Y705795D01*
X1194889Y705748D01*
X1194978Y705704D01*
X1195068Y705664D01*
X1195160Y705627D01*
X1195253Y705595D01*
X1195347Y705566D01*
X1195443Y705540D01*
X1195539Y705519D01*
X1195637Y705501D01*
X1195734Y705488D01*
X1195833Y705478D01*
X1195931Y705472D01*
X1196030Y705470D01*
X1186575Y699262D02*
X1183471Y699262D01*
X1186575Y699262D02*
X1186659Y699264D01*
X1186742Y699270D01*
X1186825Y699279D01*
X1186908Y699292D01*
X1186990Y699309D01*
X1187071Y699329D01*
X1187151Y699353D01*
X1187230Y699381D01*
X1187307Y699412D01*
X1187383Y699446D01*
X1187458Y699484D01*
X1187531Y699526D01*
X1187601Y699570D01*
X1187670Y699618D01*
X1187737Y699668D01*
X1187801Y699722D01*
X1187862Y699778D01*
X1187922Y699838D01*
X1187978Y699899D01*
X1188032Y699963D01*
X1188082Y700030D01*
X1188130Y700099D01*
X1188174Y700169D01*
X1188216Y700242D01*
X1188254Y700317D01*
X1188288Y700393D01*
X1188319Y700470D01*
X1188347Y700549D01*
X1188371Y700629D01*
X1188391Y700710D01*
X1188408Y700792D01*
X1188421Y700875D01*
X1188431Y700958D01*
X1188436Y701041D01*
X1188438Y701125D01*
X1188438Y704229D01*
X1188436Y704328D01*
X1188430Y704426D01*
X1188420Y704525D01*
X1188407Y704622D01*
X1188389Y704720D01*
X1188368Y704816D01*
X1188342Y704912D01*
X1188313Y705006D01*
X1188281Y705099D01*
X1188244Y705191D01*
X1188204Y705281D01*
X1188160Y705370D01*
X1188113Y705457D01*
X1188063Y705542D01*
X1188009Y705624D01*
X1187952Y705705D01*
X1187892Y705783D01*
X1187828Y705859D01*
X1187762Y705932D01*
X1187693Y706003D01*
X1187621Y706071D01*
X1187546Y706135D01*
X1187469Y706197D01*
X1187390Y706256D01*
X1187308Y706311D01*
X1187224Y706364D01*
X1187139Y706412D01*
X1187051Y706458D01*
X1186961Y706500D01*
X1186870Y706538D01*
X1186778Y706572D01*
X1186684Y706603D01*
X1186589Y706630D01*
X1186493Y706654D01*
X1186396Y706673D01*
X1186299Y706689D01*
X1186201Y706701D01*
X1186102Y706709D01*
X1186003Y706713D01*
X1185905Y706713D01*
X1185806Y706709D01*
X1185707Y706701D01*
X1185609Y706689D01*
X1185512Y706673D01*
X1185415Y706654D01*
X1185319Y706630D01*
X1185224Y706603D01*
X1185130Y706572D01*
X1185038Y706538D01*
X1184947Y706500D01*
X1184857Y706458D01*
X1184769Y706412D01*
X1184684Y706364D01*
X1184600Y706311D01*
X1184518Y706256D01*
X1184439Y706197D01*
X1184362Y706135D01*
X1184287Y706071D01*
X1184215Y706003D01*
X1184146Y705932D01*
X1184080Y705859D01*
X1184016Y705783D01*
X1183956Y705705D01*
X1183899Y705624D01*
X1183845Y705542D01*
X1183795Y705457D01*
X1183748Y705370D01*
X1183704Y705281D01*
X1183664Y705191D01*
X1183627Y705099D01*
X1183595Y705006D01*
X1183566Y704912D01*
X1183540Y704816D01*
X1183519Y704720D01*
X1183501Y704622D01*
X1183488Y704525D01*
X1183478Y704426D01*
X1183472Y704328D01*
X1183470Y704229D01*
X1183471Y704229D02*
X1183471Y702987D01*
X1188438Y702987D01*
X1176433Y703608D02*
X1173639Y703608D01*
X1176433Y703608D02*
X1176525Y703606D01*
X1176617Y703600D01*
X1176709Y703590D01*
X1176800Y703577D01*
X1176891Y703559D01*
X1176981Y703538D01*
X1177069Y703513D01*
X1177157Y703484D01*
X1177243Y703451D01*
X1177328Y703415D01*
X1177411Y703375D01*
X1177493Y703332D01*
X1177572Y703285D01*
X1177650Y703235D01*
X1177725Y703182D01*
X1177798Y703126D01*
X1177869Y703066D01*
X1177937Y703004D01*
X1178002Y702939D01*
X1178064Y702871D01*
X1178124Y702800D01*
X1178180Y702727D01*
X1178233Y702652D01*
X1178283Y702574D01*
X1178330Y702495D01*
X1178373Y702413D01*
X1178413Y702330D01*
X1178449Y702245D01*
X1178482Y702159D01*
X1178511Y702071D01*
X1178536Y701983D01*
X1178557Y701893D01*
X1178575Y701802D01*
X1178588Y701711D01*
X1178598Y701619D01*
X1178604Y701527D01*
X1178606Y701435D01*
X1178604Y701343D01*
X1178598Y701251D01*
X1178588Y701159D01*
X1178575Y701068D01*
X1178557Y700977D01*
X1178536Y700887D01*
X1178511Y700799D01*
X1178482Y700711D01*
X1178449Y700625D01*
X1178413Y700540D01*
X1178373Y700457D01*
X1178330Y700375D01*
X1178283Y700296D01*
X1178233Y700218D01*
X1178180Y700143D01*
X1178124Y700070D01*
X1178064Y699999D01*
X1178002Y699931D01*
X1177937Y699866D01*
X1177869Y699804D01*
X1177798Y699744D01*
X1177725Y699688D01*
X1177650Y699635D01*
X1177572Y699585D01*
X1177493Y699538D01*
X1177411Y699495D01*
X1177328Y699455D01*
X1177243Y699419D01*
X1177157Y699386D01*
X1177069Y699357D01*
X1176981Y699332D01*
X1176891Y699311D01*
X1176800Y699293D01*
X1176709Y699280D01*
X1176617Y699270D01*
X1176525Y699264D01*
X1176433Y699262D01*
X1173639Y699262D01*
X1173639Y704850D01*
X1173638Y704850D02*
X1173640Y704934D01*
X1173646Y705017D01*
X1173655Y705100D01*
X1173668Y705183D01*
X1173685Y705265D01*
X1173705Y705346D01*
X1173729Y705426D01*
X1173757Y705505D01*
X1173788Y705582D01*
X1173822Y705658D01*
X1173860Y705733D01*
X1173902Y705806D01*
X1173946Y705876D01*
X1173994Y705945D01*
X1174044Y706012D01*
X1174098Y706076D01*
X1174154Y706137D01*
X1174214Y706197D01*
X1174275Y706253D01*
X1174339Y706307D01*
X1174406Y706357D01*
X1174475Y706405D01*
X1174545Y706449D01*
X1174618Y706491D01*
X1174693Y706529D01*
X1174769Y706563D01*
X1174846Y706594D01*
X1174925Y706622D01*
X1175005Y706646D01*
X1175086Y706666D01*
X1175168Y706683D01*
X1175251Y706696D01*
X1175334Y706706D01*
X1175417Y706711D01*
X1175501Y706713D01*
X1177985Y706713D01*
X1166456Y699262D02*
X1163352Y699262D01*
X1166456Y699262D02*
X1166540Y699264D01*
X1166623Y699270D01*
X1166706Y699279D01*
X1166789Y699292D01*
X1166871Y699309D01*
X1166952Y699329D01*
X1167032Y699353D01*
X1167111Y699381D01*
X1167188Y699412D01*
X1167264Y699446D01*
X1167339Y699484D01*
X1167412Y699526D01*
X1167482Y699570D01*
X1167551Y699618D01*
X1167618Y699668D01*
X1167682Y699722D01*
X1167743Y699778D01*
X1167803Y699838D01*
X1167859Y699899D01*
X1167913Y699963D01*
X1167963Y700030D01*
X1168011Y700099D01*
X1168055Y700169D01*
X1168097Y700242D01*
X1168135Y700317D01*
X1168169Y700393D01*
X1168200Y700470D01*
X1168228Y700549D01*
X1168252Y700629D01*
X1168272Y700710D01*
X1168289Y700792D01*
X1168302Y700875D01*
X1168312Y700958D01*
X1168317Y701041D01*
X1168319Y701125D01*
X1168319Y704850D01*
X1168317Y704934D01*
X1168312Y705017D01*
X1168302Y705100D01*
X1168289Y705183D01*
X1168272Y705265D01*
X1168252Y705346D01*
X1168228Y705426D01*
X1168200Y705505D01*
X1168169Y705582D01*
X1168135Y705658D01*
X1168097Y705733D01*
X1168055Y705806D01*
X1168011Y705876D01*
X1167963Y705945D01*
X1167913Y706012D01*
X1167859Y706076D01*
X1167803Y706137D01*
X1167743Y706197D01*
X1167682Y706253D01*
X1167618Y706307D01*
X1167551Y706357D01*
X1167482Y706405D01*
X1167412Y706449D01*
X1167339Y706491D01*
X1167264Y706529D01*
X1167188Y706563D01*
X1167111Y706594D01*
X1167032Y706622D01*
X1166952Y706646D01*
X1166871Y706666D01*
X1166789Y706683D01*
X1166706Y706696D01*
X1166623Y706706D01*
X1166540Y706711D01*
X1166456Y706713D01*
X1163352Y706713D01*
X1163352Y697399D01*
X1163351Y697399D02*
X1163353Y697315D01*
X1163358Y697232D01*
X1163368Y697149D01*
X1163381Y697066D01*
X1163398Y696984D01*
X1163418Y696903D01*
X1163442Y696823D01*
X1163470Y696744D01*
X1163501Y696667D01*
X1163535Y696591D01*
X1163573Y696516D01*
X1163615Y696443D01*
X1163659Y696373D01*
X1163707Y696304D01*
X1163757Y696237D01*
X1163811Y696173D01*
X1163867Y696112D01*
X1163927Y696052D01*
X1163988Y695996D01*
X1164052Y695942D01*
X1164119Y695892D01*
X1164188Y695844D01*
X1164258Y695800D01*
X1164331Y695758D01*
X1164406Y695720D01*
X1164482Y695686D01*
X1164559Y695655D01*
X1164638Y695627D01*
X1164718Y695603D01*
X1164799Y695583D01*
X1164881Y695566D01*
X1164964Y695553D01*
X1165047Y695543D01*
X1165130Y695538D01*
X1165214Y695536D01*
X1165214Y695537D02*
X1167698Y695537D01*
X1157866Y701125D02*
X1157866Y710438D01*
X1157867Y701125D02*
X1157865Y701039D01*
X1157859Y700953D01*
X1157849Y700868D01*
X1157835Y700783D01*
X1157818Y700698D01*
X1157796Y700615D01*
X1157770Y700533D01*
X1157741Y700452D01*
X1157708Y700373D01*
X1157672Y700295D01*
X1157632Y700218D01*
X1157588Y700144D01*
X1157541Y700072D01*
X1157491Y700002D01*
X1157437Y699935D01*
X1157381Y699870D01*
X1157321Y699808D01*
X1157259Y699748D01*
X1157194Y699692D01*
X1157127Y699638D01*
X1157057Y699588D01*
X1156985Y699541D01*
X1156911Y699497D01*
X1156834Y699457D01*
X1156757Y699421D01*
X1156677Y699388D01*
X1156596Y699359D01*
X1156514Y699333D01*
X1156431Y699311D01*
X1156346Y699294D01*
X1156261Y699280D01*
X1156176Y699270D01*
X1156090Y699264D01*
X1156004Y699262D01*
X1149999Y699262D02*
X1146895Y699262D01*
X1149999Y699262D02*
X1150083Y699264D01*
X1150166Y699270D01*
X1150249Y699279D01*
X1150332Y699292D01*
X1150414Y699309D01*
X1150495Y699329D01*
X1150575Y699353D01*
X1150654Y699381D01*
X1150731Y699412D01*
X1150807Y699446D01*
X1150882Y699484D01*
X1150955Y699526D01*
X1151025Y699570D01*
X1151094Y699618D01*
X1151161Y699668D01*
X1151225Y699722D01*
X1151286Y699778D01*
X1151346Y699838D01*
X1151402Y699899D01*
X1151456Y699963D01*
X1151506Y700030D01*
X1151554Y700099D01*
X1151598Y700169D01*
X1151640Y700242D01*
X1151678Y700317D01*
X1151712Y700393D01*
X1151743Y700470D01*
X1151771Y700549D01*
X1151795Y700629D01*
X1151815Y700710D01*
X1151832Y700792D01*
X1151845Y700875D01*
X1151855Y700958D01*
X1151860Y701041D01*
X1151862Y701125D01*
X1151862Y704229D01*
X1151863Y704229D02*
X1151861Y704328D01*
X1151855Y704426D01*
X1151845Y704525D01*
X1151832Y704622D01*
X1151814Y704720D01*
X1151793Y704816D01*
X1151767Y704912D01*
X1151738Y705006D01*
X1151706Y705099D01*
X1151669Y705191D01*
X1151629Y705281D01*
X1151585Y705370D01*
X1151538Y705457D01*
X1151488Y705542D01*
X1151434Y705624D01*
X1151377Y705705D01*
X1151317Y705783D01*
X1151253Y705859D01*
X1151187Y705932D01*
X1151118Y706003D01*
X1151046Y706071D01*
X1150971Y706135D01*
X1150894Y706197D01*
X1150815Y706256D01*
X1150733Y706311D01*
X1150649Y706364D01*
X1150564Y706412D01*
X1150476Y706458D01*
X1150386Y706500D01*
X1150295Y706538D01*
X1150203Y706572D01*
X1150109Y706603D01*
X1150014Y706630D01*
X1149918Y706654D01*
X1149821Y706673D01*
X1149724Y706689D01*
X1149626Y706701D01*
X1149527Y706709D01*
X1149428Y706713D01*
X1149330Y706713D01*
X1149231Y706709D01*
X1149132Y706701D01*
X1149034Y706689D01*
X1148937Y706673D01*
X1148840Y706654D01*
X1148744Y706630D01*
X1148649Y706603D01*
X1148555Y706572D01*
X1148463Y706538D01*
X1148372Y706500D01*
X1148282Y706458D01*
X1148194Y706412D01*
X1148109Y706364D01*
X1148025Y706311D01*
X1147943Y706256D01*
X1147864Y706197D01*
X1147787Y706135D01*
X1147712Y706071D01*
X1147640Y706003D01*
X1147571Y705932D01*
X1147505Y705859D01*
X1147441Y705783D01*
X1147381Y705705D01*
X1147324Y705624D01*
X1147270Y705542D01*
X1147220Y705457D01*
X1147173Y705370D01*
X1147129Y705281D01*
X1147089Y705191D01*
X1147052Y705099D01*
X1147020Y705006D01*
X1146991Y704912D01*
X1146965Y704816D01*
X1146944Y704720D01*
X1146926Y704622D01*
X1146913Y704525D01*
X1146903Y704426D01*
X1146897Y704328D01*
X1146895Y704229D01*
X1146895Y702987D01*
X1151862Y702987D01*
M02*
