M48
;GenerationSoftware,Autodesk,EAGLE,9.6.2*%
;CreationDate,2023-12-16T13:05:07Z*%
FMAT,2
ICI,OFF
METRIC,TZ,000.000
T9C0.305
T8C0.889
T7C0.920
T6C1.000
T5C1.400
T4C2.300
T3C2.500
T2C3.000
T1C3.175
%
G90
M71
T1
X121920Y5080
X5080Y5080
X121920Y96520
X5080Y96520
T2
X101600Y19685
X101600Y76835
X25400Y19685
X25400Y76835
T3
X106760Y12080
X116760Y12080
X10240Y12080
X20240Y12080
T4
X73570Y89070
X60430Y89070
T5
X8990Y86320
X8990Y81320
X21490Y81320
X21490Y86320
X105510Y86320
X118010Y86320
X118010Y81320
X105510Y81320
T6
X25400Y49530
X109260Y5080
X111760Y5080
X114260Y5080
X12740Y5080
X15240Y5080
X17740Y5080
X25400Y46990
X25400Y44450
X25400Y41910
X25400Y39370
X25400Y36830
X25400Y34290
X25400Y31750
X25400Y29210
X25400Y26670
X25400Y24130
X25400Y52070
X25400Y54610
X25400Y57150
X25400Y59690
X25400Y62230
X25400Y64770
X25400Y67310
X25400Y69850
X25400Y72390
T7
X63500Y86360
X66000Y86360
X68000Y86360
X70500Y86360
T8
X109660Y40360
X107120Y37820
X107120Y40360
X104580Y37820
X104580Y40360
X102040Y37820
X102040Y40360
X99500Y37820
X99500Y40360
X96960Y37820
X96960Y40360
X94420Y37820
X94420Y40360
X91880Y37820
X91880Y40360
X89340Y37820
X89340Y40360
X86800Y37820
X86800Y40360
X84260Y37820
X84260Y40360
X81720Y37820
X81720Y40360
X79180Y37820
X79180Y40360
X76640Y37820
X76640Y40360
X119820Y63220
X119820Y65760
X117280Y63220
X117280Y65760
X114740Y63220
X114740Y65760
X112200Y63220
X112200Y65760
X109660Y63220
X109660Y65760
X107120Y63220
X107120Y65760
X104580Y63220
X104580Y65760
X102040Y63220
X102040Y65760
X99500Y63220
X99500Y65760
X96960Y63220
X96960Y65760
X94420Y63220
X94420Y65760
X91880Y63220
X91880Y65760
X89340Y63220
X89340Y65760
X86800Y63220
X86800Y65760
X84260Y63220
X84260Y65760
X81720Y63220
X81720Y65760
X79180Y63220
X79180Y65760
X76640Y63220
X76640Y65760
X109660Y37820
X112200Y40360
X112200Y37820
X114740Y40360
X114740Y37820
X117280Y40360
X117280Y37820
X119820Y40360
X119820Y37820
T9
X23952Y65989
X87498Y61908
X26746Y23572
X26746Y67868
X28575Y30861
X28575Y67691
X121920Y81280
X5080Y86360
X114300Y4064
X103759Y81217
X31750Y78740
X120650Y22860
X83185Y78740
X65405Y78740
X47625Y78740
M30
