G04 EAGLE Gerber RS-274X export*
G75*
%MOMM*%
%FSLAX34Y34*%
%LPD*%
%INCopper Layer 15*%
%IPPOS*%
%AMOC8*
5,1,8,0,0,1.08239X$1,22.5*%
G01*
%ADD10C,1.960000*%
%ADD11C,1.400000*%
%ADD12C,1.288000*%
%ADD13C,3.220000*%
%ADD14C,4.191000*%
%ADD15C,1.244600*%
%ADD16C,4.016000*%
%ADD17C,0.609600*%

G36*
X1266308Y2556D02*
X1266308Y2556D01*
X1266427Y2563D01*
X1266465Y2576D01*
X1266506Y2581D01*
X1266616Y2624D01*
X1266729Y2661D01*
X1266764Y2683D01*
X1266801Y2698D01*
X1266897Y2767D01*
X1266998Y2831D01*
X1267026Y2861D01*
X1267059Y2884D01*
X1267135Y2976D01*
X1267216Y3063D01*
X1267236Y3098D01*
X1267261Y3129D01*
X1267312Y3237D01*
X1267370Y3341D01*
X1267380Y3381D01*
X1267397Y3417D01*
X1267419Y3534D01*
X1267449Y3649D01*
X1267453Y3709D01*
X1267457Y3729D01*
X1267455Y3750D01*
X1267459Y3810D01*
X1267459Y1012190D01*
X1267444Y1012308D01*
X1267437Y1012427D01*
X1267424Y1012465D01*
X1267419Y1012506D01*
X1267376Y1012616D01*
X1267339Y1012729D01*
X1267317Y1012764D01*
X1267302Y1012801D01*
X1267233Y1012897D01*
X1267169Y1012998D01*
X1267139Y1013026D01*
X1267116Y1013059D01*
X1267024Y1013135D01*
X1266937Y1013216D01*
X1266902Y1013236D01*
X1266871Y1013261D01*
X1266763Y1013312D01*
X1266659Y1013370D01*
X1266619Y1013380D01*
X1266583Y1013397D01*
X1266466Y1013419D01*
X1266351Y1013449D01*
X1266291Y1013453D01*
X1266271Y1013457D01*
X1266250Y1013455D01*
X1266190Y1013459D01*
X3810Y1013459D01*
X3692Y1013444D01*
X3573Y1013437D01*
X3535Y1013424D01*
X3494Y1013419D01*
X3384Y1013376D01*
X3271Y1013339D01*
X3236Y1013317D01*
X3199Y1013302D01*
X3103Y1013233D01*
X3002Y1013169D01*
X2974Y1013139D01*
X2941Y1013116D01*
X2865Y1013024D01*
X2784Y1012937D01*
X2764Y1012902D01*
X2739Y1012871D01*
X2688Y1012763D01*
X2630Y1012659D01*
X2620Y1012619D01*
X2603Y1012583D01*
X2581Y1012466D01*
X2551Y1012351D01*
X2547Y1012291D01*
X2543Y1012271D01*
X2545Y1012250D01*
X2541Y1012190D01*
X2541Y3810D01*
X2556Y3692D01*
X2563Y3573D01*
X2576Y3535D01*
X2581Y3494D01*
X2624Y3384D01*
X2661Y3271D01*
X2683Y3236D01*
X2698Y3199D01*
X2767Y3103D01*
X2831Y3002D01*
X2861Y2974D01*
X2884Y2941D01*
X2976Y2865D01*
X3063Y2784D01*
X3098Y2764D01*
X3129Y2739D01*
X3237Y2688D01*
X3341Y2630D01*
X3381Y2620D01*
X3417Y2603D01*
X3534Y2581D01*
X3649Y2551D01*
X3709Y2547D01*
X3729Y2543D01*
X3750Y2545D01*
X3810Y2541D01*
X1266190Y2541D01*
X1266308Y2556D01*
G37*
%LPC*%
G36*
X493722Y586739D02*
X493722Y586739D01*
X491489Y588972D01*
X491489Y871528D01*
X493722Y873761D01*
X591813Y873761D01*
X591951Y873778D01*
X592089Y873791D01*
X592109Y873798D01*
X592129Y873801D01*
X592258Y873852D01*
X592389Y873899D01*
X592406Y873910D01*
X592424Y873918D01*
X592537Y873999D01*
X592652Y874077D01*
X592665Y874093D01*
X592682Y874104D01*
X592770Y874212D01*
X592862Y874316D01*
X592872Y874334D01*
X592884Y874349D01*
X592944Y874475D01*
X593007Y874599D01*
X593011Y874619D01*
X593020Y874637D01*
X593046Y874773D01*
X593077Y874909D01*
X593076Y874930D01*
X593080Y874949D01*
X593071Y875088D01*
X593067Y875227D01*
X593061Y875247D01*
X593060Y875267D01*
X593017Y875399D01*
X592979Y875533D01*
X592968Y875550D01*
X592962Y875569D01*
X592887Y875687D01*
X592817Y875807D01*
X592798Y875828D01*
X592792Y875838D01*
X592777Y875852D01*
X592711Y875927D01*
X588497Y880141D01*
X585659Y886992D01*
X585659Y894408D01*
X588497Y901259D01*
X593741Y906503D01*
X600592Y909341D01*
X608008Y909341D01*
X614859Y906503D01*
X620103Y901259D01*
X622941Y894408D01*
X622941Y886992D01*
X620103Y880141D01*
X615889Y875927D01*
X615804Y875818D01*
X615716Y875711D01*
X615707Y875692D01*
X615694Y875676D01*
X615639Y875548D01*
X615580Y875423D01*
X615576Y875403D01*
X615568Y875384D01*
X615546Y875246D01*
X615520Y875110D01*
X615521Y875090D01*
X615518Y875070D01*
X615531Y874931D01*
X615540Y874793D01*
X615546Y874774D01*
X615548Y874754D01*
X615595Y874622D01*
X615638Y874491D01*
X615649Y874473D01*
X615656Y874454D01*
X615734Y874339D01*
X615808Y874222D01*
X615823Y874208D01*
X615834Y874191D01*
X615939Y874099D01*
X616040Y874004D01*
X616057Y873994D01*
X616073Y873981D01*
X616197Y873917D01*
X616318Y873850D01*
X616338Y873845D01*
X616356Y873836D01*
X616492Y873806D01*
X616626Y873771D01*
X616654Y873769D01*
X616666Y873766D01*
X616687Y873767D01*
X616787Y873761D01*
X649278Y873761D01*
X651511Y871528D01*
X651511Y870876D01*
X651528Y870738D01*
X651541Y870599D01*
X651548Y870580D01*
X651551Y870560D01*
X651602Y870431D01*
X651649Y870300D01*
X651660Y870283D01*
X651668Y870264D01*
X651749Y870152D01*
X651827Y870037D01*
X651843Y870023D01*
X651854Y870007D01*
X651962Y869918D01*
X652066Y869826D01*
X652084Y869817D01*
X652099Y869804D01*
X652225Y869745D01*
X652349Y869682D01*
X652369Y869677D01*
X652387Y869669D01*
X652524Y869643D01*
X652659Y869612D01*
X652680Y869613D01*
X652699Y869609D01*
X652838Y869618D01*
X652977Y869622D01*
X652997Y869627D01*
X653017Y869629D01*
X653149Y869671D01*
X653283Y869710D01*
X653300Y869721D01*
X653319Y869727D01*
X653437Y869801D01*
X653557Y869872D01*
X653578Y869890D01*
X653588Y869897D01*
X653602Y869912D01*
X653677Y869978D01*
X654913Y871214D01*
X658214Y872581D01*
X661786Y872581D01*
X665087Y871214D01*
X667614Y868687D01*
X668827Y865757D01*
X668896Y865636D01*
X668961Y865513D01*
X668975Y865498D01*
X668985Y865480D01*
X669082Y865380D01*
X669175Y865278D01*
X669192Y865267D01*
X669206Y865252D01*
X669324Y865179D01*
X669441Y865103D01*
X669460Y865096D01*
X669477Y865086D01*
X669610Y865045D01*
X669742Y865000D01*
X669762Y864998D01*
X669781Y864992D01*
X669920Y864986D01*
X670059Y864974D01*
X670079Y864978D01*
X670099Y864977D01*
X670235Y865005D01*
X670372Y865029D01*
X670390Y865037D01*
X670410Y865041D01*
X670536Y865103D01*
X670662Y865159D01*
X670678Y865172D01*
X670696Y865181D01*
X670802Y865272D01*
X670910Y865358D01*
X670923Y865374D01*
X670938Y865387D01*
X671018Y865502D01*
X671102Y865612D01*
X671114Y865637D01*
X671121Y865647D01*
X671128Y865667D01*
X671173Y865757D01*
X672386Y868687D01*
X674913Y871214D01*
X678214Y872581D01*
X681786Y872581D01*
X685087Y871214D01*
X687614Y868687D01*
X688981Y865386D01*
X688981Y861814D01*
X687614Y858513D01*
X685087Y855986D01*
X681786Y854619D01*
X678214Y854619D01*
X674913Y855986D01*
X672386Y858513D01*
X671173Y861443D01*
X671104Y861564D01*
X671039Y861687D01*
X671025Y861702D01*
X671015Y861720D01*
X670918Y861820D01*
X670825Y861922D01*
X670808Y861933D01*
X670794Y861948D01*
X670675Y862021D01*
X670559Y862097D01*
X670540Y862104D01*
X670523Y862114D01*
X670390Y862155D01*
X670258Y862200D01*
X670238Y862202D01*
X670219Y862208D01*
X670080Y862214D01*
X669941Y862226D01*
X669921Y862222D01*
X669901Y862223D01*
X669765Y862195D01*
X669628Y862171D01*
X669609Y862163D01*
X669590Y862159D01*
X669464Y862097D01*
X669338Y862041D01*
X669322Y862028D01*
X669304Y862019D01*
X669198Y861929D01*
X669090Y861842D01*
X669077Y861826D01*
X669062Y861813D01*
X668982Y861699D01*
X668898Y861588D01*
X668886Y861563D01*
X668879Y861553D01*
X668872Y861533D01*
X668827Y861443D01*
X667614Y858513D01*
X665087Y855986D01*
X661786Y854619D01*
X658214Y854619D01*
X654913Y855986D01*
X653677Y857222D01*
X653568Y857307D01*
X653461Y857396D01*
X653442Y857404D01*
X653426Y857417D01*
X653299Y857472D01*
X653173Y857531D01*
X653153Y857535D01*
X653134Y857543D01*
X652996Y857565D01*
X652860Y857591D01*
X652840Y857590D01*
X652820Y857593D01*
X652681Y857580D01*
X652543Y857571D01*
X652524Y857565D01*
X652504Y857563D01*
X652372Y857516D01*
X652241Y857473D01*
X652223Y857462D01*
X652204Y857456D01*
X652089Y857377D01*
X651972Y857303D01*
X651958Y857288D01*
X651941Y857277D01*
X651849Y857173D01*
X651754Y857071D01*
X651744Y857054D01*
X651731Y857039D01*
X651667Y856914D01*
X651600Y856793D01*
X651595Y856773D01*
X651586Y856755D01*
X651556Y856619D01*
X651521Y856485D01*
X651519Y856457D01*
X651516Y856445D01*
X651517Y856425D01*
X651511Y856324D01*
X651511Y836622D01*
X649278Y834389D01*
X557530Y834389D01*
X557412Y834374D01*
X557293Y834367D01*
X557255Y834354D01*
X557214Y834349D01*
X557104Y834306D01*
X556991Y834269D01*
X556956Y834247D01*
X556919Y834232D01*
X556823Y834163D01*
X556722Y834099D01*
X556694Y834069D01*
X556661Y834046D01*
X556585Y833954D01*
X556504Y833867D01*
X556484Y833832D01*
X556459Y833801D01*
X556408Y833693D01*
X556350Y833589D01*
X556340Y833549D01*
X556323Y833513D01*
X556301Y833396D01*
X556271Y833281D01*
X556267Y833221D01*
X556263Y833201D01*
X556265Y833180D01*
X556261Y833120D01*
X556261Y621030D01*
X556276Y620912D01*
X556283Y620793D01*
X556296Y620755D01*
X556301Y620714D01*
X556344Y620604D01*
X556381Y620491D01*
X556403Y620456D01*
X556418Y620419D01*
X556487Y620323D01*
X556551Y620222D01*
X556581Y620194D01*
X556604Y620161D01*
X556696Y620085D01*
X556783Y620004D01*
X556818Y619984D01*
X556849Y619959D01*
X556957Y619908D01*
X557061Y619850D01*
X557101Y619840D01*
X557137Y619823D01*
X557254Y619801D01*
X557369Y619771D01*
X557429Y619767D01*
X557449Y619763D01*
X557470Y619765D01*
X557530Y619761D01*
X868370Y619761D01*
X868399Y619764D01*
X868428Y619762D01*
X868557Y619784D01*
X868685Y619801D01*
X868713Y619811D01*
X868742Y619816D01*
X868860Y619870D01*
X868981Y619918D01*
X869005Y619935D01*
X869032Y619947D01*
X869133Y620028D01*
X869238Y620104D01*
X869257Y620127D01*
X869280Y620146D01*
X869358Y620249D01*
X869441Y620349D01*
X869454Y620376D01*
X869471Y620400D01*
X869542Y620544D01*
X870013Y621681D01*
X870026Y621729D01*
X870048Y621774D01*
X870068Y621882D01*
X870097Y621988D01*
X870098Y622038D01*
X870107Y622087D01*
X870101Y622196D01*
X870102Y622306D01*
X870091Y622354D01*
X870088Y622404D01*
X870054Y622508D01*
X870028Y622615D01*
X870005Y622659D01*
X869990Y622706D01*
X869931Y622799D01*
X869879Y622896D01*
X869846Y622933D01*
X869819Y622975D01*
X869739Y623050D01*
X869665Y623132D01*
X869624Y623159D01*
X869588Y623193D01*
X869492Y623246D01*
X869400Y623306D01*
X869353Y623323D01*
X869309Y623347D01*
X869203Y623374D01*
X869099Y623410D01*
X869049Y623414D01*
X869001Y623426D01*
X868841Y623436D01*
X866257Y623436D01*
X863036Y624770D01*
X860570Y627236D01*
X859236Y630457D01*
X859236Y633943D01*
X860570Y637164D01*
X863036Y639630D01*
X866257Y640964D01*
X869743Y640964D01*
X872964Y639630D01*
X875430Y637164D01*
X876764Y633943D01*
X876764Y630457D01*
X875430Y627236D01*
X875029Y626836D01*
X874944Y626726D01*
X874855Y626619D01*
X874847Y626600D01*
X874834Y626584D01*
X874779Y626456D01*
X874720Y626331D01*
X874716Y626311D01*
X874708Y626292D01*
X874686Y626154D01*
X874660Y626018D01*
X874661Y625998D01*
X874658Y625978D01*
X874671Y625839D01*
X874680Y625701D01*
X874686Y625682D01*
X874688Y625662D01*
X874735Y625531D01*
X874778Y625399D01*
X874789Y625381D01*
X874796Y625362D01*
X874873Y625248D01*
X874948Y625130D01*
X874963Y625116D01*
X874974Y625099D01*
X875078Y625007D01*
X875180Y624912D01*
X875197Y624902D01*
X875213Y624889D01*
X875336Y624826D01*
X875458Y624758D01*
X875478Y624753D01*
X875496Y624744D01*
X875632Y624714D01*
X875766Y624679D01*
X875794Y624677D01*
X875806Y624674D01*
X875827Y624675D01*
X875927Y624669D01*
X876097Y624669D01*
X878151Y623818D01*
X879723Y622246D01*
X880428Y620544D01*
X880442Y620519D01*
X880451Y620491D01*
X880521Y620381D01*
X880585Y620268D01*
X880606Y620247D01*
X880622Y620222D01*
X880716Y620133D01*
X880806Y620040D01*
X880832Y620024D01*
X880853Y620004D01*
X880967Y619941D01*
X881078Y619873D01*
X881106Y619865D01*
X881132Y619850D01*
X881257Y619818D01*
X881382Y619780D01*
X881411Y619778D01*
X881440Y619771D01*
X881600Y619761D01*
X1029970Y619761D01*
X1030088Y619776D01*
X1030207Y619783D01*
X1030245Y619796D01*
X1030286Y619801D01*
X1030396Y619844D01*
X1030509Y619881D01*
X1030544Y619903D01*
X1030581Y619918D01*
X1030677Y619987D01*
X1030778Y620051D01*
X1030806Y620081D01*
X1030839Y620104D01*
X1030915Y620196D01*
X1030996Y620283D01*
X1031016Y620318D01*
X1031041Y620349D01*
X1031092Y620457D01*
X1031150Y620561D01*
X1031160Y620601D01*
X1031177Y620637D01*
X1031199Y620754D01*
X1031229Y620869D01*
X1031233Y620929D01*
X1031237Y620949D01*
X1031235Y620970D01*
X1031239Y621030D01*
X1031239Y629087D01*
X1031231Y629156D01*
X1031232Y629226D01*
X1031211Y629313D01*
X1031199Y629402D01*
X1031174Y629467D01*
X1031157Y629535D01*
X1031115Y629614D01*
X1031082Y629698D01*
X1031041Y629754D01*
X1031009Y629816D01*
X1030948Y629883D01*
X1030896Y629955D01*
X1030842Y630000D01*
X1030795Y630051D01*
X1030720Y630101D01*
X1030651Y630158D01*
X1030587Y630188D01*
X1030529Y630226D01*
X1030444Y630255D01*
X1030363Y630294D01*
X1030294Y630307D01*
X1030228Y630329D01*
X1030139Y630336D01*
X1030051Y630353D01*
X1029981Y630349D01*
X1029911Y630355D01*
X1029823Y630339D01*
X1029733Y630334D01*
X1029667Y630312D01*
X1029598Y630300D01*
X1029516Y630263D01*
X1029431Y630236D01*
X1029372Y630198D01*
X1029308Y630170D01*
X1029238Y630114D01*
X1029162Y630065D01*
X1029114Y630015D01*
X1029060Y629971D01*
X1029005Y629899D01*
X1028944Y629834D01*
X1028910Y629773D01*
X1028868Y629717D01*
X1028797Y629572D01*
X1027830Y627236D01*
X1025364Y624770D01*
X1022143Y623436D01*
X1018657Y623436D01*
X1015436Y624770D01*
X1012970Y627236D01*
X1011636Y630457D01*
X1011636Y633943D01*
X1012970Y637164D01*
X1015436Y639630D01*
X1018657Y640964D01*
X1022143Y640964D01*
X1025364Y639630D01*
X1027830Y637164D01*
X1028797Y634828D01*
X1028832Y634767D01*
X1028858Y634702D01*
X1028910Y634629D01*
X1028955Y634551D01*
X1029003Y634501D01*
X1029044Y634445D01*
X1029114Y634387D01*
X1029176Y634323D01*
X1029236Y634287D01*
X1029289Y634242D01*
X1029371Y634204D01*
X1029447Y634157D01*
X1029514Y634136D01*
X1029577Y634106D01*
X1029665Y634090D01*
X1029751Y634063D01*
X1029821Y634060D01*
X1029890Y634047D01*
X1029979Y634052D01*
X1030069Y634048D01*
X1030137Y634062D01*
X1030207Y634066D01*
X1030292Y634094D01*
X1030380Y634112D01*
X1030443Y634143D01*
X1030509Y634164D01*
X1030585Y634212D01*
X1030666Y634252D01*
X1030719Y634297D01*
X1030778Y634335D01*
X1030840Y634400D01*
X1030908Y634458D01*
X1030948Y634515D01*
X1030996Y634566D01*
X1031039Y634645D01*
X1031091Y634718D01*
X1031116Y634784D01*
X1031150Y634845D01*
X1031172Y634932D01*
X1031204Y635016D01*
X1031212Y635085D01*
X1031229Y635153D01*
X1031239Y635313D01*
X1031239Y642928D01*
X1033472Y645161D01*
X1062028Y645161D01*
X1064261Y642928D01*
X1064261Y640711D01*
X1064267Y640662D01*
X1064265Y640612D01*
X1064287Y640505D01*
X1064301Y640395D01*
X1064319Y640349D01*
X1064329Y640301D01*
X1064377Y640202D01*
X1064418Y640100D01*
X1064447Y640060D01*
X1064469Y640015D01*
X1064540Y639931D01*
X1064604Y639842D01*
X1064643Y639811D01*
X1064675Y639773D01*
X1064765Y639710D01*
X1064849Y639640D01*
X1064894Y639618D01*
X1064935Y639590D01*
X1065038Y639551D01*
X1065137Y639504D01*
X1065186Y639495D01*
X1065232Y639477D01*
X1065342Y639465D01*
X1065449Y639444D01*
X1065499Y639447D01*
X1065548Y639442D01*
X1065657Y639457D01*
X1065767Y639464D01*
X1065814Y639479D01*
X1065863Y639486D01*
X1066016Y639538D01*
X1069457Y640964D01*
X1072943Y640964D01*
X1076164Y639630D01*
X1078630Y637164D01*
X1079964Y633943D01*
X1079964Y630457D01*
X1078630Y627236D01*
X1076164Y624770D01*
X1072943Y623436D01*
X1069457Y623436D01*
X1066016Y624862D01*
X1065968Y624875D01*
X1065923Y624896D01*
X1065815Y624917D01*
X1065709Y624946D01*
X1065659Y624946D01*
X1065610Y624956D01*
X1065501Y624949D01*
X1065391Y624951D01*
X1065343Y624939D01*
X1065293Y624936D01*
X1065189Y624902D01*
X1065082Y624876D01*
X1065038Y624853D01*
X1064991Y624838D01*
X1064898Y624779D01*
X1064801Y624728D01*
X1064764Y624694D01*
X1064722Y624668D01*
X1064647Y624588D01*
X1064565Y624514D01*
X1064538Y624472D01*
X1064504Y624436D01*
X1064451Y624340D01*
X1064391Y624248D01*
X1064374Y624201D01*
X1064350Y624158D01*
X1064323Y624051D01*
X1064287Y623947D01*
X1064283Y623898D01*
X1064271Y623850D01*
X1064261Y623689D01*
X1064261Y588972D01*
X1062028Y586739D01*
X493722Y586739D01*
G37*
%LPD*%
G36*
X1060568Y589296D02*
X1060568Y589296D01*
X1060687Y589303D01*
X1060725Y589316D01*
X1060766Y589321D01*
X1060876Y589364D01*
X1060989Y589401D01*
X1061024Y589423D01*
X1061061Y589438D01*
X1061157Y589508D01*
X1061258Y589571D01*
X1061286Y589601D01*
X1061319Y589624D01*
X1061395Y589716D01*
X1061476Y589803D01*
X1061496Y589838D01*
X1061521Y589869D01*
X1061572Y589977D01*
X1061630Y590081D01*
X1061640Y590121D01*
X1061657Y590157D01*
X1061679Y590274D01*
X1061709Y590389D01*
X1061713Y590450D01*
X1061717Y590470D01*
X1061715Y590490D01*
X1061719Y590550D01*
X1061719Y641350D01*
X1061704Y641468D01*
X1061697Y641587D01*
X1061684Y641625D01*
X1061679Y641666D01*
X1061636Y641776D01*
X1061599Y641889D01*
X1061577Y641924D01*
X1061562Y641961D01*
X1061493Y642057D01*
X1061429Y642158D01*
X1061399Y642186D01*
X1061376Y642219D01*
X1061284Y642295D01*
X1061197Y642376D01*
X1061162Y642396D01*
X1061131Y642421D01*
X1061023Y642472D01*
X1060919Y642530D01*
X1060879Y642540D01*
X1060843Y642557D01*
X1060726Y642579D01*
X1060611Y642609D01*
X1060551Y642613D01*
X1060531Y642617D01*
X1060510Y642615D01*
X1060450Y642619D01*
X1049927Y642619D01*
X1049858Y642611D01*
X1049788Y642612D01*
X1049701Y642591D01*
X1049612Y642579D01*
X1049547Y642554D01*
X1049479Y642537D01*
X1049400Y642495D01*
X1049316Y642462D01*
X1049260Y642421D01*
X1049198Y642389D01*
X1049132Y642328D01*
X1049059Y642276D01*
X1049014Y642222D01*
X1048963Y642175D01*
X1048913Y642100D01*
X1048856Y642031D01*
X1048826Y641967D01*
X1048788Y641909D01*
X1048759Y641824D01*
X1048720Y641743D01*
X1048707Y641674D01*
X1048685Y641608D01*
X1048678Y641519D01*
X1048661Y641431D01*
X1048665Y641361D01*
X1048659Y641291D01*
X1048675Y641203D01*
X1048680Y641113D01*
X1048702Y641047D01*
X1048714Y640978D01*
X1048751Y640896D01*
X1048778Y640811D01*
X1048816Y640752D01*
X1048844Y640688D01*
X1048900Y640618D01*
X1048949Y640542D01*
X1048999Y640494D01*
X1049043Y640440D01*
X1049115Y640385D01*
X1049180Y640324D01*
X1049241Y640290D01*
X1049297Y640248D01*
X1049442Y640177D01*
X1049951Y639966D01*
X1051387Y639007D01*
X1052607Y637787D01*
X1053566Y636351D01*
X1054227Y634756D01*
X1054293Y634422D01*
X1046753Y634422D01*
X1046634Y634407D01*
X1046516Y634399D01*
X1046477Y634387D01*
X1046437Y634382D01*
X1046326Y634338D01*
X1046213Y634301D01*
X1046179Y634280D01*
X1046141Y634265D01*
X1046045Y634195D01*
X1045945Y634131D01*
X1045917Y634102D01*
X1045884Y634078D01*
X1045808Y633986D01*
X1045804Y633982D01*
X1045797Y633988D01*
X1045773Y634021D01*
X1045681Y634097D01*
X1045594Y634179D01*
X1045559Y634198D01*
X1045528Y634224D01*
X1045420Y634275D01*
X1045316Y634332D01*
X1045277Y634342D01*
X1045240Y634359D01*
X1045123Y634382D01*
X1045008Y634412D01*
X1044948Y634415D01*
X1044928Y634419D01*
X1044907Y634418D01*
X1044847Y634422D01*
X1037307Y634422D01*
X1037373Y634756D01*
X1038034Y636351D01*
X1038993Y637787D01*
X1040213Y639007D01*
X1041649Y639966D01*
X1042158Y640177D01*
X1042211Y640208D01*
X1042212Y640208D01*
X1042219Y640212D01*
X1042284Y640238D01*
X1042356Y640290D01*
X1042435Y640335D01*
X1042485Y640383D01*
X1042541Y640424D01*
X1042599Y640494D01*
X1042663Y640556D01*
X1042699Y640616D01*
X1042744Y640669D01*
X1042782Y640751D01*
X1042829Y640827D01*
X1042850Y640894D01*
X1042880Y640957D01*
X1042896Y641045D01*
X1042923Y641131D01*
X1042926Y641201D01*
X1042939Y641270D01*
X1042934Y641359D01*
X1042938Y641449D01*
X1042924Y641517D01*
X1042920Y641587D01*
X1042892Y641672D01*
X1042874Y641760D01*
X1042843Y641823D01*
X1042822Y641889D01*
X1042774Y641965D01*
X1042734Y642046D01*
X1042689Y642099D01*
X1042651Y642158D01*
X1042586Y642220D01*
X1042528Y642288D01*
X1042471Y642328D01*
X1042420Y642376D01*
X1042341Y642419D01*
X1042268Y642471D01*
X1042202Y642496D01*
X1042141Y642530D01*
X1042054Y642552D01*
X1041970Y642584D01*
X1041901Y642592D01*
X1041833Y642609D01*
X1041673Y642619D01*
X1035050Y642619D01*
X1034932Y642604D01*
X1034813Y642597D01*
X1034775Y642584D01*
X1034734Y642579D01*
X1034624Y642536D01*
X1034511Y642499D01*
X1034476Y642477D01*
X1034439Y642462D01*
X1034343Y642393D01*
X1034242Y642329D01*
X1034214Y642299D01*
X1034181Y642276D01*
X1034106Y642184D01*
X1034024Y642097D01*
X1034004Y642062D01*
X1033979Y642031D01*
X1033928Y641923D01*
X1033870Y641819D01*
X1033860Y641779D01*
X1033843Y641743D01*
X1033821Y641626D01*
X1033791Y641511D01*
X1033787Y641451D01*
X1033783Y641431D01*
X1033785Y641410D01*
X1033784Y641406D01*
X1033783Y641401D01*
X1033784Y641395D01*
X1033781Y641350D01*
X1033781Y617219D01*
X881112Y617219D01*
X881082Y617216D01*
X881053Y617218D01*
X880925Y617196D01*
X880796Y617179D01*
X880768Y617169D01*
X880739Y617163D01*
X880621Y617110D01*
X880500Y617062D01*
X880476Y617045D01*
X880449Y617033D01*
X880348Y616952D01*
X880243Y616876D01*
X880224Y616853D01*
X880201Y616834D01*
X880123Y616730D01*
X880040Y616631D01*
X880028Y616604D01*
X880010Y616580D01*
X879939Y616436D01*
X879723Y615914D01*
X878151Y614342D01*
X876097Y613491D01*
X873873Y613491D01*
X871819Y614342D01*
X870247Y615914D01*
X870031Y616436D01*
X870020Y616456D01*
X870014Y616474D01*
X870011Y616479D01*
X870007Y616489D01*
X869938Y616599D01*
X869874Y616712D01*
X869853Y616733D01*
X869837Y616758D01*
X869743Y616847D01*
X869652Y616940D01*
X869627Y616956D01*
X869606Y616976D01*
X869492Y617039D01*
X869381Y617107D01*
X869353Y617115D01*
X869327Y617130D01*
X869202Y617162D01*
X869077Y617200D01*
X869048Y617202D01*
X869019Y617209D01*
X868858Y617219D01*
X553719Y617219D01*
X553719Y836931D01*
X647700Y836931D01*
X647818Y836946D01*
X647937Y836953D01*
X647975Y836966D01*
X648016Y836971D01*
X648126Y837014D01*
X648239Y837051D01*
X648274Y837073D01*
X648311Y837088D01*
X648407Y837158D01*
X648508Y837221D01*
X648536Y837251D01*
X648569Y837274D01*
X648645Y837366D01*
X648726Y837453D01*
X648746Y837488D01*
X648771Y837519D01*
X648822Y837627D01*
X648880Y837731D01*
X648890Y837771D01*
X648907Y837807D01*
X648929Y837924D01*
X648959Y838039D01*
X648963Y838100D01*
X648967Y838120D01*
X648965Y838140D01*
X648969Y838200D01*
X648969Y869950D01*
X648954Y870068D01*
X648947Y870187D01*
X648934Y870225D01*
X648929Y870266D01*
X648886Y870376D01*
X648849Y870489D01*
X648827Y870524D01*
X648812Y870561D01*
X648743Y870657D01*
X648679Y870758D01*
X648649Y870786D01*
X648626Y870819D01*
X648534Y870895D01*
X648447Y870976D01*
X648412Y870996D01*
X648381Y871021D01*
X648273Y871072D01*
X648169Y871130D01*
X648129Y871140D01*
X648093Y871157D01*
X647976Y871179D01*
X647861Y871209D01*
X647801Y871213D01*
X647781Y871217D01*
X647760Y871215D01*
X647700Y871219D01*
X643085Y871219D01*
X643070Y871217D01*
X643055Y871219D01*
X642912Y871197D01*
X642769Y871179D01*
X642755Y871174D01*
X642741Y871172D01*
X642607Y871115D01*
X642473Y871062D01*
X642461Y871054D01*
X642448Y871048D01*
X642333Y870960D01*
X642216Y870876D01*
X642207Y870864D01*
X642195Y870855D01*
X642105Y870742D01*
X642013Y870631D01*
X642007Y870617D01*
X641998Y870606D01*
X641939Y870473D01*
X641878Y870343D01*
X641875Y870328D01*
X641869Y870315D01*
X641845Y870172D01*
X641818Y870031D01*
X641819Y870016D01*
X641816Y870001D01*
X641829Y869857D01*
X641838Y869713D01*
X641842Y869699D01*
X641843Y869684D01*
X641891Y869548D01*
X641936Y869411D01*
X641944Y869398D01*
X641948Y869384D01*
X642029Y869245D01*
X642959Y867854D01*
X643636Y866220D01*
X643699Y865899D01*
X636030Y865899D01*
X635912Y865884D01*
X635793Y865877D01*
X635755Y865864D01*
X635715Y865859D01*
X635604Y865816D01*
X635491Y865779D01*
X635457Y865757D01*
X635419Y865742D01*
X635323Y865673D01*
X635222Y865609D01*
X635194Y865579D01*
X635162Y865556D01*
X635086Y865464D01*
X635004Y865377D01*
X634996Y865363D01*
X634949Y865438D01*
X634919Y865466D01*
X634895Y865499D01*
X634804Y865575D01*
X634717Y865656D01*
X634682Y865676D01*
X634650Y865701D01*
X634543Y865752D01*
X634438Y865810D01*
X634399Y865820D01*
X634363Y865837D01*
X634246Y865859D01*
X634130Y865889D01*
X634070Y865893D01*
X634050Y865897D01*
X634030Y865895D01*
X633970Y865899D01*
X626301Y865899D01*
X626364Y866220D01*
X627041Y867854D01*
X627971Y869245D01*
X627977Y869258D01*
X627987Y869269D01*
X628048Y869400D01*
X628113Y869529D01*
X628116Y869544D01*
X628122Y869557D01*
X628149Y869698D01*
X628180Y869840D01*
X628179Y869855D01*
X628182Y869870D01*
X628173Y870013D01*
X628168Y870158D01*
X628163Y870172D01*
X628162Y870187D01*
X628118Y870324D01*
X628077Y870463D01*
X628069Y870475D01*
X628064Y870489D01*
X627987Y870612D01*
X627913Y870735D01*
X627902Y870746D01*
X627894Y870758D01*
X627789Y870857D01*
X627686Y870958D01*
X627673Y870966D01*
X627663Y870976D01*
X627536Y871046D01*
X627411Y871118D01*
X627397Y871122D01*
X627384Y871130D01*
X627244Y871166D01*
X627105Y871205D01*
X627090Y871205D01*
X627076Y871209D01*
X626915Y871219D01*
X495300Y871219D01*
X495182Y871204D01*
X495063Y871197D01*
X495025Y871184D01*
X494984Y871179D01*
X494874Y871136D01*
X494761Y871099D01*
X494726Y871077D01*
X494689Y871062D01*
X494593Y870993D01*
X494492Y870929D01*
X494464Y870899D01*
X494431Y870876D01*
X494356Y870784D01*
X494274Y870697D01*
X494254Y870662D01*
X494229Y870631D01*
X494178Y870523D01*
X494120Y870419D01*
X494110Y870379D01*
X494093Y870343D01*
X494071Y870226D01*
X494041Y870111D01*
X494037Y870051D01*
X494033Y870031D01*
X494035Y870010D01*
X494031Y869950D01*
X494031Y590550D01*
X494046Y590432D01*
X494053Y590313D01*
X494066Y590275D01*
X494071Y590234D01*
X494114Y590124D01*
X494151Y590011D01*
X494173Y589976D01*
X494188Y589939D01*
X494258Y589843D01*
X494321Y589742D01*
X494351Y589714D01*
X494374Y589681D01*
X494466Y589606D01*
X494553Y589524D01*
X494588Y589504D01*
X494619Y589479D01*
X494727Y589428D01*
X494831Y589370D01*
X494871Y589360D01*
X494907Y589343D01*
X495024Y589321D01*
X495139Y589291D01*
X495200Y589287D01*
X495220Y589283D01*
X495240Y589285D01*
X495300Y589281D01*
X1060450Y589281D01*
X1060568Y589296D01*
G37*
%LPC*%
G36*
X1214526Y27304D02*
X1214526Y27304D01*
X1205891Y30881D01*
X1199281Y37491D01*
X1195704Y46126D01*
X1195704Y55474D01*
X1199281Y64109D01*
X1205891Y70719D01*
X1214526Y74296D01*
X1223874Y74296D01*
X1232509Y70719D01*
X1239119Y64109D01*
X1242696Y55474D01*
X1242696Y46126D01*
X1239119Y37491D01*
X1232509Y30881D01*
X1223874Y27304D01*
X1214526Y27304D01*
G37*
%LPD*%
%LPC*%
G36*
X1214526Y941704D02*
X1214526Y941704D01*
X1205891Y945281D01*
X1199281Y951891D01*
X1195704Y960526D01*
X1195704Y969874D01*
X1199281Y978509D01*
X1205891Y985119D01*
X1214526Y988696D01*
X1223874Y988696D01*
X1232509Y985119D01*
X1239119Y978509D01*
X1242696Y969874D01*
X1242696Y960526D01*
X1239119Y951891D01*
X1232509Y945281D01*
X1223874Y941704D01*
X1214526Y941704D01*
G37*
%LPD*%
%LPC*%
G36*
X46126Y27304D02*
X46126Y27304D01*
X37491Y30881D01*
X30881Y37491D01*
X27304Y46126D01*
X27304Y55474D01*
X30881Y64109D01*
X37491Y70719D01*
X46126Y74296D01*
X55474Y74296D01*
X64109Y70719D01*
X70719Y64109D01*
X74296Y55474D01*
X74296Y46126D01*
X70719Y37491D01*
X64109Y30881D01*
X55474Y27304D01*
X46126Y27304D01*
G37*
%LPD*%
%LPC*%
G36*
X46126Y941704D02*
X46126Y941704D01*
X37491Y945281D01*
X30881Y951891D01*
X27304Y960526D01*
X27304Y969874D01*
X30881Y978509D01*
X37491Y985119D01*
X46126Y988696D01*
X55474Y988696D01*
X64109Y985119D01*
X70719Y978509D01*
X74296Y969874D01*
X74296Y960526D01*
X70719Y951891D01*
X64109Y945281D01*
X55474Y941704D01*
X46126Y941704D01*
G37*
%LPD*%
%LPC*%
G36*
X1011500Y174229D02*
X1011500Y174229D01*
X1003186Y177673D01*
X996823Y184036D01*
X993379Y192350D01*
X993379Y201350D01*
X996823Y209664D01*
X1003186Y216027D01*
X1011500Y219471D01*
X1020500Y219471D01*
X1028814Y216027D01*
X1035177Y209664D01*
X1038621Y201350D01*
X1038621Y192350D01*
X1035177Y184036D01*
X1028814Y177673D01*
X1020500Y174229D01*
X1011500Y174229D01*
G37*
%LPD*%
%LPC*%
G36*
X249500Y174229D02*
X249500Y174229D01*
X241186Y177673D01*
X234823Y184036D01*
X231379Y192350D01*
X231379Y201350D01*
X234823Y209664D01*
X241186Y216027D01*
X249500Y219471D01*
X258500Y219471D01*
X266814Y216027D01*
X273177Y209664D01*
X276621Y201350D01*
X276621Y192350D01*
X273177Y184036D01*
X266814Y177673D01*
X258500Y174229D01*
X249500Y174229D01*
G37*
%LPD*%
%LPC*%
G36*
X1011500Y745729D02*
X1011500Y745729D01*
X1003186Y749173D01*
X996823Y755536D01*
X993379Y763850D01*
X993379Y772850D01*
X996823Y781164D01*
X1003186Y787527D01*
X1011500Y790971D01*
X1020500Y790971D01*
X1028814Y787527D01*
X1035177Y781164D01*
X1038621Y772850D01*
X1038621Y763850D01*
X1035177Y755536D01*
X1028814Y749173D01*
X1020500Y745729D01*
X1011500Y745729D01*
G37*
%LPD*%
%LPC*%
G36*
X249500Y745729D02*
X249500Y745729D01*
X241186Y749173D01*
X234823Y755536D01*
X231379Y763850D01*
X231379Y772850D01*
X234823Y781164D01*
X241186Y787527D01*
X249500Y790971D01*
X258500Y790971D01*
X266814Y787527D01*
X273177Y781164D01*
X276621Y772850D01*
X276621Y763850D01*
X273177Y755536D01*
X266814Y749173D01*
X258500Y745729D01*
X249500Y745729D01*
G37*
%LPD*%
%LPC*%
G36*
X731992Y872059D02*
X731992Y872059D01*
X725141Y874897D01*
X719897Y880141D01*
X717059Y886992D01*
X717059Y894408D01*
X719897Y901259D01*
X725141Y906503D01*
X731992Y909341D01*
X739408Y909341D01*
X746259Y906503D01*
X751503Y901259D01*
X754341Y894408D01*
X754341Y886992D01*
X751503Y880141D01*
X746259Y874897D01*
X739408Y872059D01*
X731992Y872059D01*
G37*
%LPD*%
%LPC*%
G36*
X1164608Y105759D02*
X1164608Y105759D01*
X1159080Y108049D01*
X1154849Y112280D01*
X1152559Y117808D01*
X1152559Y123792D01*
X1154849Y129320D01*
X1159080Y133551D01*
X1164608Y135841D01*
X1170592Y135841D01*
X1176120Y133551D01*
X1180351Y129320D01*
X1182641Y123792D01*
X1182641Y117808D01*
X1180351Y112280D01*
X1176120Y108049D01*
X1170592Y105759D01*
X1164608Y105759D01*
G37*
%LPD*%
%LPC*%
G36*
X1064608Y105759D02*
X1064608Y105759D01*
X1059080Y108049D01*
X1054849Y112280D01*
X1052559Y117808D01*
X1052559Y123792D01*
X1054849Y129320D01*
X1059080Y133551D01*
X1064608Y135841D01*
X1070592Y135841D01*
X1076120Y133551D01*
X1080351Y129320D01*
X1082641Y123792D01*
X1082641Y117808D01*
X1080351Y112280D01*
X1076120Y108049D01*
X1070592Y105759D01*
X1064608Y105759D01*
G37*
%LPD*%
%LPC*%
G36*
X199408Y105759D02*
X199408Y105759D01*
X193880Y108049D01*
X189649Y112280D01*
X187359Y117808D01*
X187359Y123792D01*
X189649Y129320D01*
X193880Y133551D01*
X199408Y135841D01*
X205392Y135841D01*
X210920Y133551D01*
X215151Y129320D01*
X217441Y123792D01*
X217441Y117808D01*
X215151Y112280D01*
X210920Y108049D01*
X205392Y105759D01*
X199408Y105759D01*
G37*
%LPD*%
%LPC*%
G36*
X99408Y105759D02*
X99408Y105759D01*
X93880Y108049D01*
X89649Y112280D01*
X87359Y117808D01*
X87359Y123792D01*
X89649Y129320D01*
X93880Y133551D01*
X99408Y135841D01*
X105392Y135841D01*
X110920Y133551D01*
X115151Y129320D01*
X117441Y123792D01*
X117441Y117808D01*
X115151Y112280D01*
X110920Y108049D01*
X105392Y105759D01*
X99408Y105759D01*
G37*
%LPD*%
%LPC*%
G36*
X1052645Y800859D02*
X1052645Y800859D01*
X1048110Y802738D01*
X1044638Y806210D01*
X1043871Y808061D01*
X1043847Y808104D01*
X1043830Y808151D01*
X1043768Y808242D01*
X1043714Y808337D01*
X1043679Y808373D01*
X1043651Y808414D01*
X1043569Y808486D01*
X1043492Y808565D01*
X1043450Y808591D01*
X1043413Y808624D01*
X1043315Y808674D01*
X1043221Y808732D01*
X1043174Y808746D01*
X1043130Y808769D01*
X1043022Y808793D01*
X1042917Y808825D01*
X1042868Y808828D01*
X1042819Y808839D01*
X1042710Y808835D01*
X1042600Y808840D01*
X1042551Y808830D01*
X1042501Y808829D01*
X1042396Y808798D01*
X1042288Y808776D01*
X1042244Y808754D01*
X1042196Y808740D01*
X1042101Y808685D01*
X1042003Y808636D01*
X1041965Y808604D01*
X1041922Y808579D01*
X1041801Y808472D01*
X1040756Y807427D01*
X1038702Y806576D01*
X1036478Y806576D01*
X1034424Y807427D01*
X1032852Y808999D01*
X1032001Y811053D01*
X1032001Y813277D01*
X1032852Y815331D01*
X1034424Y816903D01*
X1036478Y817754D01*
X1038702Y817754D01*
X1040756Y816903D01*
X1041195Y816464D01*
X1041234Y816433D01*
X1041268Y816397D01*
X1041359Y816336D01*
X1041446Y816269D01*
X1041492Y816249D01*
X1041533Y816222D01*
X1041637Y816186D01*
X1041738Y816143D01*
X1041787Y816135D01*
X1041834Y816119D01*
X1041943Y816110D01*
X1042052Y816093D01*
X1042102Y816097D01*
X1042151Y816093D01*
X1042259Y816112D01*
X1042369Y816122D01*
X1042415Y816139D01*
X1042464Y816148D01*
X1042565Y816193D01*
X1042668Y816230D01*
X1042709Y816258D01*
X1042754Y816278D01*
X1042840Y816347D01*
X1042931Y816409D01*
X1042964Y816446D01*
X1043003Y816477D01*
X1043069Y816565D01*
X1043142Y816647D01*
X1043164Y816691D01*
X1043194Y816731D01*
X1043265Y816876D01*
X1044638Y820190D01*
X1048110Y823662D01*
X1052645Y825541D01*
X1057555Y825541D01*
X1062090Y823662D01*
X1065562Y820190D01*
X1067441Y815655D01*
X1067441Y810745D01*
X1065562Y806210D01*
X1062090Y802738D01*
X1057555Y800859D01*
X1052645Y800859D01*
G37*
%LPD*%
%LPC*%
G36*
X1177645Y800859D02*
X1177645Y800859D01*
X1173110Y802738D01*
X1169638Y806210D01*
X1167759Y810745D01*
X1167759Y815655D01*
X1169638Y820190D01*
X1173110Y823662D01*
X1177645Y825541D01*
X1182555Y825541D01*
X1187090Y823662D01*
X1190562Y820190D01*
X1192441Y815655D01*
X1192441Y810745D01*
X1190562Y806210D01*
X1187090Y802738D01*
X1182555Y800859D01*
X1177645Y800859D01*
G37*
%LPD*%
%LPC*%
G36*
X87445Y800859D02*
X87445Y800859D01*
X82910Y802738D01*
X79438Y806210D01*
X77559Y810745D01*
X77559Y815655D01*
X79438Y820190D01*
X82910Y823662D01*
X87445Y825541D01*
X92355Y825541D01*
X96890Y823662D01*
X100362Y820190D01*
X102241Y815655D01*
X102241Y810745D01*
X100362Y806210D01*
X96890Y802738D01*
X92355Y800859D01*
X87445Y800859D01*
G37*
%LPD*%
%LPC*%
G36*
X212445Y850859D02*
X212445Y850859D01*
X207910Y852738D01*
X204438Y856210D01*
X202559Y860745D01*
X202559Y865655D01*
X204438Y870190D01*
X207910Y873662D01*
X212445Y875541D01*
X217355Y875541D01*
X221890Y873662D01*
X225362Y870190D01*
X227241Y865655D01*
X227241Y860745D01*
X225362Y856210D01*
X221890Y852738D01*
X217355Y850859D01*
X212445Y850859D01*
G37*
%LPD*%
%LPC*%
G36*
X87445Y850859D02*
X87445Y850859D01*
X82910Y852738D01*
X79438Y856210D01*
X77559Y860745D01*
X77559Y865655D01*
X79438Y870190D01*
X82910Y873662D01*
X87445Y875541D01*
X92355Y875541D01*
X96890Y873662D01*
X100362Y870190D01*
X102241Y865655D01*
X102241Y860745D01*
X100362Y856210D01*
X96890Y852738D01*
X92355Y850859D01*
X87445Y850859D01*
G37*
%LPD*%
%LPC*%
G36*
X1052645Y850859D02*
X1052645Y850859D01*
X1048110Y852738D01*
X1044638Y856210D01*
X1042759Y860745D01*
X1042759Y865655D01*
X1044638Y870190D01*
X1048110Y873662D01*
X1052645Y875541D01*
X1057555Y875541D01*
X1062090Y873662D01*
X1065562Y870190D01*
X1067441Y865655D01*
X1067441Y860745D01*
X1065562Y856210D01*
X1062090Y852738D01*
X1057555Y850859D01*
X1052645Y850859D01*
G37*
%LPD*%
%LPC*%
G36*
X212445Y800859D02*
X212445Y800859D01*
X207910Y802738D01*
X204438Y806210D01*
X202559Y810745D01*
X202559Y815655D01*
X204438Y820190D01*
X207910Y823662D01*
X212445Y825541D01*
X217355Y825541D01*
X221890Y823662D01*
X225362Y820190D01*
X227241Y815655D01*
X227241Y810745D01*
X225362Y806210D01*
X221890Y802738D01*
X217355Y800859D01*
X212445Y800859D01*
G37*
%LPD*%
%LPC*%
G36*
X1177645Y850859D02*
X1177645Y850859D01*
X1173110Y852738D01*
X1169638Y856210D01*
X1167759Y860745D01*
X1167759Y865655D01*
X1169638Y870190D01*
X1173110Y873662D01*
X1177645Y875541D01*
X1182555Y875541D01*
X1187090Y873662D01*
X1190562Y870190D01*
X1192441Y865655D01*
X1192441Y860745D01*
X1190562Y856210D01*
X1187090Y852738D01*
X1182555Y850859D01*
X1177645Y850859D01*
G37*
%LPD*%
%LPC*%
G36*
X1141888Y35051D02*
X1141888Y35051D01*
X1139834Y35902D01*
X1138262Y37474D01*
X1137411Y39528D01*
X1137411Y41970D01*
X1137399Y42069D01*
X1137396Y42168D01*
X1137379Y42226D01*
X1137371Y42286D01*
X1137335Y42378D01*
X1137307Y42473D01*
X1137277Y42525D01*
X1137254Y42582D01*
X1137196Y42662D01*
X1137146Y42747D01*
X1137080Y42822D01*
X1137068Y42839D01*
X1137058Y42847D01*
X1137040Y42868D01*
X1134512Y45396D01*
X1133059Y48902D01*
X1133059Y52698D01*
X1134512Y56204D01*
X1137196Y58888D01*
X1140702Y60341D01*
X1144498Y60341D01*
X1148004Y58888D01*
X1150688Y56204D01*
X1152141Y52698D01*
X1152141Y48902D01*
X1150688Y45396D01*
X1148736Y43443D01*
X1148718Y43420D01*
X1148695Y43401D01*
X1148621Y43295D01*
X1148541Y43192D01*
X1148529Y43165D01*
X1148512Y43141D01*
X1148466Y43020D01*
X1148415Y42900D01*
X1148410Y42871D01*
X1148400Y42844D01*
X1148385Y42715D01*
X1148365Y42586D01*
X1148368Y42557D01*
X1148364Y42527D01*
X1148383Y42399D01*
X1148395Y42270D01*
X1148405Y42242D01*
X1148409Y42213D01*
X1148461Y42060D01*
X1148589Y41752D01*
X1148589Y39528D01*
X1147738Y37474D01*
X1146166Y35902D01*
X1144112Y35051D01*
X1141888Y35051D01*
G37*
%LPD*%
%LPC*%
G36*
X252102Y587359D02*
X252102Y587359D01*
X248596Y588812D01*
X245912Y591496D01*
X244459Y595002D01*
X244459Y598798D01*
X245912Y602304D01*
X248596Y604988D01*
X252102Y606441D01*
X255898Y606441D01*
X259404Y604988D01*
X262088Y602304D01*
X263541Y598798D01*
X263541Y595002D01*
X262088Y591496D01*
X259404Y588812D01*
X255898Y587359D01*
X252102Y587359D01*
G37*
%LPD*%
%LPC*%
G36*
X125502Y41259D02*
X125502Y41259D01*
X121996Y42712D01*
X119312Y45396D01*
X117859Y48902D01*
X117859Y52698D01*
X119312Y56204D01*
X121996Y58888D01*
X125502Y60341D01*
X129298Y60341D01*
X132804Y58888D01*
X135488Y56204D01*
X136941Y52698D01*
X136941Y48902D01*
X135488Y45396D01*
X132804Y42712D01*
X129298Y41259D01*
X125502Y41259D01*
G37*
%LPD*%
%LPC*%
G36*
X150502Y41259D02*
X150502Y41259D01*
X146996Y42712D01*
X144312Y45396D01*
X142859Y48902D01*
X142859Y52698D01*
X144312Y56204D01*
X146996Y58888D01*
X150502Y60341D01*
X154298Y60341D01*
X157804Y58888D01*
X160488Y56204D01*
X161941Y52698D01*
X161941Y48902D01*
X160488Y45396D01*
X157804Y42712D01*
X154298Y41259D01*
X150502Y41259D01*
G37*
%LPD*%
%LPC*%
G36*
X252102Y663559D02*
X252102Y663559D01*
X248596Y665012D01*
X245912Y667696D01*
X244459Y671202D01*
X244459Y674998D01*
X245912Y678504D01*
X248596Y681188D01*
X252102Y682641D01*
X255898Y682641D01*
X259404Y681188D01*
X262088Y678504D01*
X263541Y674998D01*
X263541Y671202D01*
X262088Y667696D01*
X259404Y665012D01*
X255898Y663559D01*
X252102Y663559D01*
G37*
%LPD*%
%LPC*%
G36*
X175502Y41259D02*
X175502Y41259D01*
X171996Y42712D01*
X169312Y45396D01*
X167859Y48902D01*
X167859Y52698D01*
X169312Y56204D01*
X171996Y58888D01*
X175502Y60341D01*
X179298Y60341D01*
X182804Y58888D01*
X185488Y56204D01*
X186941Y52698D01*
X186941Y48902D01*
X185488Y45396D01*
X182804Y42712D01*
X179298Y41259D01*
X175502Y41259D01*
G37*
%LPD*%
%LPC*%
G36*
X1090702Y41259D02*
X1090702Y41259D01*
X1087196Y42712D01*
X1084512Y45396D01*
X1083059Y48902D01*
X1083059Y52698D01*
X1084512Y56204D01*
X1087196Y58888D01*
X1090702Y60341D01*
X1094498Y60341D01*
X1098004Y58888D01*
X1100688Y56204D01*
X1102141Y52698D01*
X1102141Y48902D01*
X1100688Y45396D01*
X1098004Y42712D01*
X1094498Y41259D01*
X1090702Y41259D01*
G37*
%LPD*%
%LPC*%
G36*
X1115702Y41259D02*
X1115702Y41259D01*
X1112196Y42712D01*
X1109512Y45396D01*
X1108059Y48902D01*
X1108059Y52698D01*
X1109512Y56204D01*
X1112196Y58888D01*
X1115702Y60341D01*
X1119498Y60341D01*
X1123004Y58888D01*
X1125688Y56204D01*
X1127141Y52698D01*
X1127141Y48902D01*
X1125688Y45396D01*
X1123004Y42712D01*
X1119498Y41259D01*
X1115702Y41259D01*
G37*
%LPD*%
%LPC*%
G36*
X252102Y612759D02*
X252102Y612759D01*
X248596Y614212D01*
X245912Y616896D01*
X244459Y620402D01*
X244459Y624198D01*
X245912Y627704D01*
X248596Y630388D01*
X252102Y631841D01*
X255898Y631841D01*
X259404Y630388D01*
X262088Y627704D01*
X263541Y624198D01*
X263541Y620402D01*
X262088Y616896D01*
X259404Y614212D01*
X255898Y612759D01*
X252102Y612759D01*
G37*
%LPD*%
%LPC*%
G36*
X252102Y714359D02*
X252102Y714359D01*
X248596Y715812D01*
X245912Y718496D01*
X244459Y722002D01*
X244459Y725798D01*
X245912Y729304D01*
X248596Y731988D01*
X252102Y733441D01*
X255898Y733441D01*
X259404Y731988D01*
X262088Y729304D01*
X263541Y725798D01*
X263541Y722002D01*
X262088Y718496D01*
X259404Y715812D01*
X255898Y714359D01*
X252102Y714359D01*
G37*
%LPD*%
%LPC*%
G36*
X252102Y231759D02*
X252102Y231759D01*
X248596Y233212D01*
X245912Y235896D01*
X244459Y239402D01*
X244459Y243198D01*
X245912Y246704D01*
X248596Y249388D01*
X252102Y250841D01*
X255898Y250841D01*
X259404Y249388D01*
X262088Y246704D01*
X263541Y243198D01*
X263541Y239402D01*
X262088Y235896D01*
X259404Y233212D01*
X255898Y231759D01*
X252102Y231759D01*
G37*
%LPD*%
%LPC*%
G36*
X252102Y257159D02*
X252102Y257159D01*
X248596Y258612D01*
X245912Y261296D01*
X244459Y264802D01*
X244459Y268598D01*
X245912Y272104D01*
X248596Y274788D01*
X252102Y276241D01*
X255898Y276241D01*
X259404Y274788D01*
X262088Y272104D01*
X263541Y268598D01*
X263541Y264802D01*
X262088Y261296D01*
X259404Y258612D01*
X255898Y257159D01*
X252102Y257159D01*
G37*
%LPD*%
%LPC*%
G36*
X252102Y282559D02*
X252102Y282559D01*
X248596Y284012D01*
X245912Y286696D01*
X244459Y290202D01*
X244459Y293998D01*
X245912Y297504D01*
X248596Y300188D01*
X252102Y301641D01*
X255898Y301641D01*
X259404Y300188D01*
X262088Y297504D01*
X263541Y293998D01*
X263541Y290202D01*
X262088Y286696D01*
X259404Y284012D01*
X255898Y282559D01*
X252102Y282559D01*
G37*
%LPD*%
%LPC*%
G36*
X252102Y307959D02*
X252102Y307959D01*
X248596Y309412D01*
X245912Y312096D01*
X244459Y315602D01*
X244459Y319398D01*
X245912Y322904D01*
X248596Y325588D01*
X252102Y327041D01*
X255898Y327041D01*
X259404Y325588D01*
X262088Y322904D01*
X263541Y319398D01*
X263541Y315602D01*
X262088Y312096D01*
X259404Y309412D01*
X255898Y307959D01*
X252102Y307959D01*
G37*
%LPD*%
%LPC*%
G36*
X252102Y333359D02*
X252102Y333359D01*
X248596Y334812D01*
X245912Y337496D01*
X244459Y341002D01*
X244459Y344798D01*
X245912Y348304D01*
X248596Y350988D01*
X252102Y352441D01*
X255898Y352441D01*
X259404Y350988D01*
X262088Y348304D01*
X263541Y344798D01*
X263541Y341002D01*
X262088Y337496D01*
X259404Y334812D01*
X255898Y333359D01*
X252102Y333359D01*
G37*
%LPD*%
%LPC*%
G36*
X252102Y358759D02*
X252102Y358759D01*
X248596Y360212D01*
X245912Y362896D01*
X244459Y366402D01*
X244459Y370198D01*
X245912Y373704D01*
X248596Y376388D01*
X252102Y377841D01*
X255898Y377841D01*
X259404Y376388D01*
X262088Y373704D01*
X263541Y370198D01*
X263541Y366402D01*
X262088Y362896D01*
X259404Y360212D01*
X255898Y358759D01*
X252102Y358759D01*
G37*
%LPD*%
%LPC*%
G36*
X252102Y384159D02*
X252102Y384159D01*
X248596Y385612D01*
X245912Y388296D01*
X244459Y391802D01*
X244459Y395598D01*
X245912Y399104D01*
X248596Y401788D01*
X252102Y403241D01*
X255898Y403241D01*
X259404Y401788D01*
X262088Y399104D01*
X263541Y395598D01*
X263541Y391802D01*
X262088Y388296D01*
X259404Y385612D01*
X255898Y384159D01*
X252102Y384159D01*
G37*
%LPD*%
%LPC*%
G36*
X252102Y409559D02*
X252102Y409559D01*
X248596Y411012D01*
X245912Y413696D01*
X244459Y417202D01*
X244459Y420998D01*
X245912Y424504D01*
X248596Y427188D01*
X252102Y428641D01*
X255898Y428641D01*
X259404Y427188D01*
X262088Y424504D01*
X263541Y420998D01*
X263541Y417202D01*
X262088Y413696D01*
X259404Y411012D01*
X255898Y409559D01*
X252102Y409559D01*
G37*
%LPD*%
%LPC*%
G36*
X252102Y434959D02*
X252102Y434959D01*
X248596Y436412D01*
X245912Y439096D01*
X244459Y442602D01*
X244459Y446398D01*
X245912Y449904D01*
X248596Y452588D01*
X252102Y454041D01*
X255898Y454041D01*
X259404Y452588D01*
X262088Y449904D01*
X263541Y446398D01*
X263541Y442602D01*
X262088Y439096D01*
X259404Y436412D01*
X255898Y434959D01*
X252102Y434959D01*
G37*
%LPD*%
%LPC*%
G36*
X252102Y460359D02*
X252102Y460359D01*
X248596Y461812D01*
X245912Y464496D01*
X244459Y468002D01*
X244459Y471798D01*
X245912Y475304D01*
X248596Y477988D01*
X252102Y479441D01*
X255898Y479441D01*
X259404Y477988D01*
X262088Y475304D01*
X263541Y471798D01*
X263541Y468002D01*
X262088Y464496D01*
X259404Y461812D01*
X255898Y460359D01*
X252102Y460359D01*
G37*
%LPD*%
%LPC*%
G36*
X252102Y485759D02*
X252102Y485759D01*
X248596Y487212D01*
X245912Y489896D01*
X244459Y493402D01*
X244459Y497198D01*
X245912Y500704D01*
X248596Y503388D01*
X252102Y504841D01*
X255898Y504841D01*
X259404Y503388D01*
X262088Y500704D01*
X263541Y497198D01*
X263541Y493402D01*
X262088Y489896D01*
X259404Y487212D01*
X255898Y485759D01*
X252102Y485759D01*
G37*
%LPD*%
%LPC*%
G36*
X252102Y511159D02*
X252102Y511159D01*
X248596Y512612D01*
X245912Y515296D01*
X244459Y518802D01*
X244459Y522598D01*
X245912Y526104D01*
X248596Y528788D01*
X252102Y530241D01*
X255898Y530241D01*
X259404Y528788D01*
X262088Y526104D01*
X263541Y522598D01*
X263541Y518802D01*
X262088Y515296D01*
X259404Y512612D01*
X255898Y511159D01*
X252102Y511159D01*
G37*
%LPD*%
%LPC*%
G36*
X252102Y536559D02*
X252102Y536559D01*
X248596Y538012D01*
X245912Y540696D01*
X244459Y544202D01*
X244459Y547998D01*
X245912Y551504D01*
X248596Y554188D01*
X252102Y555641D01*
X255898Y555641D01*
X259404Y554188D01*
X262088Y551504D01*
X263541Y547998D01*
X263541Y544202D01*
X262088Y540696D01*
X259404Y538012D01*
X255898Y536559D01*
X252102Y536559D01*
G37*
%LPD*%
%LPC*%
G36*
X252102Y561959D02*
X252102Y561959D01*
X248596Y563412D01*
X245912Y566096D01*
X244459Y569602D01*
X244459Y573398D01*
X245912Y576904D01*
X248596Y579588D01*
X252102Y581041D01*
X255898Y581041D01*
X259404Y579588D01*
X262088Y576904D01*
X263541Y573398D01*
X263541Y569602D01*
X262088Y566096D01*
X259404Y563412D01*
X255898Y561959D01*
X252102Y561959D01*
G37*
%LPD*%
%LPC*%
G36*
X252102Y638159D02*
X252102Y638159D01*
X248596Y639612D01*
X245912Y642296D01*
X244459Y645802D01*
X244459Y649598D01*
X245912Y653104D01*
X248596Y655788D01*
X252102Y657241D01*
X255898Y657241D01*
X259404Y655788D01*
X262088Y653104D01*
X263541Y649598D01*
X263541Y645802D01*
X262088Y642296D01*
X259404Y639612D01*
X255898Y638159D01*
X252102Y638159D01*
G37*
%LPD*%
%LPC*%
G36*
X703214Y854619D02*
X703214Y854619D01*
X699913Y855986D01*
X697386Y858513D01*
X696019Y861814D01*
X696019Y865386D01*
X697386Y868687D01*
X699913Y871214D01*
X703214Y872581D01*
X706786Y872581D01*
X710087Y871214D01*
X712614Y868687D01*
X713981Y865386D01*
X713981Y861814D01*
X712614Y858513D01*
X710087Y855986D01*
X706786Y854619D01*
X703214Y854619D01*
G37*
%LPD*%
%LPC*%
G36*
X764657Y623436D02*
X764657Y623436D01*
X761436Y624770D01*
X758970Y627236D01*
X757636Y630457D01*
X757636Y633943D01*
X758970Y637164D01*
X761436Y639630D01*
X764657Y640964D01*
X768143Y640964D01*
X771364Y639630D01*
X773830Y637164D01*
X775164Y633943D01*
X775164Y630457D01*
X773830Y627236D01*
X771364Y624770D01*
X768143Y623436D01*
X764657Y623436D01*
G37*
%LPD*%
%LPC*%
G36*
X790057Y623436D02*
X790057Y623436D01*
X786836Y624770D01*
X784370Y627236D01*
X783036Y630457D01*
X783036Y633943D01*
X784370Y637164D01*
X786836Y639630D01*
X790057Y640964D01*
X793543Y640964D01*
X796764Y639630D01*
X799230Y637164D01*
X800564Y633943D01*
X800564Y630457D01*
X799230Y627236D01*
X796764Y624770D01*
X793543Y623436D01*
X790057Y623436D01*
G37*
%LPD*%
%LPC*%
G36*
X967857Y623436D02*
X967857Y623436D01*
X964636Y624770D01*
X962170Y627236D01*
X960836Y630457D01*
X960836Y633943D01*
X962170Y637164D01*
X964636Y639630D01*
X967857Y640964D01*
X971343Y640964D01*
X974564Y639630D01*
X977030Y637164D01*
X978364Y633943D01*
X978364Y630457D01*
X977030Y627236D01*
X974564Y624770D01*
X971343Y623436D01*
X967857Y623436D01*
G37*
%LPD*%
%LPC*%
G36*
X1196457Y623436D02*
X1196457Y623436D01*
X1193236Y624770D01*
X1190770Y627236D01*
X1189436Y630457D01*
X1189436Y633943D01*
X1190770Y637164D01*
X1193236Y639630D01*
X1196457Y640964D01*
X1199943Y640964D01*
X1203164Y639630D01*
X1205630Y637164D01*
X1206964Y633943D01*
X1206964Y630457D01*
X1205630Y627236D01*
X1203164Y624770D01*
X1199943Y623436D01*
X1196457Y623436D01*
G37*
%LPD*%
%LPC*%
G36*
X1171057Y623436D02*
X1171057Y623436D01*
X1167836Y624770D01*
X1165370Y627236D01*
X1164036Y630457D01*
X1164036Y633943D01*
X1165370Y637164D01*
X1167836Y639630D01*
X1171057Y640964D01*
X1174543Y640964D01*
X1177764Y639630D01*
X1180230Y637164D01*
X1181564Y633943D01*
X1181564Y630457D01*
X1180230Y627236D01*
X1177764Y624770D01*
X1174543Y623436D01*
X1171057Y623436D01*
G37*
%LPD*%
%LPC*%
G36*
X815457Y623436D02*
X815457Y623436D01*
X812236Y624770D01*
X809770Y627236D01*
X808436Y630457D01*
X808436Y633943D01*
X809770Y637164D01*
X812236Y639630D01*
X815457Y640964D01*
X818943Y640964D01*
X822164Y639630D01*
X824630Y637164D01*
X825964Y633943D01*
X825964Y630457D01*
X824630Y627236D01*
X822164Y624770D01*
X818943Y623436D01*
X815457Y623436D01*
G37*
%LPD*%
%LPC*%
G36*
X1120257Y623436D02*
X1120257Y623436D01*
X1117036Y624770D01*
X1114570Y627236D01*
X1113236Y630457D01*
X1113236Y633943D01*
X1114570Y637164D01*
X1117036Y639630D01*
X1120257Y640964D01*
X1123743Y640964D01*
X1126964Y639630D01*
X1129430Y637164D01*
X1130764Y633943D01*
X1130764Y630457D01*
X1129430Y627236D01*
X1126964Y624770D01*
X1123743Y623436D01*
X1120257Y623436D01*
G37*
%LPD*%
%LPC*%
G36*
X1094857Y623436D02*
X1094857Y623436D01*
X1091636Y624770D01*
X1089170Y627236D01*
X1087836Y630457D01*
X1087836Y633943D01*
X1089170Y637164D01*
X1091636Y639630D01*
X1094857Y640964D01*
X1098343Y640964D01*
X1101564Y639630D01*
X1104030Y637164D01*
X1105364Y633943D01*
X1105364Y630457D01*
X1104030Y627236D01*
X1101564Y624770D01*
X1098343Y623436D01*
X1094857Y623436D01*
G37*
%LPD*%
%LPC*%
G36*
X993257Y623436D02*
X993257Y623436D01*
X990036Y624770D01*
X987570Y627236D01*
X986236Y630457D01*
X986236Y633943D01*
X987570Y637164D01*
X990036Y639630D01*
X993257Y640964D01*
X996743Y640964D01*
X999964Y639630D01*
X1002430Y637164D01*
X1003764Y633943D01*
X1003764Y630457D01*
X1002430Y627236D01*
X999964Y624770D01*
X996743Y623436D01*
X993257Y623436D01*
G37*
%LPD*%
%LPC*%
G36*
X942457Y623436D02*
X942457Y623436D01*
X939236Y624770D01*
X936770Y627236D01*
X935436Y630457D01*
X935436Y633943D01*
X936770Y637164D01*
X939236Y639630D01*
X942457Y640964D01*
X945943Y640964D01*
X949164Y639630D01*
X951630Y637164D01*
X952964Y633943D01*
X952964Y630457D01*
X951630Y627236D01*
X949164Y624770D01*
X945943Y623436D01*
X942457Y623436D01*
G37*
%LPD*%
%LPC*%
G36*
X891657Y623436D02*
X891657Y623436D01*
X888436Y624770D01*
X885970Y627236D01*
X884636Y630457D01*
X884636Y633943D01*
X885970Y637164D01*
X888436Y639630D01*
X891657Y640964D01*
X895143Y640964D01*
X898364Y639630D01*
X900830Y637164D01*
X902164Y633943D01*
X902164Y630457D01*
X900830Y627236D01*
X898364Y624770D01*
X895143Y623436D01*
X891657Y623436D01*
G37*
%LPD*%
%LPC*%
G36*
X840857Y623436D02*
X840857Y623436D01*
X837636Y624770D01*
X835170Y627236D01*
X833836Y630457D01*
X833836Y633943D01*
X835170Y637164D01*
X837636Y639630D01*
X840857Y640964D01*
X844343Y640964D01*
X847564Y639630D01*
X850030Y637164D01*
X851364Y633943D01*
X851364Y630457D01*
X850030Y627236D01*
X847564Y624770D01*
X844343Y623436D01*
X840857Y623436D01*
G37*
%LPD*%
%LPC*%
G36*
X1018657Y648836D02*
X1018657Y648836D01*
X1015436Y650170D01*
X1012970Y652636D01*
X1011636Y655857D01*
X1011636Y659343D01*
X1012970Y662564D01*
X1015436Y665030D01*
X1018657Y666364D01*
X1022143Y666364D01*
X1025364Y665030D01*
X1027830Y662564D01*
X1029164Y659343D01*
X1029164Y655857D01*
X1027830Y652636D01*
X1025364Y650170D01*
X1022143Y648836D01*
X1018657Y648836D01*
G37*
%LPD*%
%LPC*%
G36*
X840857Y648836D02*
X840857Y648836D01*
X837636Y650170D01*
X835170Y652636D01*
X833836Y655857D01*
X833836Y659343D01*
X835170Y662564D01*
X837636Y665030D01*
X840857Y666364D01*
X844343Y666364D01*
X847564Y665030D01*
X850030Y662564D01*
X851364Y659343D01*
X851364Y655857D01*
X850030Y652636D01*
X847564Y650170D01*
X844343Y648836D01*
X840857Y648836D01*
G37*
%LPD*%
%LPC*%
G36*
X1145657Y623436D02*
X1145657Y623436D01*
X1142436Y624770D01*
X1139970Y627236D01*
X1138636Y630457D01*
X1138636Y633943D01*
X1139970Y637164D01*
X1142436Y639630D01*
X1145657Y640964D01*
X1149143Y640964D01*
X1152364Y639630D01*
X1154830Y637164D01*
X1156164Y633943D01*
X1156164Y630457D01*
X1154830Y627236D01*
X1152364Y624770D01*
X1149143Y623436D01*
X1145657Y623436D01*
G37*
%LPD*%
%LPC*%
G36*
X866257Y648836D02*
X866257Y648836D01*
X863036Y650170D01*
X860570Y652636D01*
X859236Y655857D01*
X859236Y659343D01*
X860570Y662564D01*
X863036Y665030D01*
X866257Y666364D01*
X869743Y666364D01*
X872964Y665030D01*
X875430Y662564D01*
X876764Y659343D01*
X876764Y655857D01*
X875430Y652636D01*
X872964Y650170D01*
X869743Y648836D01*
X866257Y648836D01*
G37*
%LPD*%
%LPC*%
G36*
X764657Y648836D02*
X764657Y648836D01*
X761436Y650170D01*
X758970Y652636D01*
X757636Y655857D01*
X757636Y659343D01*
X758970Y662564D01*
X761436Y665030D01*
X764657Y666364D01*
X768143Y666364D01*
X771364Y665030D01*
X773830Y662564D01*
X775164Y659343D01*
X775164Y655857D01*
X773830Y652636D01*
X771364Y650170D01*
X768143Y648836D01*
X764657Y648836D01*
G37*
%LPD*%
%LPC*%
G36*
X790057Y648836D02*
X790057Y648836D01*
X786836Y650170D01*
X784370Y652636D01*
X783036Y655857D01*
X783036Y659343D01*
X784370Y662564D01*
X786836Y665030D01*
X790057Y666364D01*
X793543Y666364D01*
X796764Y665030D01*
X799230Y662564D01*
X800564Y659343D01*
X800564Y655857D01*
X799230Y652636D01*
X796764Y650170D01*
X793543Y648836D01*
X790057Y648836D01*
G37*
%LPD*%
%LPC*%
G36*
X993257Y648836D02*
X993257Y648836D01*
X990036Y650170D01*
X987570Y652636D01*
X986236Y655857D01*
X986236Y659343D01*
X987570Y662564D01*
X990036Y665030D01*
X993257Y666364D01*
X996743Y666364D01*
X999964Y665030D01*
X1002430Y662564D01*
X1003764Y659343D01*
X1003764Y655857D01*
X1002430Y652636D01*
X999964Y650170D01*
X996743Y648836D01*
X993257Y648836D01*
G37*
%LPD*%
%LPC*%
G36*
X967857Y648836D02*
X967857Y648836D01*
X964636Y650170D01*
X962170Y652636D01*
X960836Y655857D01*
X960836Y659343D01*
X962170Y662564D01*
X964636Y665030D01*
X967857Y666364D01*
X971343Y666364D01*
X974564Y665030D01*
X977030Y662564D01*
X978364Y659343D01*
X978364Y655857D01*
X977030Y652636D01*
X974564Y650170D01*
X971343Y648836D01*
X967857Y648836D01*
G37*
%LPD*%
%LPC*%
G36*
X942457Y648836D02*
X942457Y648836D01*
X939236Y650170D01*
X936770Y652636D01*
X935436Y655857D01*
X935436Y659343D01*
X936770Y662564D01*
X939236Y665030D01*
X942457Y666364D01*
X945943Y666364D01*
X949164Y665030D01*
X951630Y662564D01*
X952964Y659343D01*
X952964Y655857D01*
X951630Y652636D01*
X949164Y650170D01*
X945943Y648836D01*
X942457Y648836D01*
G37*
%LPD*%
%LPC*%
G36*
X1044057Y648836D02*
X1044057Y648836D01*
X1040836Y650170D01*
X1038370Y652636D01*
X1037036Y655857D01*
X1037036Y659343D01*
X1038370Y662564D01*
X1040836Y665030D01*
X1044057Y666364D01*
X1047543Y666364D01*
X1050764Y665030D01*
X1053230Y662564D01*
X1054564Y659343D01*
X1054564Y655857D01*
X1053230Y652636D01*
X1050764Y650170D01*
X1047543Y648836D01*
X1044057Y648836D01*
G37*
%LPD*%
%LPC*%
G36*
X1069457Y648836D02*
X1069457Y648836D01*
X1066236Y650170D01*
X1063770Y652636D01*
X1062436Y655857D01*
X1062436Y659343D01*
X1063770Y662564D01*
X1066236Y665030D01*
X1069457Y666364D01*
X1072943Y666364D01*
X1076164Y665030D01*
X1078630Y662564D01*
X1079964Y659343D01*
X1079964Y655857D01*
X1078630Y652636D01*
X1076164Y650170D01*
X1072943Y648836D01*
X1069457Y648836D01*
G37*
%LPD*%
%LPC*%
G36*
X1094857Y648836D02*
X1094857Y648836D01*
X1091636Y650170D01*
X1089170Y652636D01*
X1087836Y655857D01*
X1087836Y659343D01*
X1089170Y662564D01*
X1091636Y665030D01*
X1094857Y666364D01*
X1098343Y666364D01*
X1101564Y665030D01*
X1104030Y662564D01*
X1105364Y659343D01*
X1105364Y655857D01*
X1104030Y652636D01*
X1101564Y650170D01*
X1098343Y648836D01*
X1094857Y648836D01*
G37*
%LPD*%
%LPC*%
G36*
X1120257Y648836D02*
X1120257Y648836D01*
X1117036Y650170D01*
X1114570Y652636D01*
X1113236Y655857D01*
X1113236Y659343D01*
X1114570Y662564D01*
X1117036Y665030D01*
X1120257Y666364D01*
X1123743Y666364D01*
X1126964Y665030D01*
X1129430Y662564D01*
X1130764Y659343D01*
X1130764Y655857D01*
X1129430Y652636D01*
X1126964Y650170D01*
X1123743Y648836D01*
X1120257Y648836D01*
G37*
%LPD*%
%LPC*%
G36*
X1145657Y648836D02*
X1145657Y648836D01*
X1142436Y650170D01*
X1139970Y652636D01*
X1138636Y655857D01*
X1138636Y659343D01*
X1139970Y662564D01*
X1142436Y665030D01*
X1145657Y666364D01*
X1149143Y666364D01*
X1152364Y665030D01*
X1154830Y662564D01*
X1156164Y659343D01*
X1156164Y655857D01*
X1154830Y652636D01*
X1152364Y650170D01*
X1149143Y648836D01*
X1145657Y648836D01*
G37*
%LPD*%
%LPC*%
G36*
X1171057Y648836D02*
X1171057Y648836D01*
X1167836Y650170D01*
X1165370Y652636D01*
X1164036Y655857D01*
X1164036Y659343D01*
X1165370Y662564D01*
X1167836Y665030D01*
X1171057Y666364D01*
X1174543Y666364D01*
X1177764Y665030D01*
X1180230Y662564D01*
X1181564Y659343D01*
X1181564Y655857D01*
X1180230Y652636D01*
X1177764Y650170D01*
X1174543Y648836D01*
X1171057Y648836D01*
G37*
%LPD*%
%LPC*%
G36*
X993257Y394836D02*
X993257Y394836D01*
X990036Y396170D01*
X987570Y398636D01*
X986236Y401857D01*
X986236Y405343D01*
X987570Y408564D01*
X990036Y411030D01*
X993257Y412364D01*
X996743Y412364D01*
X999964Y411030D01*
X1002430Y408564D01*
X1003764Y405343D01*
X1003764Y401857D01*
X1002430Y398636D01*
X999964Y396170D01*
X996743Y394836D01*
X993257Y394836D01*
G37*
%LPD*%
%LPC*%
G36*
X891657Y394836D02*
X891657Y394836D01*
X888436Y396170D01*
X885970Y398636D01*
X884636Y401857D01*
X884636Y405343D01*
X885970Y408564D01*
X888436Y411030D01*
X891657Y412364D01*
X895143Y412364D01*
X898364Y411030D01*
X900830Y408564D01*
X902164Y405343D01*
X902164Y401857D01*
X900830Y398636D01*
X898364Y396170D01*
X895143Y394836D01*
X891657Y394836D01*
G37*
%LPD*%
%LPC*%
G36*
X1196457Y394836D02*
X1196457Y394836D01*
X1193236Y396170D01*
X1190770Y398636D01*
X1189436Y401857D01*
X1189436Y405343D01*
X1190770Y408564D01*
X1193236Y411030D01*
X1196457Y412364D01*
X1199943Y412364D01*
X1203164Y411030D01*
X1205630Y408564D01*
X1206964Y405343D01*
X1206964Y401857D01*
X1205630Y398636D01*
X1203164Y396170D01*
X1199943Y394836D01*
X1196457Y394836D01*
G37*
%LPD*%
%LPC*%
G36*
X1171057Y394836D02*
X1171057Y394836D01*
X1167836Y396170D01*
X1165370Y398636D01*
X1164036Y401857D01*
X1164036Y405343D01*
X1165370Y408564D01*
X1167836Y411030D01*
X1171057Y412364D01*
X1174543Y412364D01*
X1177764Y411030D01*
X1180230Y408564D01*
X1181564Y405343D01*
X1181564Y401857D01*
X1180230Y398636D01*
X1177764Y396170D01*
X1174543Y394836D01*
X1171057Y394836D01*
G37*
%LPD*%
%LPC*%
G36*
X1145657Y394836D02*
X1145657Y394836D01*
X1142436Y396170D01*
X1139970Y398636D01*
X1138636Y401857D01*
X1138636Y405343D01*
X1139970Y408564D01*
X1142436Y411030D01*
X1145657Y412364D01*
X1149143Y412364D01*
X1152364Y411030D01*
X1154830Y408564D01*
X1156164Y405343D01*
X1156164Y401857D01*
X1154830Y398636D01*
X1152364Y396170D01*
X1149143Y394836D01*
X1145657Y394836D01*
G37*
%LPD*%
%LPC*%
G36*
X1120257Y394836D02*
X1120257Y394836D01*
X1117036Y396170D01*
X1114570Y398636D01*
X1113236Y401857D01*
X1113236Y405343D01*
X1114570Y408564D01*
X1117036Y411030D01*
X1120257Y412364D01*
X1123743Y412364D01*
X1126964Y411030D01*
X1129430Y408564D01*
X1130764Y405343D01*
X1130764Y401857D01*
X1129430Y398636D01*
X1126964Y396170D01*
X1123743Y394836D01*
X1120257Y394836D01*
G37*
%LPD*%
%LPC*%
G36*
X1094857Y394836D02*
X1094857Y394836D01*
X1091636Y396170D01*
X1089170Y398636D01*
X1087836Y401857D01*
X1087836Y405343D01*
X1089170Y408564D01*
X1091636Y411030D01*
X1094857Y412364D01*
X1098343Y412364D01*
X1101564Y411030D01*
X1104030Y408564D01*
X1105364Y405343D01*
X1105364Y401857D01*
X1104030Y398636D01*
X1101564Y396170D01*
X1098343Y394836D01*
X1094857Y394836D01*
G37*
%LPD*%
%LPC*%
G36*
X1069457Y394836D02*
X1069457Y394836D01*
X1066236Y396170D01*
X1063770Y398636D01*
X1062436Y401857D01*
X1062436Y405343D01*
X1063770Y408564D01*
X1066236Y411030D01*
X1069457Y412364D01*
X1072943Y412364D01*
X1076164Y411030D01*
X1078630Y408564D01*
X1079964Y405343D01*
X1079964Y401857D01*
X1078630Y398636D01*
X1076164Y396170D01*
X1072943Y394836D01*
X1069457Y394836D01*
G37*
%LPD*%
%LPC*%
G36*
X1018657Y394836D02*
X1018657Y394836D01*
X1015436Y396170D01*
X1012970Y398636D01*
X1011636Y401857D01*
X1011636Y405343D01*
X1012970Y408564D01*
X1015436Y411030D01*
X1018657Y412364D01*
X1022143Y412364D01*
X1025364Y411030D01*
X1027830Y408564D01*
X1029164Y405343D01*
X1029164Y401857D01*
X1027830Y398636D01*
X1025364Y396170D01*
X1022143Y394836D01*
X1018657Y394836D01*
G37*
%LPD*%
%LPC*%
G36*
X967857Y394836D02*
X967857Y394836D01*
X964636Y396170D01*
X962170Y398636D01*
X960836Y401857D01*
X960836Y405343D01*
X962170Y408564D01*
X964636Y411030D01*
X967857Y412364D01*
X971343Y412364D01*
X974564Y411030D01*
X977030Y408564D01*
X978364Y405343D01*
X978364Y401857D01*
X977030Y398636D01*
X974564Y396170D01*
X971343Y394836D01*
X967857Y394836D01*
G37*
%LPD*%
%LPC*%
G36*
X942457Y394836D02*
X942457Y394836D01*
X939236Y396170D01*
X936770Y398636D01*
X935436Y401857D01*
X935436Y405343D01*
X936770Y408564D01*
X939236Y411030D01*
X942457Y412364D01*
X945943Y412364D01*
X949164Y411030D01*
X951630Y408564D01*
X952964Y405343D01*
X952964Y401857D01*
X951630Y398636D01*
X949164Y396170D01*
X945943Y394836D01*
X942457Y394836D01*
G37*
%LPD*%
%LPC*%
G36*
X917057Y394836D02*
X917057Y394836D01*
X913836Y396170D01*
X911370Y398636D01*
X910036Y401857D01*
X910036Y405343D01*
X911370Y408564D01*
X913836Y411030D01*
X917057Y412364D01*
X920543Y412364D01*
X923764Y411030D01*
X926230Y408564D01*
X927564Y405343D01*
X927564Y401857D01*
X926230Y398636D01*
X923764Y396170D01*
X920543Y394836D01*
X917057Y394836D01*
G37*
%LPD*%
%LPC*%
G36*
X866257Y394836D02*
X866257Y394836D01*
X863036Y396170D01*
X860570Y398636D01*
X859236Y401857D01*
X859236Y405343D01*
X860570Y408564D01*
X863036Y411030D01*
X866257Y412364D01*
X869743Y412364D01*
X872964Y411030D01*
X875430Y408564D01*
X876764Y405343D01*
X876764Y401857D01*
X875430Y398636D01*
X872964Y396170D01*
X869743Y394836D01*
X866257Y394836D01*
G37*
%LPD*%
%LPC*%
G36*
X840857Y394836D02*
X840857Y394836D01*
X837636Y396170D01*
X835170Y398636D01*
X833836Y401857D01*
X833836Y405343D01*
X835170Y408564D01*
X837636Y411030D01*
X840857Y412364D01*
X844343Y412364D01*
X847564Y411030D01*
X850030Y408564D01*
X851364Y405343D01*
X851364Y401857D01*
X850030Y398636D01*
X847564Y396170D01*
X844343Y394836D01*
X840857Y394836D01*
G37*
%LPD*%
%LPC*%
G36*
X815457Y394836D02*
X815457Y394836D01*
X812236Y396170D01*
X809770Y398636D01*
X808436Y401857D01*
X808436Y405343D01*
X809770Y408564D01*
X812236Y411030D01*
X815457Y412364D01*
X818943Y412364D01*
X822164Y411030D01*
X824630Y408564D01*
X825964Y405343D01*
X825964Y401857D01*
X824630Y398636D01*
X822164Y396170D01*
X818943Y394836D01*
X815457Y394836D01*
G37*
%LPD*%
%LPC*%
G36*
X790057Y394836D02*
X790057Y394836D01*
X786836Y396170D01*
X784370Y398636D01*
X783036Y401857D01*
X783036Y405343D01*
X784370Y408564D01*
X786836Y411030D01*
X790057Y412364D01*
X793543Y412364D01*
X796764Y411030D01*
X799230Y408564D01*
X800564Y405343D01*
X800564Y401857D01*
X799230Y398636D01*
X796764Y396170D01*
X793543Y394836D01*
X790057Y394836D01*
G37*
%LPD*%
%LPC*%
G36*
X764657Y394836D02*
X764657Y394836D01*
X761436Y396170D01*
X758970Y398636D01*
X757636Y401857D01*
X757636Y405343D01*
X758970Y408564D01*
X761436Y411030D01*
X764657Y412364D01*
X768143Y412364D01*
X771364Y411030D01*
X773830Y408564D01*
X775164Y405343D01*
X775164Y401857D01*
X773830Y398636D01*
X771364Y396170D01*
X768143Y394836D01*
X764657Y394836D01*
G37*
%LPD*%
%LPC*%
G36*
X917057Y648836D02*
X917057Y648836D01*
X913836Y650170D01*
X911370Y652636D01*
X910036Y655857D01*
X910036Y659343D01*
X911370Y662564D01*
X913836Y665030D01*
X917057Y666364D01*
X920543Y666364D01*
X923764Y665030D01*
X926230Y662564D01*
X927564Y659343D01*
X927564Y655857D01*
X926230Y652636D01*
X923764Y650170D01*
X920543Y648836D01*
X917057Y648836D01*
G37*
%LPD*%
%LPC*%
G36*
X891657Y648836D02*
X891657Y648836D01*
X888436Y650170D01*
X885970Y652636D01*
X884636Y655857D01*
X884636Y659343D01*
X885970Y662564D01*
X888436Y665030D01*
X891657Y666364D01*
X895143Y666364D01*
X898364Y665030D01*
X900830Y662564D01*
X902164Y659343D01*
X902164Y655857D01*
X900830Y652636D01*
X898364Y650170D01*
X895143Y648836D01*
X891657Y648836D01*
G37*
%LPD*%
%LPC*%
G36*
X1196457Y648836D02*
X1196457Y648836D01*
X1193236Y650170D01*
X1190770Y652636D01*
X1189436Y655857D01*
X1189436Y659343D01*
X1190770Y662564D01*
X1193236Y665030D01*
X1196457Y666364D01*
X1199943Y666364D01*
X1203164Y665030D01*
X1205630Y662564D01*
X1206964Y659343D01*
X1206964Y655857D01*
X1205630Y652636D01*
X1203164Y650170D01*
X1199943Y648836D01*
X1196457Y648836D01*
G37*
%LPD*%
%LPC*%
G36*
X764657Y369436D02*
X764657Y369436D01*
X761436Y370770D01*
X758970Y373236D01*
X757636Y376457D01*
X757636Y379943D01*
X758970Y383164D01*
X761436Y385630D01*
X764657Y386964D01*
X768143Y386964D01*
X771364Y385630D01*
X773830Y383164D01*
X775164Y379943D01*
X775164Y376457D01*
X773830Y373236D01*
X771364Y370770D01*
X768143Y369436D01*
X764657Y369436D01*
G37*
%LPD*%
%LPC*%
G36*
X815457Y648836D02*
X815457Y648836D01*
X812236Y650170D01*
X809770Y652636D01*
X808436Y655857D01*
X808436Y659343D01*
X809770Y662564D01*
X812236Y665030D01*
X815457Y666364D01*
X818943Y666364D01*
X822164Y665030D01*
X824630Y662564D01*
X825964Y659343D01*
X825964Y655857D01*
X824630Y652636D01*
X822164Y650170D01*
X818943Y648836D01*
X815457Y648836D01*
G37*
%LPD*%
%LPC*%
G36*
X1018657Y369436D02*
X1018657Y369436D01*
X1015436Y370770D01*
X1012970Y373236D01*
X1011636Y376457D01*
X1011636Y379943D01*
X1012970Y383164D01*
X1015436Y385630D01*
X1018657Y386964D01*
X1022143Y386964D01*
X1025364Y385630D01*
X1027830Y383164D01*
X1029164Y379943D01*
X1029164Y376457D01*
X1027830Y373236D01*
X1025364Y370770D01*
X1022143Y369436D01*
X1018657Y369436D01*
G37*
%LPD*%
%LPC*%
G36*
X993257Y369436D02*
X993257Y369436D01*
X990036Y370770D01*
X987570Y373236D01*
X986236Y376457D01*
X986236Y379943D01*
X987570Y383164D01*
X990036Y385630D01*
X993257Y386964D01*
X996743Y386964D01*
X999964Y385630D01*
X1002430Y383164D01*
X1003764Y379943D01*
X1003764Y376457D01*
X1002430Y373236D01*
X999964Y370770D01*
X996743Y369436D01*
X993257Y369436D01*
G37*
%LPD*%
%LPC*%
G36*
X1196457Y369436D02*
X1196457Y369436D01*
X1193236Y370770D01*
X1190770Y373236D01*
X1189436Y376457D01*
X1189436Y379943D01*
X1190770Y383164D01*
X1193236Y385630D01*
X1196457Y386964D01*
X1199943Y386964D01*
X1203164Y385630D01*
X1205630Y383164D01*
X1206964Y379943D01*
X1206964Y376457D01*
X1205630Y373236D01*
X1203164Y370770D01*
X1199943Y369436D01*
X1196457Y369436D01*
G37*
%LPD*%
%LPC*%
G36*
X1171057Y369436D02*
X1171057Y369436D01*
X1167836Y370770D01*
X1165370Y373236D01*
X1164036Y376457D01*
X1164036Y379943D01*
X1165370Y383164D01*
X1167836Y385630D01*
X1171057Y386964D01*
X1174543Y386964D01*
X1177764Y385630D01*
X1180230Y383164D01*
X1181564Y379943D01*
X1181564Y376457D01*
X1180230Y373236D01*
X1177764Y370770D01*
X1174543Y369436D01*
X1171057Y369436D01*
G37*
%LPD*%
%LPC*%
G36*
X1145657Y369436D02*
X1145657Y369436D01*
X1142436Y370770D01*
X1139970Y373236D01*
X1138636Y376457D01*
X1138636Y379943D01*
X1139970Y383164D01*
X1142436Y385630D01*
X1145657Y386964D01*
X1149143Y386964D01*
X1152364Y385630D01*
X1154830Y383164D01*
X1156164Y379943D01*
X1156164Y376457D01*
X1154830Y373236D01*
X1152364Y370770D01*
X1149143Y369436D01*
X1145657Y369436D01*
G37*
%LPD*%
%LPC*%
G36*
X1120257Y369436D02*
X1120257Y369436D01*
X1117036Y370770D01*
X1114570Y373236D01*
X1113236Y376457D01*
X1113236Y379943D01*
X1114570Y383164D01*
X1117036Y385630D01*
X1120257Y386964D01*
X1123743Y386964D01*
X1126964Y385630D01*
X1129430Y383164D01*
X1130764Y379943D01*
X1130764Y376457D01*
X1129430Y373236D01*
X1126964Y370770D01*
X1123743Y369436D01*
X1120257Y369436D01*
G37*
%LPD*%
%LPC*%
G36*
X1094857Y369436D02*
X1094857Y369436D01*
X1091636Y370770D01*
X1089170Y373236D01*
X1087836Y376457D01*
X1087836Y379943D01*
X1089170Y383164D01*
X1091636Y385630D01*
X1094857Y386964D01*
X1098343Y386964D01*
X1101564Y385630D01*
X1104030Y383164D01*
X1105364Y379943D01*
X1105364Y376457D01*
X1104030Y373236D01*
X1101564Y370770D01*
X1098343Y369436D01*
X1094857Y369436D01*
G37*
%LPD*%
%LPC*%
G36*
X1069457Y369436D02*
X1069457Y369436D01*
X1066236Y370770D01*
X1063770Y373236D01*
X1062436Y376457D01*
X1062436Y379943D01*
X1063770Y383164D01*
X1066236Y385630D01*
X1069457Y386964D01*
X1072943Y386964D01*
X1076164Y385630D01*
X1078630Y383164D01*
X1079964Y379943D01*
X1079964Y376457D01*
X1078630Y373236D01*
X1076164Y370770D01*
X1072943Y369436D01*
X1069457Y369436D01*
G37*
%LPD*%
%LPC*%
G36*
X1044057Y369436D02*
X1044057Y369436D01*
X1040836Y370770D01*
X1038370Y373236D01*
X1037036Y376457D01*
X1037036Y379943D01*
X1038370Y383164D01*
X1040836Y385630D01*
X1044057Y386964D01*
X1047543Y386964D01*
X1050764Y385630D01*
X1053230Y383164D01*
X1054564Y379943D01*
X1054564Y376457D01*
X1053230Y373236D01*
X1050764Y370770D01*
X1047543Y369436D01*
X1044057Y369436D01*
G37*
%LPD*%
%LPC*%
G36*
X967857Y369436D02*
X967857Y369436D01*
X964636Y370770D01*
X962170Y373236D01*
X960836Y376457D01*
X960836Y379943D01*
X962170Y383164D01*
X964636Y385630D01*
X967857Y386964D01*
X971343Y386964D01*
X974564Y385630D01*
X977030Y383164D01*
X978364Y379943D01*
X978364Y376457D01*
X977030Y373236D01*
X974564Y370770D01*
X971343Y369436D01*
X967857Y369436D01*
G37*
%LPD*%
%LPC*%
G36*
X942457Y369436D02*
X942457Y369436D01*
X939236Y370770D01*
X936770Y373236D01*
X935436Y376457D01*
X935436Y379943D01*
X936770Y383164D01*
X939236Y385630D01*
X942457Y386964D01*
X945943Y386964D01*
X949164Y385630D01*
X951630Y383164D01*
X952964Y379943D01*
X952964Y376457D01*
X951630Y373236D01*
X949164Y370770D01*
X945943Y369436D01*
X942457Y369436D01*
G37*
%LPD*%
%LPC*%
G36*
X917057Y369436D02*
X917057Y369436D01*
X913836Y370770D01*
X911370Y373236D01*
X910036Y376457D01*
X910036Y379943D01*
X911370Y383164D01*
X913836Y385630D01*
X917057Y386964D01*
X920543Y386964D01*
X923764Y385630D01*
X926230Y383164D01*
X927564Y379943D01*
X927564Y376457D01*
X926230Y373236D01*
X923764Y370770D01*
X920543Y369436D01*
X917057Y369436D01*
G37*
%LPD*%
%LPC*%
G36*
X891657Y369436D02*
X891657Y369436D01*
X888436Y370770D01*
X885970Y373236D01*
X884636Y376457D01*
X884636Y379943D01*
X885970Y383164D01*
X888436Y385630D01*
X891657Y386964D01*
X895143Y386964D01*
X898364Y385630D01*
X900830Y383164D01*
X902164Y379943D01*
X902164Y376457D01*
X900830Y373236D01*
X898364Y370770D01*
X895143Y369436D01*
X891657Y369436D01*
G37*
%LPD*%
%LPC*%
G36*
X866257Y369436D02*
X866257Y369436D01*
X863036Y370770D01*
X860570Y373236D01*
X859236Y376457D01*
X859236Y379943D01*
X860570Y383164D01*
X863036Y385630D01*
X866257Y386964D01*
X869743Y386964D01*
X872964Y385630D01*
X875430Y383164D01*
X876764Y379943D01*
X876764Y376457D01*
X875430Y373236D01*
X872964Y370770D01*
X869743Y369436D01*
X866257Y369436D01*
G37*
%LPD*%
%LPC*%
G36*
X840857Y369436D02*
X840857Y369436D01*
X837636Y370770D01*
X835170Y373236D01*
X833836Y376457D01*
X833836Y379943D01*
X835170Y383164D01*
X837636Y385630D01*
X840857Y386964D01*
X844343Y386964D01*
X847564Y385630D01*
X850030Y383164D01*
X851364Y379943D01*
X851364Y376457D01*
X850030Y373236D01*
X847564Y370770D01*
X844343Y369436D01*
X840857Y369436D01*
G37*
%LPD*%
%LPC*%
G36*
X815457Y369436D02*
X815457Y369436D01*
X812236Y370770D01*
X809770Y373236D01*
X808436Y376457D01*
X808436Y379943D01*
X809770Y383164D01*
X812236Y385630D01*
X815457Y386964D01*
X818943Y386964D01*
X822164Y385630D01*
X824630Y383164D01*
X825964Y379943D01*
X825964Y376457D01*
X824630Y373236D01*
X822164Y370770D01*
X818943Y369436D01*
X815457Y369436D01*
G37*
%LPD*%
%LPC*%
G36*
X790057Y369436D02*
X790057Y369436D01*
X786836Y370770D01*
X784370Y373236D01*
X783036Y376457D01*
X783036Y379943D01*
X784370Y383164D01*
X786836Y385630D01*
X790057Y386964D01*
X793543Y386964D01*
X796764Y385630D01*
X799230Y383164D01*
X800564Y379943D01*
X800564Y376457D01*
X799230Y373236D01*
X796764Y370770D01*
X793543Y369436D01*
X790057Y369436D01*
G37*
%LPD*%
%LPC*%
G36*
X316388Y781811D02*
X316388Y781811D01*
X314334Y782662D01*
X312762Y784234D01*
X311911Y786288D01*
X311911Y788512D01*
X312762Y790566D01*
X314334Y792138D01*
X316388Y792989D01*
X318612Y792989D01*
X320666Y792138D01*
X322238Y790566D01*
X323089Y788512D01*
X323089Y786288D01*
X322238Y784234D01*
X320666Y782662D01*
X318612Y781811D01*
X316388Y781811D01*
G37*
%LPD*%
%LPC*%
G36*
X475138Y781811D02*
X475138Y781811D01*
X473084Y782662D01*
X471512Y784234D01*
X470661Y786288D01*
X470661Y788512D01*
X471512Y790566D01*
X473084Y792138D01*
X475138Y792989D01*
X477362Y792989D01*
X479416Y792138D01*
X480988Y790566D01*
X481839Y788512D01*
X481839Y786288D01*
X480988Y784234D01*
X479416Y782662D01*
X477362Y781811D01*
X475138Y781811D01*
G37*
%LPD*%
%LPC*%
G36*
X652938Y781811D02*
X652938Y781811D01*
X650884Y782662D01*
X649312Y784234D01*
X648461Y786288D01*
X648461Y788512D01*
X649312Y790566D01*
X650884Y792138D01*
X652938Y792989D01*
X655162Y792989D01*
X657216Y792138D01*
X658788Y790566D01*
X659639Y788512D01*
X659639Y786288D01*
X658788Y784234D01*
X657216Y782662D01*
X655162Y781811D01*
X652938Y781811D01*
G37*
%LPD*%
%LPC*%
G36*
X238410Y654303D02*
X238410Y654303D01*
X236356Y655154D01*
X234784Y656726D01*
X233933Y658780D01*
X233933Y661004D01*
X234784Y663058D01*
X236356Y664630D01*
X238410Y665481D01*
X240634Y665481D01*
X242688Y664630D01*
X244260Y663058D01*
X245111Y661004D01*
X245111Y658780D01*
X244260Y656726D01*
X242688Y655154D01*
X240634Y654303D01*
X238410Y654303D01*
G37*
%LPD*%
%LPC*%
G36*
X1205388Y223011D02*
X1205388Y223011D01*
X1203334Y223862D01*
X1201762Y225434D01*
X1200911Y227488D01*
X1200911Y229712D01*
X1201762Y231766D01*
X1203334Y233338D01*
X1205388Y234189D01*
X1207612Y234189D01*
X1209666Y233338D01*
X1211238Y231766D01*
X1212089Y229712D01*
X1212089Y227488D01*
X1211238Y225434D01*
X1209666Y223862D01*
X1207612Y223011D01*
X1205388Y223011D01*
G37*
%LPD*%
%LPC*%
G36*
X830738Y781811D02*
X830738Y781811D01*
X828684Y782662D01*
X827112Y784234D01*
X826261Y786288D01*
X826261Y788512D01*
X827112Y790566D01*
X828684Y792138D01*
X830738Y792989D01*
X832962Y792989D01*
X835016Y792138D01*
X836588Y790566D01*
X837439Y788512D01*
X837439Y786288D01*
X836588Y784234D01*
X835016Y782662D01*
X832962Y781811D01*
X830738Y781811D01*
G37*
%LPD*%
%LPC*%
G36*
X256499Y700999D02*
X256499Y700999D01*
X256499Y707720D01*
X257662Y707342D01*
X259001Y706660D01*
X260215Y705777D01*
X261277Y704715D01*
X262160Y703501D01*
X262842Y702162D01*
X263220Y700999D01*
X256499Y700999D01*
G37*
%LPD*%
%LPC*%
G36*
X256499Y696001D02*
X256499Y696001D01*
X263220Y696001D01*
X262842Y694838D01*
X262160Y693499D01*
X261277Y692285D01*
X260215Y691223D01*
X259001Y690340D01*
X257662Y689658D01*
X256499Y689280D01*
X256499Y696001D01*
G37*
%LPD*%
%LPC*%
G36*
X244780Y700999D02*
X244780Y700999D01*
X245158Y702162D01*
X245840Y703501D01*
X246723Y704715D01*
X247785Y705777D01*
X248999Y706660D01*
X250338Y707342D01*
X251501Y707720D01*
X251501Y700999D01*
X244780Y700999D01*
G37*
%LPD*%
%LPC*%
G36*
X250338Y689658D02*
X250338Y689658D01*
X248999Y690340D01*
X247785Y691223D01*
X246723Y692285D01*
X245840Y693499D01*
X245158Y694838D01*
X244780Y696001D01*
X251501Y696001D01*
X251501Y689280D01*
X250338Y689658D01*
G37*
%LPD*%
%LPC*%
G36*
X637299Y861301D02*
X637299Y861301D01*
X643699Y861301D01*
X643636Y860980D01*
X642959Y859346D01*
X641976Y857875D01*
X640725Y856624D01*
X639254Y855641D01*
X637620Y854964D01*
X637299Y854901D01*
X637299Y861301D01*
G37*
%LPD*%
%LPC*%
G36*
X632380Y854964D02*
X632380Y854964D01*
X630746Y855641D01*
X629275Y856624D01*
X628024Y857875D01*
X627041Y859346D01*
X626364Y860980D01*
X626301Y861301D01*
X632701Y861301D01*
X632701Y854901D01*
X632380Y854964D01*
G37*
%LPD*%
%LPC*%
G36*
X921022Y634422D02*
X921022Y634422D01*
X921022Y640693D01*
X921356Y640627D01*
X922951Y639966D01*
X924387Y639007D01*
X925607Y637787D01*
X926566Y636351D01*
X927227Y634756D01*
X927293Y634422D01*
X921022Y634422D01*
G37*
%LPD*%
%LPC*%
G36*
X1048022Y405822D02*
X1048022Y405822D01*
X1048022Y412093D01*
X1048356Y412027D01*
X1049951Y411366D01*
X1051387Y410407D01*
X1052607Y409187D01*
X1053566Y407751D01*
X1054227Y406156D01*
X1054293Y405822D01*
X1048022Y405822D01*
G37*
%LPD*%
%LPC*%
G36*
X1048022Y629978D02*
X1048022Y629978D01*
X1054293Y629978D01*
X1054227Y629644D01*
X1053566Y628049D01*
X1052607Y626613D01*
X1051387Y625393D01*
X1049951Y624434D01*
X1048356Y623773D01*
X1048022Y623707D01*
X1048022Y629978D01*
G37*
%LPD*%
%LPC*%
G36*
X921022Y629978D02*
X921022Y629978D01*
X927293Y629978D01*
X927227Y629644D01*
X926566Y628049D01*
X925607Y626613D01*
X924387Y625393D01*
X922951Y624434D01*
X921356Y623773D01*
X921022Y623707D01*
X921022Y629978D01*
G37*
%LPD*%
%LPC*%
G36*
X1037307Y405822D02*
X1037307Y405822D01*
X1037373Y406156D01*
X1038034Y407751D01*
X1038993Y409187D01*
X1040213Y410407D01*
X1041649Y411366D01*
X1043244Y412027D01*
X1043578Y412093D01*
X1043578Y405822D01*
X1037307Y405822D01*
G37*
%LPD*%
%LPC*%
G36*
X910307Y634422D02*
X910307Y634422D01*
X910373Y634756D01*
X911034Y636351D01*
X911993Y637787D01*
X913213Y639007D01*
X914649Y639966D01*
X916244Y640627D01*
X916578Y640693D01*
X916578Y634422D01*
X910307Y634422D01*
G37*
%LPD*%
%LPC*%
G36*
X1048022Y401378D02*
X1048022Y401378D01*
X1054293Y401378D01*
X1054227Y401044D01*
X1053566Y399449D01*
X1052607Y398013D01*
X1051387Y396793D01*
X1049951Y395834D01*
X1048356Y395173D01*
X1048022Y395107D01*
X1048022Y401378D01*
G37*
%LPD*%
%LPC*%
G36*
X1043244Y395173D02*
X1043244Y395173D01*
X1041649Y395834D01*
X1040213Y396793D01*
X1038993Y398013D01*
X1038034Y399449D01*
X1037373Y401044D01*
X1037307Y401378D01*
X1043578Y401378D01*
X1043578Y395107D01*
X1043244Y395173D01*
G37*
%LPD*%
%LPC*%
G36*
X916244Y623773D02*
X916244Y623773D01*
X914649Y624434D01*
X913213Y625393D01*
X911993Y626613D01*
X911034Y628049D01*
X910373Y629644D01*
X910307Y629978D01*
X916578Y629978D01*
X916578Y623707D01*
X916244Y623773D01*
G37*
%LPD*%
%LPC*%
G36*
X1043244Y623773D02*
X1043244Y623773D01*
X1041649Y624434D01*
X1040213Y625393D01*
X1038993Y626613D01*
X1038034Y628049D01*
X1037373Y629644D01*
X1037307Y629978D01*
X1043578Y629978D01*
X1043578Y623707D01*
X1043244Y623773D01*
G37*
%LPD*%
D10*
X1180100Y863200D03*
X1180100Y813200D03*
X1055100Y813200D03*
X1055100Y863200D03*
D11*
X1092600Y50800D03*
X1117600Y50800D03*
X1142600Y50800D03*
X127400Y50800D03*
X152400Y50800D03*
X177400Y50800D03*
D10*
X214900Y863200D03*
X214900Y813200D03*
X89900Y813200D03*
X89900Y863200D03*
D12*
X635000Y863600D03*
X660000Y863600D03*
X680000Y863600D03*
X705000Y863600D03*
D13*
X604300Y890700D03*
X735700Y890700D03*
D14*
X50800Y965200D03*
X1219200Y965200D03*
X50800Y50800D03*
X1219200Y50800D03*
D15*
X1198200Y378200D03*
X1198200Y403600D03*
X1172800Y378200D03*
X1172800Y403600D03*
X1147400Y378200D03*
X1147400Y403600D03*
X1122000Y378200D03*
X1122000Y403600D03*
X1096600Y378200D03*
X1096600Y403600D03*
X1071200Y378200D03*
X1071200Y403600D03*
X1045800Y378200D03*
X1045800Y403600D03*
X1020400Y378200D03*
X1020400Y403600D03*
X995000Y378200D03*
X995000Y403600D03*
X969600Y378200D03*
X969600Y403600D03*
X944200Y378200D03*
X944200Y403600D03*
X918800Y378200D03*
X918800Y403600D03*
X893400Y378200D03*
X893400Y403600D03*
X868000Y378200D03*
X868000Y403600D03*
X842600Y378200D03*
X842600Y403600D03*
X817200Y378200D03*
X817200Y403600D03*
X791800Y378200D03*
X791800Y403600D03*
X766400Y378200D03*
X766400Y403600D03*
X1198200Y632200D03*
X1198200Y657600D03*
X1172800Y632200D03*
X1172800Y657600D03*
X1147400Y632200D03*
X1147400Y657600D03*
X1122000Y632200D03*
X1122000Y657600D03*
X1096600Y632200D03*
X1096600Y657600D03*
X1071200Y632200D03*
X1071200Y657600D03*
X1045800Y632200D03*
X1045800Y657600D03*
X1020400Y632200D03*
X1020400Y657600D03*
X995000Y632200D03*
X995000Y657600D03*
X969600Y632200D03*
X969600Y657600D03*
X944200Y632200D03*
X944200Y657600D03*
X918800Y632200D03*
X918800Y657600D03*
X893400Y632200D03*
X893400Y657600D03*
X868000Y632200D03*
X868000Y657600D03*
X842600Y632200D03*
X842600Y657600D03*
X817200Y632200D03*
X817200Y657600D03*
X791800Y632200D03*
X791800Y657600D03*
X766400Y632200D03*
X766400Y657600D03*
D11*
X254000Y723900D03*
X254000Y698500D03*
X254000Y673100D03*
X254000Y647700D03*
X254000Y622300D03*
X254000Y596900D03*
X254000Y571500D03*
X254000Y546100D03*
X254000Y520700D03*
X254000Y495300D03*
X254000Y469900D03*
X254000Y444500D03*
X254000Y419100D03*
X254000Y393700D03*
X254000Y368300D03*
X254000Y342900D03*
X254000Y317500D03*
X254000Y292100D03*
X254000Y266700D03*
X254000Y241300D03*
D16*
X254000Y768350D03*
X254000Y196850D03*
X1016000Y768350D03*
X1016000Y196850D03*
D17*
X476250Y787400D03*
X654050Y787400D03*
X831850Y787400D03*
X1206500Y228600D03*
X317500Y787400D03*
X1037590Y812165D03*
X1143000Y40640D03*
X50800Y863600D03*
X1219200Y812800D03*
X285750Y676910D03*
X285750Y308610D03*
X267462Y678676D03*
X267462Y235724D03*
X874985Y619080D03*
X239522Y659892D03*
M02*
