G04 EAGLE Gerber RS-274X export*
G75*
%MOMM*%
%FSLAX34Y34*%
%LPD*%
%INTop Copper*%
%IPPOS*%
%AMOC8*
5,1,8,0,0,1.08239X$1,22.5*%
G01*
%ADD10C,1.960000*%
%ADD11C,1.400000*%
%ADD12R,1.143000X1.270000*%
%ADD13R,1.270000X1.143000*%
%ADD14R,1.288000X1.288000*%
%ADD15C,1.288000*%
%ADD16C,3.220000*%
%ADD17R,0.800000X0.800000*%
%ADD18C,1.016000*%
%ADD19C,4.445000*%
%ADD20R,1.524000X1.524000*%
%ADD21P,1.649562X8X202.500000*%
%ADD22R,1.676400X1.676400*%
%ADD23C,1.676400*%
%ADD24C,4.016000*%
%ADD25C,0.609600*%
%ADD26C,0.254000*%
%ADD27C,0.508000*%

G36*
X1267444Y1012308D02*
X1267444Y1012308D01*
X1267437Y1012427D01*
X1267424Y1012465D01*
X1267419Y1012506D01*
X1267376Y1012616D01*
X1267339Y1012729D01*
X1267317Y1012764D01*
X1267302Y1012801D01*
X1267233Y1012897D01*
X1267169Y1012998D01*
X1267139Y1013026D01*
X1267116Y1013059D01*
X1267024Y1013135D01*
X1266937Y1013216D01*
X1266902Y1013236D01*
X1266871Y1013261D01*
X1266763Y1013312D01*
X1266659Y1013370D01*
X1266619Y1013380D01*
X1266583Y1013397D01*
X1266466Y1013419D01*
X1266351Y1013449D01*
X1266291Y1013453D01*
X1266271Y1013457D01*
X1266250Y1013455D01*
X1266190Y1013459D01*
X3810Y1013459D01*
X3692Y1013444D01*
X3573Y1013437D01*
X3535Y1013424D01*
X3494Y1013419D01*
X3384Y1013376D01*
X3271Y1013339D01*
X3236Y1013317D01*
X3199Y1013302D01*
X3103Y1013233D01*
X3002Y1013169D01*
X2974Y1013139D01*
X2941Y1013116D01*
X2865Y1013024D01*
X2784Y1012937D01*
X2764Y1012902D01*
X2739Y1012871D01*
X2688Y1012763D01*
X2630Y1012659D01*
X2620Y1012619D01*
X2603Y1012583D01*
X2581Y1012466D01*
X2551Y1012351D01*
X2547Y1012291D01*
X2543Y1012271D01*
X2545Y1012250D01*
X2541Y1012190D01*
X2541Y3810D01*
X2556Y3692D01*
X2563Y3573D01*
X2576Y3535D01*
X2581Y3494D01*
X2624Y3384D01*
X2661Y3271D01*
X2683Y3236D01*
X2698Y3199D01*
X2767Y3103D01*
X2831Y3002D01*
X2861Y2974D01*
X2884Y2941D01*
X2976Y2865D01*
X3063Y2784D01*
X3098Y2764D01*
X3129Y2739D01*
X3237Y2688D01*
X3341Y2630D01*
X3381Y2620D01*
X3417Y2603D01*
X3534Y2581D01*
X3649Y2551D01*
X3709Y2547D01*
X3729Y2543D01*
X3750Y2545D01*
X3810Y2541D01*
X1266190Y2541D01*
X1266308Y2556D01*
X1266427Y2563D01*
X1266465Y2576D01*
X1266506Y2581D01*
X1266616Y2624D01*
X1266729Y2661D01*
X1266764Y2683D01*
X1266801Y2698D01*
X1266897Y2767D01*
X1266998Y2831D01*
X1267026Y2861D01*
X1267059Y2884D01*
X1267135Y2976D01*
X1267216Y3063D01*
X1267236Y3098D01*
X1267261Y3129D01*
X1267312Y3237D01*
X1267370Y3341D01*
X1267380Y3381D01*
X1267397Y3417D01*
X1267419Y3534D01*
X1267449Y3649D01*
X1267453Y3709D01*
X1267457Y3729D01*
X1267455Y3750D01*
X1267459Y3810D01*
X1267459Y1012190D01*
X1267444Y1012308D01*
G37*
%LPC*%
G36*
X82550Y932181D02*
X82550Y932181D01*
X82668Y932196D01*
X82787Y932203D01*
X82825Y932216D01*
X82866Y932221D01*
X82976Y932264D01*
X83089Y932301D01*
X83124Y932323D01*
X83161Y932338D01*
X83257Y932408D01*
X83358Y932471D01*
X83386Y932501D01*
X83419Y932524D01*
X83495Y932616D01*
X83576Y932703D01*
X83596Y932738D01*
X83621Y932769D01*
X83672Y932877D01*
X83730Y932981D01*
X83740Y933021D01*
X83757Y933057D01*
X83779Y933174D01*
X83809Y933289D01*
X83813Y933350D01*
X83817Y933370D01*
X83815Y933390D01*
X83819Y933450D01*
X83819Y989331D01*
X1186181Y989331D01*
X1186181Y933450D01*
X1186196Y933332D01*
X1186203Y933213D01*
X1186216Y933175D01*
X1186221Y933134D01*
X1186264Y933024D01*
X1186301Y932911D01*
X1186323Y932876D01*
X1186338Y932839D01*
X1186408Y932743D01*
X1186471Y932642D01*
X1186501Y932614D01*
X1186524Y932581D01*
X1186616Y932506D01*
X1186703Y932424D01*
X1186738Y932404D01*
X1186769Y932379D01*
X1186877Y932328D01*
X1186981Y932270D01*
X1187021Y932260D01*
X1187057Y932243D01*
X1187174Y932221D01*
X1187289Y932191D01*
X1187350Y932187D01*
X1187370Y932183D01*
X1187390Y932185D01*
X1187450Y932181D01*
X1243331Y932181D01*
X1243331Y238760D01*
X1243346Y238642D01*
X1243353Y238523D01*
X1243366Y238485D01*
X1243371Y238444D01*
X1243414Y238334D01*
X1243451Y238221D01*
X1243473Y238186D01*
X1243488Y238149D01*
X1243558Y238053D01*
X1243621Y237952D01*
X1243651Y237924D01*
X1243674Y237891D01*
X1243766Y237815D01*
X1243853Y237734D01*
X1243888Y237714D01*
X1243919Y237689D01*
X1244027Y237638D01*
X1244131Y237580D01*
X1244171Y237570D01*
X1244207Y237553D01*
X1244324Y237531D01*
X1244439Y237501D01*
X1244500Y237497D01*
X1244520Y237493D01*
X1244540Y237495D01*
X1244600Y237491D01*
X1246839Y237491D01*
X1247486Y237318D01*
X1248065Y236983D01*
X1248538Y236510D01*
X1248873Y235931D01*
X1249046Y235284D01*
X1249046Y231139D01*
X1244600Y231139D01*
X1244482Y231124D01*
X1244363Y231117D01*
X1244325Y231104D01*
X1244284Y231099D01*
X1244174Y231055D01*
X1244061Y231019D01*
X1244026Y230997D01*
X1243989Y230982D01*
X1243893Y230912D01*
X1243792Y230849D01*
X1243764Y230819D01*
X1243731Y230795D01*
X1243656Y230704D01*
X1243574Y230617D01*
X1243554Y230582D01*
X1243529Y230550D01*
X1243478Y230443D01*
X1243420Y230339D01*
X1243410Y230299D01*
X1243393Y230263D01*
X1243371Y230146D01*
X1243341Y230031D01*
X1243337Y229970D01*
X1243333Y229950D01*
X1243335Y229930D01*
X1243331Y229870D01*
X1243331Y227330D01*
X1243346Y227212D01*
X1243353Y227093D01*
X1243366Y227055D01*
X1243371Y227015D01*
X1243414Y226904D01*
X1243451Y226791D01*
X1243473Y226756D01*
X1243488Y226719D01*
X1243558Y226623D01*
X1243621Y226522D01*
X1243651Y226494D01*
X1243674Y226461D01*
X1243766Y226386D01*
X1243853Y226304D01*
X1243888Y226284D01*
X1243919Y226259D01*
X1244027Y226208D01*
X1244131Y226150D01*
X1244171Y226140D01*
X1244207Y226123D01*
X1244324Y226101D01*
X1244439Y226071D01*
X1244500Y226067D01*
X1244520Y226063D01*
X1244540Y226065D01*
X1244600Y226061D01*
X1249046Y226061D01*
X1249046Y221916D01*
X1248873Y221269D01*
X1248538Y220690D01*
X1248065Y220217D01*
X1247486Y219882D01*
X1246839Y219709D01*
X1244600Y219709D01*
X1244482Y219694D01*
X1244363Y219687D01*
X1244325Y219674D01*
X1244284Y219669D01*
X1244174Y219626D01*
X1244061Y219589D01*
X1244026Y219567D01*
X1243989Y219552D01*
X1243893Y219483D01*
X1243792Y219419D01*
X1243764Y219389D01*
X1243731Y219366D01*
X1243656Y219274D01*
X1243574Y219187D01*
X1243554Y219152D01*
X1243529Y219121D01*
X1243478Y219013D01*
X1243420Y218909D01*
X1243410Y218869D01*
X1243393Y218833D01*
X1243371Y218716D01*
X1243341Y218601D01*
X1243337Y218541D01*
X1243333Y218521D01*
X1243335Y218500D01*
X1243331Y218440D01*
X1243331Y83819D01*
X1187450Y83819D01*
X1187332Y83804D01*
X1187213Y83797D01*
X1187175Y83784D01*
X1187134Y83779D01*
X1187024Y83736D01*
X1186911Y83699D01*
X1186876Y83677D01*
X1186839Y83662D01*
X1186743Y83593D01*
X1186642Y83529D01*
X1186614Y83499D01*
X1186581Y83476D01*
X1186506Y83384D01*
X1186424Y83297D01*
X1186404Y83262D01*
X1186379Y83231D01*
X1186328Y83123D01*
X1186270Y83019D01*
X1186260Y82979D01*
X1186243Y82943D01*
X1186221Y82826D01*
X1186191Y82711D01*
X1186187Y82651D01*
X1186183Y82631D01*
X1186185Y82610D01*
X1186181Y82550D01*
X1186181Y26669D01*
X980004Y26669D01*
X979906Y26657D01*
X979807Y26654D01*
X979749Y26637D01*
X979689Y26629D01*
X979597Y26593D01*
X979501Y26565D01*
X979449Y26535D01*
X979393Y26512D01*
X979313Y26454D01*
X979228Y26404D01*
X979152Y26338D01*
X979136Y26326D01*
X979128Y26317D01*
X979123Y26313D01*
X979120Y26309D01*
X979107Y26298D01*
X961683Y8874D01*
X136232Y8874D01*
X123589Y21517D01*
X123589Y25400D01*
X123574Y25518D01*
X123567Y25637D01*
X123554Y25675D01*
X123549Y25716D01*
X123506Y25826D01*
X123469Y25939D01*
X123447Y25974D01*
X123432Y26011D01*
X123363Y26107D01*
X123299Y26208D01*
X123269Y26236D01*
X123246Y26269D01*
X123154Y26345D01*
X123067Y26426D01*
X123032Y26446D01*
X123001Y26471D01*
X122893Y26522D01*
X122789Y26580D01*
X122749Y26590D01*
X122713Y26607D01*
X122596Y26629D01*
X122481Y26659D01*
X122421Y26663D01*
X122401Y26667D01*
X122380Y26665D01*
X122320Y26669D01*
X83819Y26669D01*
X83819Y82550D01*
X83804Y82668D01*
X83797Y82787D01*
X83784Y82825D01*
X83779Y82866D01*
X83736Y82976D01*
X83699Y83089D01*
X83677Y83124D01*
X83662Y83161D01*
X83593Y83257D01*
X83529Y83358D01*
X83499Y83386D01*
X83476Y83419D01*
X83384Y83495D01*
X83297Y83576D01*
X83262Y83596D01*
X83231Y83621D01*
X83123Y83672D01*
X83019Y83730D01*
X82979Y83740D01*
X82943Y83757D01*
X82826Y83779D01*
X82711Y83809D01*
X82651Y83813D01*
X82631Y83817D01*
X82610Y83815D01*
X82550Y83819D01*
X26669Y83819D01*
X26669Y932181D01*
X82550Y932181D01*
G37*
%LPD*%
%LPC*%
G36*
X1221739Y967739D02*
X1221739Y967739D01*
X1221739Y989836D01*
X1223355Y989654D01*
X1226067Y989035D01*
X1228692Y988117D01*
X1231199Y986910D01*
X1233554Y985430D01*
X1235729Y983695D01*
X1237695Y981729D01*
X1239430Y979554D01*
X1240910Y977199D01*
X1242117Y974692D01*
X1243035Y972067D01*
X1243654Y969355D01*
X1243836Y967739D01*
X1221739Y967739D01*
G37*
%LPD*%
%LPC*%
G36*
X1221739Y53339D02*
X1221739Y53339D01*
X1221739Y75436D01*
X1223355Y75254D01*
X1226067Y74635D01*
X1228692Y73717D01*
X1231199Y72510D01*
X1233554Y71030D01*
X1235729Y69295D01*
X1237695Y67329D01*
X1239430Y65154D01*
X1240910Y62799D01*
X1242117Y60292D01*
X1243035Y57667D01*
X1243654Y54955D01*
X1243836Y53339D01*
X1221739Y53339D01*
G37*
%LPD*%
%LPC*%
G36*
X53339Y53339D02*
X53339Y53339D01*
X53339Y75436D01*
X54955Y75254D01*
X57667Y74635D01*
X60292Y73717D01*
X62799Y72510D01*
X65154Y71030D01*
X67329Y69295D01*
X69295Y67329D01*
X71030Y65154D01*
X72510Y62799D01*
X73717Y60292D01*
X74635Y57667D01*
X75254Y54955D01*
X75436Y53339D01*
X53339Y53339D01*
G37*
%LPD*%
%LPC*%
G36*
X53339Y967739D02*
X53339Y967739D01*
X53339Y989836D01*
X54955Y989654D01*
X57667Y989035D01*
X60292Y988117D01*
X62799Y986910D01*
X65154Y985430D01*
X67329Y983695D01*
X69295Y981729D01*
X71030Y979554D01*
X72510Y977199D01*
X73717Y974692D01*
X74635Y972067D01*
X75254Y969355D01*
X75436Y967739D01*
X53339Y967739D01*
G37*
%LPD*%
%LPC*%
G36*
X53339Y48261D02*
X53339Y48261D01*
X75436Y48261D01*
X75254Y46645D01*
X74635Y43933D01*
X73717Y41308D01*
X72510Y38801D01*
X71030Y36446D01*
X69295Y34271D01*
X67329Y32305D01*
X65154Y30570D01*
X62799Y29090D01*
X60292Y27883D01*
X57667Y26965D01*
X54955Y26346D01*
X53339Y26164D01*
X53339Y48261D01*
G37*
%LPD*%
%LPC*%
G36*
X1194564Y967739D02*
X1194564Y967739D01*
X1194746Y969355D01*
X1195365Y972067D01*
X1196283Y974692D01*
X1197490Y977199D01*
X1198970Y979554D01*
X1200705Y981729D01*
X1202671Y983695D01*
X1204846Y985430D01*
X1207201Y986910D01*
X1209708Y988117D01*
X1212333Y989035D01*
X1215045Y989654D01*
X1216661Y989836D01*
X1216661Y967739D01*
X1194564Y967739D01*
G37*
%LPD*%
%LPC*%
G36*
X1194564Y53339D02*
X1194564Y53339D01*
X1194746Y54955D01*
X1195365Y57667D01*
X1196283Y60292D01*
X1197490Y62799D01*
X1198970Y65154D01*
X1200705Y67329D01*
X1202671Y69295D01*
X1204846Y71030D01*
X1207201Y72510D01*
X1209708Y73717D01*
X1212333Y74635D01*
X1215045Y75254D01*
X1216661Y75436D01*
X1216661Y53339D01*
X1194564Y53339D01*
G37*
%LPD*%
%LPC*%
G36*
X53339Y962661D02*
X53339Y962661D01*
X75436Y962661D01*
X75254Y961045D01*
X74635Y958333D01*
X73717Y955708D01*
X72510Y953201D01*
X71030Y950846D01*
X69295Y948671D01*
X67329Y946705D01*
X65154Y944970D01*
X62799Y943490D01*
X60292Y942283D01*
X57667Y941365D01*
X54955Y940746D01*
X53339Y940564D01*
X53339Y962661D01*
G37*
%LPD*%
%LPC*%
G36*
X1221739Y962661D02*
X1221739Y962661D01*
X1243836Y962661D01*
X1243654Y961045D01*
X1243035Y958333D01*
X1242117Y955708D01*
X1240910Y953201D01*
X1239430Y950846D01*
X1237695Y948671D01*
X1235729Y946705D01*
X1233554Y944970D01*
X1231199Y943490D01*
X1228692Y942283D01*
X1226067Y941365D01*
X1223355Y940746D01*
X1221739Y940564D01*
X1221739Y962661D01*
G37*
%LPD*%
%LPC*%
G36*
X26164Y53339D02*
X26164Y53339D01*
X26346Y54955D01*
X26965Y57667D01*
X27883Y60292D01*
X29090Y62799D01*
X30570Y65154D01*
X32305Y67329D01*
X34271Y69295D01*
X36446Y71030D01*
X38801Y72510D01*
X41308Y73717D01*
X43933Y74635D01*
X46645Y75254D01*
X48261Y75436D01*
X48261Y53339D01*
X26164Y53339D01*
G37*
%LPD*%
%LPC*%
G36*
X26164Y967739D02*
X26164Y967739D01*
X26346Y969355D01*
X26965Y972067D01*
X27883Y974692D01*
X29090Y977199D01*
X30570Y979554D01*
X32305Y981729D01*
X34271Y983695D01*
X36446Y985430D01*
X38801Y986910D01*
X41308Y988117D01*
X43933Y989035D01*
X46645Y989654D01*
X48261Y989836D01*
X48261Y967739D01*
X26164Y967739D01*
G37*
%LPD*%
%LPC*%
G36*
X1221739Y48261D02*
X1221739Y48261D01*
X1243836Y48261D01*
X1243654Y46645D01*
X1243035Y43933D01*
X1242117Y41308D01*
X1240910Y38801D01*
X1239430Y36446D01*
X1237695Y34271D01*
X1235729Y32305D01*
X1233554Y30570D01*
X1231199Y29090D01*
X1228692Y27883D01*
X1226067Y26965D01*
X1223355Y26346D01*
X1221739Y26164D01*
X1221739Y48261D01*
G37*
%LPD*%
%LPC*%
G36*
X1215045Y940746D02*
X1215045Y940746D01*
X1212333Y941365D01*
X1209708Y942283D01*
X1207201Y943490D01*
X1204846Y944970D01*
X1202671Y946705D01*
X1200705Y948671D01*
X1198970Y950846D01*
X1197490Y953201D01*
X1196283Y955708D01*
X1195365Y958333D01*
X1194746Y961045D01*
X1194564Y962661D01*
X1216661Y962661D01*
X1216661Y940564D01*
X1215045Y940746D01*
G37*
%LPD*%
%LPC*%
G36*
X46645Y940746D02*
X46645Y940746D01*
X43933Y941365D01*
X41308Y942283D01*
X38801Y943490D01*
X36446Y944970D01*
X34271Y946705D01*
X32305Y948671D01*
X30570Y950846D01*
X29090Y953201D01*
X27883Y955708D01*
X26965Y958333D01*
X26346Y961045D01*
X26164Y962661D01*
X48261Y962661D01*
X48261Y940564D01*
X46645Y940746D01*
G37*
%LPD*%
%LPC*%
G36*
X1215045Y26346D02*
X1215045Y26346D01*
X1212333Y26965D01*
X1209708Y27883D01*
X1207201Y29090D01*
X1204846Y30570D01*
X1202671Y32305D01*
X1200705Y34271D01*
X1198970Y36446D01*
X1197490Y38801D01*
X1196283Y41308D01*
X1195365Y43933D01*
X1194746Y46645D01*
X1194564Y48261D01*
X1216661Y48261D01*
X1216661Y26164D01*
X1215045Y26346D01*
G37*
%LPD*%
%LPC*%
G36*
X46645Y26346D02*
X46645Y26346D01*
X43933Y26965D01*
X41308Y27883D01*
X38801Y29090D01*
X36446Y30570D01*
X34271Y32305D01*
X32305Y34271D01*
X30570Y36446D01*
X29090Y38801D01*
X27883Y41308D01*
X26965Y43933D01*
X26346Y46645D01*
X26164Y48261D01*
X48261Y48261D01*
X48261Y26164D01*
X46645Y26346D01*
G37*
%LPD*%
%LPC*%
G36*
X50799Y50799D02*
X50799Y50799D01*
X50799Y50801D01*
X50801Y50801D01*
X50801Y50799D01*
X50799Y50799D01*
G37*
%LPD*%
%LPC*%
G36*
X1219199Y50799D02*
X1219199Y50799D01*
X1219199Y50801D01*
X1219201Y50801D01*
X1219201Y50799D01*
X1219199Y50799D01*
G37*
%LPD*%
%LPC*%
G36*
X1219199Y965199D02*
X1219199Y965199D01*
X1219199Y965201D01*
X1219201Y965201D01*
X1219201Y965199D01*
X1219199Y965199D01*
G37*
%LPD*%
%LPC*%
G36*
X50799Y965199D02*
X50799Y965199D01*
X50799Y965201D01*
X50801Y965201D01*
X50801Y965199D01*
X50799Y965199D01*
G37*
%LPD*%
D10*
X1180100Y863200D03*
X1180100Y813200D03*
X1055100Y813200D03*
X1055100Y863200D03*
D11*
X1092600Y50800D03*
X1117600Y50800D03*
X1142600Y50800D03*
X127400Y50800D03*
X152400Y50800D03*
X177400Y50800D03*
D10*
X214900Y863200D03*
X214900Y813200D03*
X89900Y813200D03*
X89900Y863200D03*
D12*
X1223010Y228600D03*
X1240790Y228600D03*
D13*
X1219200Y847090D03*
X1219200Y829310D03*
X50800Y829310D03*
X50800Y847090D03*
D14*
X635000Y863600D03*
D15*
X660000Y863600D03*
X680000Y863600D03*
X705000Y863600D03*
D16*
X604300Y890700D03*
X735700Y890700D03*
D17*
X449800Y787400D03*
X464600Y787400D03*
X627600Y787400D03*
X642400Y787400D03*
X805400Y787400D03*
X820200Y787400D03*
D18*
X76200Y914400D03*
X1200150Y914400D03*
X1200150Y107950D03*
D19*
X50800Y965200D03*
X1219200Y965200D03*
X50800Y50800D03*
X1219200Y50800D03*
D20*
X1198200Y378200D03*
D21*
X1198200Y403600D03*
X1172800Y378200D03*
X1172800Y403600D03*
X1147400Y378200D03*
X1147400Y403600D03*
X1122000Y378200D03*
X1122000Y403600D03*
X1096600Y378200D03*
X1096600Y403600D03*
X1071200Y378200D03*
X1071200Y403600D03*
X1045800Y378200D03*
X1045800Y403600D03*
X1020400Y378200D03*
X1020400Y403600D03*
X995000Y378200D03*
X995000Y403600D03*
X969600Y378200D03*
X969600Y403600D03*
X944200Y378200D03*
X944200Y403600D03*
X918800Y378200D03*
X918800Y403600D03*
X893400Y378200D03*
X893400Y403600D03*
X868000Y378200D03*
X868000Y403600D03*
X842600Y378200D03*
X842600Y403600D03*
X817200Y378200D03*
X817200Y403600D03*
X791800Y378200D03*
X791800Y403600D03*
X766400Y378200D03*
X766400Y403600D03*
D20*
X1198200Y632200D03*
D21*
X1198200Y657600D03*
X1172800Y632200D03*
X1172800Y657600D03*
X1147400Y632200D03*
X1147400Y657600D03*
X1122000Y632200D03*
X1122000Y657600D03*
X1096600Y632200D03*
X1096600Y657600D03*
X1071200Y632200D03*
X1071200Y657600D03*
X1045800Y632200D03*
X1045800Y657600D03*
X1020400Y632200D03*
X1020400Y657600D03*
X995000Y632200D03*
X995000Y657600D03*
X969600Y632200D03*
X969600Y657600D03*
X944200Y632200D03*
X944200Y657600D03*
X918800Y632200D03*
X918800Y657600D03*
X893400Y632200D03*
X893400Y657600D03*
X868000Y632200D03*
X868000Y657600D03*
X842600Y632200D03*
X842600Y657600D03*
X817200Y632200D03*
X817200Y657600D03*
X791800Y632200D03*
X791800Y657600D03*
X766400Y632200D03*
X766400Y657600D03*
D22*
X254000Y723900D03*
D23*
X254000Y698500D03*
X254000Y673100D03*
X254000Y647700D03*
X254000Y622300D03*
X254000Y596900D03*
X254000Y571500D03*
X254000Y546100D03*
X254000Y520700D03*
X254000Y495300D03*
X254000Y469900D03*
X254000Y444500D03*
X254000Y419100D03*
X254000Y393700D03*
X254000Y368300D03*
X254000Y342900D03*
X254000Y317500D03*
X254000Y292100D03*
X254000Y266700D03*
X254000Y241300D03*
D24*
X254000Y768350D03*
X254000Y196850D03*
X1016000Y768350D03*
X1016000Y196850D03*
D25*
X476250Y787400D03*
D26*
X464600Y787400D01*
X642400Y787400D02*
X654050Y787400D01*
D25*
X654050Y787400D03*
D26*
X820200Y787400D02*
X831850Y787400D01*
D25*
X831850Y787400D03*
D26*
X1207770Y228600D02*
X1223010Y228600D01*
D25*
X1206500Y228600D03*
D26*
X1207770Y228600D01*
X820200Y787400D02*
X818788Y787400D01*
X646580Y787400D02*
X642400Y787400D01*
X1020400Y632200D02*
X1034370Y646170D01*
X1034370Y662335D01*
X1055100Y683065D02*
X1055100Y813200D01*
X1055100Y683065D02*
X1034370Y662335D01*
D25*
X317500Y787400D03*
D26*
X156878Y39990D02*
X147922Y39990D01*
X141590Y46322D01*
X141590Y357490D01*
X254000Y469900D01*
X177400Y50800D02*
X167688Y50800D01*
X156878Y39990D01*
X705000Y863600D02*
X718185Y863600D01*
X1054065Y812165D02*
X1055100Y813200D01*
X1054065Y812165D02*
X1037590Y812165D01*
X1179065Y812165D02*
X1180100Y813200D01*
X1179065Y812165D02*
X1054065Y812165D01*
D25*
X1037590Y812165D03*
D26*
X1142600Y50800D02*
X1143000Y50400D01*
X1143000Y40640D01*
D25*
X1143000Y40640D03*
D26*
X50800Y847090D02*
X50800Y863600D01*
D25*
X50800Y863600D03*
D27*
X1219200Y829310D02*
X1219200Y812800D01*
D25*
X1219200Y812800D03*
D27*
X1219200Y364230D01*
X1209040Y354070D01*
X1070870Y354070D01*
X1045800Y396905D02*
X1045800Y398175D01*
X1045800Y403600D01*
X1058500Y385475D02*
X1058500Y366440D01*
X1058500Y385475D02*
X1045800Y398175D01*
X1058500Y366440D02*
X1070870Y354070D01*
X267462Y235724D02*
X267462Y678676D01*
D26*
X918800Y632200D02*
X1045800Y505200D01*
X1045800Y403600D01*
D27*
X285750Y308610D02*
X285750Y676910D01*
D25*
X285750Y676910D03*
X285750Y308610D03*
X267462Y678676D03*
X267462Y235724D03*
D26*
X970280Y99060D02*
X970280Y377956D01*
X970036Y378200D02*
X969600Y378200D01*
X970280Y99060D02*
X1005840Y63500D01*
X1109980Y63500D01*
X1117600Y55880D01*
X1117600Y50800D01*
X170180Y68580D02*
X152400Y50800D01*
X170180Y68580D02*
X916940Y68580D01*
X944200Y95840D01*
X944200Y378200D01*
X998220Y50800D02*
X1092600Y50800D01*
X982794Y391394D02*
X995000Y403600D01*
X956310Y92710D02*
X998220Y50800D01*
X960105Y12685D02*
X137810Y12685D01*
X127400Y23095D01*
X127400Y50800D01*
X956310Y381075D02*
X966629Y391394D01*
X982794Y391394D01*
X956310Y381075D02*
X956310Y92710D01*
X998220Y50800D02*
X960105Y12685D01*
X791800Y351110D02*
X791800Y378200D01*
X791800Y351110D02*
X784225Y343535D01*
X636270Y343535D01*
X449854Y529951D01*
X449854Y787346D02*
X449800Y787400D01*
X449854Y787346D02*
X449854Y529951D01*
X627600Y759875D02*
X627600Y787400D01*
X420644Y431327D02*
X518596Y333375D01*
X781249Y333375D01*
X478139Y795210D02*
X444222Y795210D01*
X420644Y771632D01*
X420644Y431327D01*
X781249Y333375D02*
X803230Y355356D01*
X627600Y759875D02*
X513474Y759875D01*
X478139Y795210D01*
X803230Y364230D02*
X803230Y355356D01*
X803230Y364230D02*
X817200Y378200D01*
X923535Y646170D02*
X930230Y652866D01*
X780370Y392170D02*
X766400Y378200D01*
X904830Y634395D02*
X916606Y646170D01*
X923535Y646170D01*
X780370Y427746D02*
X780370Y392170D01*
X780370Y427746D02*
X904830Y552206D01*
X904830Y634395D01*
X833739Y795210D02*
X814622Y795210D01*
X806812Y787400D02*
X805400Y787400D01*
X806812Y787400D02*
X814622Y795210D01*
X930230Y698719D02*
X930230Y652866D01*
X930230Y698719D02*
X833739Y795210D01*
X84690Y863200D02*
X50800Y829310D01*
X84690Y863200D02*
X89900Y863200D01*
X1201747Y847090D02*
X1219200Y847090D01*
X1201747Y847090D02*
X1193800Y839143D01*
X1193800Y678600D02*
X1172800Y657600D01*
X1193800Y678600D02*
X1193800Y839143D01*
X1203090Y863200D02*
X1219200Y847090D01*
X1203090Y863200D02*
X1180100Y863200D01*
X1055100Y863200D01*
X735700Y890700D02*
X604300Y890700D01*
X125300Y890700D01*
X50800Y965200D01*
X735700Y890700D02*
X999920Y890700D01*
X1074420Y965200D01*
X1219200Y965200D01*
X1229360Y955040D01*
X1229360Y243840D02*
X1239520Y233680D01*
X1239520Y226060D01*
X1229360Y243840D02*
X1229360Y955040D01*
X1219200Y205740D02*
X1219200Y50800D01*
X1219200Y205740D02*
X1239520Y226060D01*
X1240790Y228600D02*
X1240790Y72390D01*
X1219200Y50800D01*
D27*
X1026715Y613115D02*
X1045800Y632200D01*
X1026715Y613115D02*
X1019130Y613115D01*
X1007700Y662861D02*
X1008080Y663240D01*
X1007700Y624545D02*
X1019130Y613115D01*
X1007700Y624545D02*
X1007700Y662861D01*
X713797Y882650D02*
X646430Y882650D01*
X713797Y882650D02*
X726927Y869520D01*
X801800Y869520D01*
X646430Y882650D02*
X635000Y871220D01*
X635000Y863600D01*
X801800Y869520D02*
X1008080Y663240D01*
D26*
X828890Y643890D02*
X817200Y632200D01*
X874985Y619080D02*
X880065Y624160D01*
X880065Y638855D01*
X875030Y643890D01*
X828890Y643890D01*
D25*
X874985Y619080D03*
D26*
X254000Y520700D02*
X234950Y539750D01*
X234950Y655320D01*
X239522Y659892D01*
D25*
X239522Y659892D03*
M02*
